<svg width="752" height="752" viewBox="0 0 752 752" fill="none" xmlns="http://www.w3.org/2000/svg">
<rect width="752" height="752" rx="376" fill="white"/>
<rect x="278.728" y="449.427" width="353.15" height="20.3057" fill="#12DC9F"/>
<path d="M285.812 413.248C284.898 413.248 284.12 412.927 283.48 412.287C282.84 411.647 282.52 410.87 282.52 409.955V345.199C282.52 344.284 282.84 343.507 283.48 342.866C284.12 342.226 284.898 341.906 285.812 341.906H296.514C297.428 341.906 298.206 342.226 298.846 342.866C299.486 343.507 299.806 344.284 299.806 345.199V349.863C301.727 347.302 304.288 345.153 307.489 343.415C310.782 341.586 314.669 340.626 319.151 340.534C329.578 340.351 336.849 344.421 340.965 352.744C343.069 349.086 346.087 346.159 350.02 343.964C354.044 341.677 358.48 340.534 363.328 340.534C368.084 340.534 372.383 341.632 376.224 343.827C380.157 346.022 383.221 349.36 385.416 353.842C387.703 358.232 388.846 363.812 388.846 370.58V409.955C388.846 410.87 388.526 411.647 387.886 412.287C387.245 412.927 386.468 413.248 385.553 413.248H374.303C373.389 413.248 372.611 412.927 371.971 412.287C371.331 411.647 371.011 410.87 371.011 409.955V371.677C371.011 367.562 370.416 364.315 369.227 361.937C368.038 359.467 366.437 357.729 364.425 356.723C362.413 355.717 360.172 355.214 357.703 355.214C355.691 355.214 353.678 355.717 351.666 356.723C349.654 357.729 348.008 359.467 346.727 361.937C345.447 364.315 344.806 367.562 344.806 371.677V409.955C344.806 410.87 344.486 411.647 343.846 412.287C343.206 412.927 342.428 413.248 341.514 413.248H330.264C329.258 413.248 328.434 412.927 327.794 412.287C327.245 411.647 326.971 410.87 326.971 409.955V371.677C326.971 367.562 326.331 364.315 325.05 361.937C323.77 359.467 322.123 357.729 320.111 356.723C318.099 355.717 315.95 355.214 313.663 355.214C311.559 355.214 309.501 355.763 307.489 356.86C305.477 357.866 303.831 359.559 302.55 361.937C301.27 364.315 300.629 367.562 300.629 371.677V409.955C300.629 410.87 300.309 411.647 299.669 412.287C299.029 412.927 298.251 413.248 297.337 413.248H285.812ZM442.536 414.62C432.384 414.62 424.335 411.693 418.39 405.839C412.445 399.985 409.244 391.662 408.786 380.869C408.695 379.955 408.649 378.812 408.649 377.44C408.649 375.976 408.695 374.833 408.786 374.01C409.152 367.15 410.707 361.205 413.451 356.174C416.286 351.144 420.174 347.302 425.113 344.65C430.052 341.906 435.86 340.534 442.536 340.534C449.945 340.534 456.165 342.089 461.195 345.199C466.226 348.217 470.021 352.47 472.582 357.958C475.143 363.354 476.424 369.619 476.424 376.754V379.635C476.424 380.549 476.104 381.327 475.463 381.967C474.823 382.607 474 382.927 472.994 382.927H427.445C427.445 382.927 427.445 383.065 427.445 383.339C427.445 383.613 427.445 383.842 427.445 384.025C427.536 387.226 428.131 390.199 429.229 392.943C430.418 395.595 432.11 397.744 434.305 399.391C436.591 401.037 439.29 401.86 442.399 401.86C444.96 401.86 447.11 401.495 448.847 400.763C450.585 399.94 452.003 399.025 453.101 398.019C454.198 397.013 454.976 396.19 455.433 395.549C456.256 394.452 456.896 393.812 457.354 393.629C457.902 393.354 458.68 393.217 459.686 393.217H471.485C472.399 393.217 473.131 393.491 473.68 394.04C474.32 394.589 474.594 395.275 474.503 396.098C474.412 397.562 473.634 399.345 472.171 401.449C470.799 403.552 468.787 405.61 466.134 407.623C463.482 409.635 460.143 411.327 456.119 412.699C452.186 413.979 447.658 414.62 442.536 414.62ZM427.445 371.403H457.765V370.991C457.765 367.424 457.171 364.315 455.982 361.662C454.793 359.01 453.055 356.906 450.768 355.351C448.482 353.796 445.738 353.019 442.536 353.019C439.335 353.019 436.591 353.796 434.305 355.351C432.018 356.906 430.28 359.01 429.091 361.662C427.994 364.315 427.445 367.424 427.445 370.991V371.403ZM527.206 414.62C517.054 414.62 509.005 411.693 503.06 405.839C497.115 399.985 493.914 391.662 493.456 380.869C493.365 379.955 493.319 378.812 493.319 377.44C493.319 375.976 493.365 374.833 493.456 374.01C493.822 367.15 495.377 361.205 498.121 356.174C500.956 351.144 504.843 347.302 509.783 344.65C514.722 341.906 520.529 340.534 527.206 340.534C534.615 340.534 540.834 342.089 545.865 345.199C550.895 348.217 554.691 352.47 557.252 357.958C559.813 363.354 561.094 369.619 561.094 376.754V379.635C561.094 380.549 560.773 381.327 560.133 381.967C559.493 382.607 558.67 382.927 557.664 382.927H512.115C512.115 382.927 512.115 383.065 512.115 383.339C512.115 383.613 512.115 383.842 512.115 384.025C512.206 387.226 512.801 390.199 513.898 392.943C515.087 395.595 516.779 397.744 518.975 399.391C521.261 401.037 523.959 401.86 527.069 401.86C529.63 401.86 531.779 401.495 533.517 400.763C535.255 399.94 536.673 399.025 537.77 398.019C538.868 397.013 539.645 396.19 540.103 395.549C540.926 394.452 541.566 393.812 542.023 393.629C542.572 393.354 543.35 393.217 544.356 393.217H556.154C557.069 393.217 557.801 393.491 558.35 394.04C558.99 394.589 559.264 395.275 559.173 396.098C559.081 397.562 558.304 399.345 556.84 401.449C555.469 403.552 553.456 405.61 550.804 407.623C548.151 409.635 544.813 411.327 540.789 412.699C536.856 413.979 532.328 414.62 527.206 414.62ZM512.115 371.403H542.435V370.991C542.435 367.424 541.84 364.315 540.651 361.662C539.462 359.01 537.725 356.906 535.438 355.351C533.151 353.796 530.408 353.019 527.206 353.019C524.005 353.019 521.261 353.796 518.975 355.351C516.688 356.906 514.95 359.01 513.761 361.662C512.664 364.315 512.115 367.424 512.115 370.991V371.403ZM613.117 413.248C607.629 413.248 603.011 412.287 599.261 410.366C595.511 408.446 592.721 405.61 590.892 401.86C589.062 398.019 588.148 393.263 588.148 387.592V356.449H577.309C576.395 356.449 575.617 356.129 574.977 355.488C574.337 354.848 574.017 354.071 574.017 353.156V345.199C574.017 344.284 574.337 343.507 574.977 342.866C575.617 342.226 576.395 341.906 577.309 341.906H588.148V319.132C588.148 318.217 588.422 317.44 588.971 316.799C589.611 316.159 590.434 315.839 591.44 315.839H602.553C603.468 315.839 604.245 316.159 604.886 316.799C605.526 317.44 605.846 318.217 605.846 319.132V341.906H622.995C623.91 341.906 624.687 342.226 625.328 342.866C625.968 343.507 626.288 344.284 626.288 345.199V353.156C626.288 354.071 625.968 354.848 625.328 355.488C624.687 356.129 623.91 356.449 622.995 356.449H605.846V386.22C605.846 389.97 606.486 392.897 607.767 395.001C609.139 397.104 611.471 398.156 614.764 398.156H624.23C625.145 398.156 625.922 398.476 626.562 399.116C627.203 399.757 627.523 400.534 627.523 401.449V409.955C627.523 410.87 627.203 411.647 626.562 412.287C625.922 412.927 625.145 413.248 624.23 413.248H613.117Z" fill="#4E5866"/>
<rect x="224.395" y="428.992" width="30.5564" height="40.7418" fill="#369FFF"/>
<path fill-rule="evenodd" clip-rule="evenodd" d="M224.397 408.62V428.992H265.139V428.991H244.768C233.518 428.991 224.397 419.87 224.397 408.62Z" fill="#369FFF"/>
<rect x="224.395" y="336.847" width="30.5564" height="40.7418" fill="#369FFF"/>
<path d="M183.653 283H224.394V469.733V469.733C201.893 469.733 183.653 451.493 183.653 428.992V283Z" fill="#369FFF"/>
<rect x="120" y="336.847" width="40.7418" height="132.886" fill="#369FFF"/>
<path fill-rule="evenodd" clip-rule="evenodd" d="M154.778 288.967L140.373 283L125.969 288.967L120.002 303.371L125.969 317.775L140.373 323.742L154.778 317.775L160.744 303.371L154.778 288.967ZM135.048 295.5C134.587 295.209 134.003 295.618 134.118 296.151L137.41 311.382C137.522 311.901 138.195 312.044 138.509 311.616L141.995 306.862C142.075 306.754 142.187 306.675 142.316 306.636L148.09 304.919C148.597 304.768 148.691 304.09 148.243 303.808L135.048 295.5Z" fill="#12DC9F"/>
</svg>
