<svg width="752" height="752" viewBox="0 0 752 752" fill="none" xmlns="http://www.w3.org/2000/svg">
<rect width="752" height="752" rx="376" fill="#171A23"/>
<rect x="278.729" y="449.427" width="353.15" height="20.3057" fill="#12DC9F"/>
<path d="M285.814 413.248C284.899 413.248 284.122 412.927 283.481 412.287C282.841 411.647 282.521 410.87 282.521 409.955V345.199C282.521 344.284 282.841 343.507 283.481 342.866C284.122 342.226 284.899 341.906 285.814 341.906H296.515C297.429 341.906 298.207 342.226 298.847 342.866C299.487 343.507 299.808 344.284 299.808 345.199V349.863C301.728 347.302 304.289 345.153 307.49 343.415C310.783 341.586 314.67 340.626 319.152 340.534C329.579 340.351 336.85 344.421 340.966 352.744C343.07 349.086 346.088 346.159 350.021 343.964C354.045 341.677 358.481 340.534 363.329 340.534C368.085 340.534 372.384 341.632 376.225 343.827C380.158 346.022 383.222 349.36 385.417 353.842C387.704 358.232 388.847 363.812 388.847 370.58V409.955C388.847 410.87 388.527 411.647 387.887 412.287C387.247 412.927 386.469 413.248 385.555 413.248H374.305C373.39 413.248 372.612 412.927 371.972 412.287C371.332 411.647 371.012 410.87 371.012 409.955V371.677C371.012 367.562 370.417 364.315 369.228 361.937C368.039 359.467 366.439 357.729 364.426 356.723C362.414 355.717 360.173 355.214 357.704 355.214C355.692 355.214 353.68 355.717 351.667 356.723C349.655 357.729 348.009 359.467 346.728 361.937C345.448 364.315 344.808 367.562 344.808 371.677V409.955C344.808 410.87 344.487 411.647 343.847 412.287C343.207 412.927 342.43 413.248 341.515 413.248H330.265C329.259 413.248 328.436 412.927 327.795 412.287C327.247 411.647 326.972 410.87 326.972 409.955V371.677C326.972 367.562 326.332 364.315 325.051 361.937C323.771 359.467 322.125 357.729 320.112 356.723C318.1 355.717 315.951 355.214 313.664 355.214C311.561 355.214 309.503 355.763 307.49 356.86C305.478 357.866 303.832 359.559 302.551 361.937C301.271 364.315 300.631 367.562 300.631 371.677V409.955C300.631 410.87 300.311 411.647 299.67 412.287C299.03 412.927 298.253 413.248 297.338 413.248H285.814ZM442.538 414.62C432.385 414.62 424.336 411.693 418.391 405.839C412.446 399.985 409.245 391.662 408.788 380.869C408.696 379.955 408.65 378.812 408.65 377.44C408.65 375.976 408.696 374.833 408.788 374.01C409.154 367.15 410.708 361.205 413.452 356.174C416.288 351.144 420.175 347.302 425.114 344.65C430.053 341.906 435.861 340.534 442.538 340.534C449.946 340.534 456.166 342.089 461.196 345.199C466.227 348.217 470.022 352.47 472.583 357.958C475.144 363.354 476.425 369.619 476.425 376.754V379.635C476.425 380.549 476.105 381.327 475.465 381.967C474.824 382.607 474.001 382.927 472.995 382.927H427.446C427.446 382.927 427.446 383.065 427.446 383.339C427.446 383.613 427.446 383.842 427.446 384.025C427.538 387.226 428.132 390.199 429.23 392.943C430.419 395.595 432.111 397.744 434.306 399.391C436.593 401.037 439.291 401.86 442.401 401.86C444.961 401.86 447.111 401.495 448.849 400.763C450.586 399.94 452.004 399.025 453.102 398.019C454.199 397.013 454.977 396.19 455.434 395.549C456.257 394.452 456.897 393.812 457.355 393.629C457.904 393.354 458.681 393.217 459.687 393.217H471.486C472.401 393.217 473.132 393.491 473.681 394.04C474.321 394.589 474.596 395.275 474.504 396.098C474.413 397.562 473.635 399.345 472.172 401.449C470.8 403.552 468.788 405.61 466.135 407.623C463.483 409.635 460.144 411.327 456.12 412.699C452.187 413.979 447.66 414.62 442.538 414.62ZM427.446 371.403H457.766V370.991C457.766 367.424 457.172 364.315 455.983 361.662C454.794 359.01 453.056 356.906 450.769 355.351C448.483 353.796 445.739 353.019 442.538 353.019C439.336 353.019 436.593 353.796 434.306 355.351C432.019 356.906 430.282 359.01 429.093 361.662C427.995 364.315 427.446 367.424 427.446 370.991V371.403ZM527.208 414.62C517.055 414.62 509.006 411.693 503.061 405.839C497.116 399.985 493.915 391.662 493.458 380.869C493.366 379.955 493.32 378.812 493.32 377.44C493.32 375.976 493.366 374.833 493.458 374.01C493.823 367.15 495.378 361.205 498.122 356.174C500.958 351.144 504.845 347.302 509.784 344.65C514.723 341.906 520.531 340.534 527.208 340.534C534.616 340.534 540.836 342.089 545.866 345.199C550.897 348.217 554.692 352.47 557.253 357.958C559.814 363.354 561.095 369.619 561.095 376.754V379.635C561.095 380.549 560.775 381.327 560.134 381.967C559.494 382.607 558.671 382.927 557.665 382.927H512.116C512.116 382.927 512.116 383.065 512.116 383.339C512.116 383.613 512.116 383.842 512.116 384.025C512.208 387.226 512.802 390.199 513.9 392.943C515.089 395.595 516.781 397.744 518.976 399.391C521.262 401.037 523.961 401.86 527.07 401.86C529.631 401.86 531.781 401.495 533.519 400.763C535.256 399.94 536.674 399.025 537.772 398.019C538.869 397.013 539.647 396.19 540.104 395.549C540.927 394.452 541.567 393.812 542.025 393.629C542.573 393.354 543.351 393.217 544.357 393.217H556.156C557.07 393.217 557.802 393.491 558.351 394.04C558.991 394.589 559.265 395.275 559.174 396.098C559.083 397.562 558.305 399.345 556.842 401.449C555.47 403.552 553.458 405.61 550.805 407.623C548.153 409.635 544.814 411.327 540.79 412.699C536.857 413.979 532.329 414.62 527.208 414.62ZM512.116 371.403H542.436V370.991C542.436 367.424 541.842 364.315 540.653 361.662C539.464 359.01 537.726 356.906 535.439 355.351C533.153 353.796 530.409 353.019 527.208 353.019C524.006 353.019 521.262 353.796 518.976 355.351C516.689 356.906 514.951 359.01 513.762 361.662C512.665 364.315 512.116 367.424 512.116 370.991V371.403ZM613.119 413.248C607.631 413.248 603.012 412.287 599.262 410.366C595.512 408.446 592.722 405.61 590.893 401.86C589.064 398.019 588.149 393.263 588.149 387.592V356.449H577.311C576.396 356.449 575.618 356.129 574.978 355.488C574.338 354.848 574.018 354.071 574.018 353.156V345.199C574.018 344.284 574.338 343.507 574.978 342.866C575.618 342.226 576.396 341.906 577.311 341.906H588.149V319.132C588.149 318.217 588.423 317.44 588.972 316.799C589.612 316.159 590.436 315.839 591.442 315.839H602.554C603.469 315.839 604.247 316.159 604.887 316.799C605.527 317.44 605.847 318.217 605.847 319.132V341.906H622.997C623.911 341.906 624.689 342.226 625.329 342.866C625.969 343.507 626.289 344.284 626.289 345.199V353.156C626.289 354.071 625.969 354.848 625.329 355.488C624.689 356.129 623.911 356.449 622.997 356.449H605.847V386.22C605.847 389.97 606.487 392.897 607.768 395.001C609.14 397.104 611.472 398.156 614.765 398.156H624.231C625.146 398.156 625.923 398.476 626.564 399.116C627.204 399.757 627.524 400.534 627.524 401.449V409.955C627.524 410.87 627.204 411.647 626.564 412.287C625.923 412.927 625.146 413.248 624.231 413.248H613.119Z" fill="white"/>
<rect x="224.388" y="428.992" width="30.5564" height="40.7418" fill="#369FFF"/>
<path fill-rule="evenodd" clip-rule="evenodd" d="M224.382 408.62V428.989H244.505C233.369 428.856 224.382 419.787 224.382 408.62Z" fill="#369FFF"/>
<rect x="224.388" y="336.847" width="30.5564" height="40.7418" fill="#369FFF"/>
<path d="M183.646 283H224.388V469.733V469.733C201.887 469.733 183.646 451.493 183.646 428.992V283Z" fill="#369FFF"/>
<rect x="120" y="336.847" width="40.7418" height="132.886" fill="#369FFF"/>
<path fill-rule="evenodd" clip-rule="evenodd" d="M154.775 288.967L140.371 283L125.967 288.967L120 303.371L125.967 317.775L140.371 323.742L154.775 317.775L160.742 303.371L154.775 288.967ZM135.046 295.5C134.584 295.209 134 295.618 134.116 296.151L137.408 311.382C137.52 311.901 138.192 312.044 138.506 311.616L141.993 306.862C142.072 306.754 142.185 306.675 142.314 306.636L148.087 304.919C148.595 304.768 148.688 304.09 148.24 303.808L135.046 295.5Z" fill="#12DC9F"/>
</svg>
