<svg xmlns="http://www.w3.org/2000/svg" xmlns:xlink="http://www.w3.org/1999/xlink" width="500" zoomAndPan="magnify" viewBox="0 0 1440 809.999993" height="300" preserveAspectRatio="xMidYMid meet" version="1.0"><path fill="#012958" d="M 703.695312 453.1875 C 699.328125 452.339844 695.085938 451.492188 689.871094 450.523438 C 691.449219 459.492188 692.78125 467.859375 694.480469 476.101562 C 696.175781 484.46875 698.964844 492.347656 703.695312 499.867188 C 703.085938 499.625 702.359375 499.378906 701.753906 499.015625 C 696.417969 495.5 693.023438 490.289062 691.085938 484.46875 C 688.054688 475.738281 685.75 466.890625 682.71875 458.160156 C 680.171875 450.886719 677.140625 443.855469 674.355469 436.699219 C 673.992188 436.820312 673.625 436.820312 673.261719 436.941406 C 672.898438 437.550781 672.292969 438.035156 672.171875 438.761719 C 670.960938 443.488281 667.566406 445.066406 663.199219 446.398438 C 638.589844 454.160156 614.097656 462.160156 589.609375 470.285156 C 586.820312 471.253906 585.125 471.011719 583.0625 468.585938 C 581.242188 466.402344 578.578125 464.828125 576.152344 463.128906 C 573.605469 461.3125 570.695312 459.855469 568.269531 457.796875 C 565.484375 455.492188 565.726562 453.308594 569 451.734375 C 574.332031 449.1875 579.789062 446.761719 585.246094 444.582031 C 610.21875 434.640625 635.195312 424.820312 660.167969 415 C 661.625 414.394531 663.199219 413.90625 662.59375 411.96875 C 661.867188 409.785156 663.804688 406.753906 660.167969 405.542969 C 636.527344 397.90625 612.644531 390.144531 588.882812 382.265625 C 586.699219 381.539062 585.125 381.78125 582.820312 383.113281 C 574.332031 387.964844 565.117188 388.8125 556.027344 384.933594 C 550.449219 382.628906 549.359375 376.445312 552.996094 371.597656 C 553.601562 370.867188 553.601562 369.65625 553.722656 368.566406 C 553.84375 362.261719 553.84375 355.835938 553.84375 349.53125 C 553.84375 344.800781 555.175781 340.800781 559.785156 338.5 C 560.511719 338.132812 560.753906 336.800781 561.359375 335.953125 C 560.269531 336.074219 558.9375 335.710938 558.207031 336.195312 C 554.570312 339.347656 550.691406 342.378906 547.660156 346.136719 C 544.628906 349.894531 540.871094 352.078125 536.386719 353.289062 C 519.292969 357.53125 502.074219 361.777344 484.980469 365.898438 C 482.796875 366.382812 480.253906 366.746094 478.070312 366.382812 C 473.707031 365.535156 472.371094 360.683594 475.644531 357.652344 C 477.101562 356.320312 478.917969 355.230469 480.738281 354.621094 C 496.621094 348.441406 512.378906 342.136719 528.382812 336.195312 C 536.023438 333.285156 543.902344 331.34375 552.269531 334.011719 C 554.691406 334.859375 559.664062 331.953125 560.875 329.648438 C 562.816406 325.769531 567.421875 324.3125 572.394531 325.890625 C 573.96875 326.375 576.152344 326.375 577.726562 325.890625 C 600.882812 317.886719 624.039062 309.644531 647.195312 301.640625 C 648.652344 301.15625 650.226562 300.792969 651.804688 300.550781 C 654.105469 300.1875 655.5625 301.277344 656.167969 303.339844 C 656.773438 305.402344 656.167969 307.097656 653.984375 307.945312 C 644.164062 311.582031 634.46875 315.464844 624.523438 318.738281 C 609.976562 323.464844 595.308594 327.828125 580.636719 332.4375 C 578.941406 332.921875 577.242188 333.527344 575.546875 334.253906 C 574.816406 334.617188 574.332031 335.589844 573.484375 336.679688 C 574.695312 336.921875 575.179688 337.042969 575.667969 337.042969 C 580.636719 337.042969 583.667969 339.46875 584.152344 344.4375 C 584.757812 349.894531 585.125 355.351562 585.367188 360.925781 C 585.488281 363.109375 586.09375 363.957031 588.398438 364.320312 C 611.308594 368.082031 634.222656 372.082031 657.136719 375.960938 C 661.261719 376.6875 665.503906 377.414062 669.625 378.023438 C 672.65625 378.507812 674.71875 376.808594 675.808594 373.777344 C 681.507812 357.773438 687.082031 341.652344 692.902344 325.648438 C 694.359375 321.523438 697.875 319.101562 701.875 317.644531 C 714.484375 312.917969 727.09375 313.402344 739.699219 317.765625 C 745.277344 319.707031 748.550781 323.828125 750.492188 329.40625 C 754.613281 341.164062 758.855469 352.925781 763.101562 364.6875 C 764.3125 367.835938 765.523438 370.988281 766.980469 374.019531 C 768.796875 378.023438 770.496094 378.75 774.496094 378.023438 C 787.226562 375.71875 800.078125 373.292969 812.808594 370.988281 C 825.902344 368.6875 838.996094 366.382812 852.210938 364.199219 C 855.121094 363.714844 856.332031 362.746094 856.453125 359.59375 C 856.574219 354.621094 857.058594 349.652344 857.785156 344.800781 C 858.636719 339.347656 859.484375 338.863281 864.941406 338.011719 C 865.546875 337.890625 866.152344 337.769531 866.878906 337.648438 C 866.515625 334.738281 865.425781 333.285156 862.394531 332.4375 C 843.722656 326.738281 825.050781 320.796875 806.503906 314.855469 C 801.289062 313.160156 796.078125 311.339844 790.984375 309.402344 C 788.679688 308.550781 786.136719 307.703125 786.742188 304.429688 C 787.347656 301.035156 788.921875 299.945312 792.441406 300.792969 C 797.410156 302.128906 802.382812 303.703125 807.230469 305.402344 C 823.597656 310.976562 839.84375 316.554688 856.089844 322.253906 C 859.121094 323.34375 861.789062 325.039062 864.695312 326.132812 C 866.152344 326.617188 867.96875 326.617188 869.304688 326.132812 C 872.214844 325.039062 874.882812 324.554688 877.910156 325.769531 C 882.15625 327.464844 882.761719 328.921875 880.335938 333.164062 C 883.003906 334.132812 885.550781 334.984375 888.097656 335.832031 C 888.703125 335.953125 889.429688 335.589844 890.035156 335.347656 C 892.097656 334.617188 894.035156 333.285156 896.097656 333.285156 C 902.28125 333.164062 908.222656 334.011719 914.039062 336.4375 C 928.46875 342.136719 943.015625 347.710938 957.445312 353.410156 C 960.476562 354.621094 963.261719 356.320312 966.050781 358.140625 C 968.113281 359.472656 968.71875 361.65625 968.234375 364.078125 C 967.871094 366.140625 966.65625 367.472656 964.597656 367.230469 C 961.808594 366.988281 958.898438 366.746094 956.109375 366.140625 C 939.015625 362.019531 922.042969 357.652344 904.949219 353.773438 C 900.21875 352.683594 896.945312 350.5 894.15625 346.863281 C 890.882812 342.621094 887.003906 338.742188 880.941406 336.921875 C 882.15625 338.378906 882.761719 339.589844 883.730469 340.4375 C 886.761719 343.105469 887.730469 346.5 887.730469 350.378906 C 887.730469 354.988281 887.976562 359.472656 888.097656 364.078125 C 888.21875 367.835938 888.339844 371.476562 890.640625 374.871094 C 893.066406 378.507812 891.855469 381.660156 887.976562 383.960938 C 878.15625 389.660156 868.457031 388.207031 859 383.234375 C 857.179688 382.265625 855.726562 381.78125 853.785156 382.507812 C 834.265625 388.933594 814.867188 395.238281 795.347656 401.664062 C 791.105469 402.996094 786.984375 404.574219 782.742188 405.90625 C 781.042969 406.511719 779.46875 406.996094 779.832031 409.300781 C 780.195312 411.484375 778.980469 414.03125 782.375 415.363281 C 796.925781 420.941406 811.351562 426.636719 825.660156 432.578125 C 841.539062 439.125 857.179688 445.914062 872.941406 452.703125 C 874.394531 453.308594 875.730469 454.402344 877.789062 455.613281 C 876.335938 456.703125 875.367188 457.554688 874.394531 458.039062 C 870.273438 460.34375 866.03125 462.523438 862.03125 465.070312 C 860.574219 465.917969 859.242188 467.496094 858.636719 469.070312 C 857.785156 471.253906 856.9375 471.859375 854.753906 471.132812 C 837.417969 465.433594 819.960938 459.855469 802.503906 454.28125 C 794.015625 451.613281 785.648438 448.582031 777.164062 446.277344 C 773.527344 445.308594 771.34375 443.734375 770.859375 439.972656 C 770.738281 439.246094 770.375 438.640625 770.132812 437.671875 C 765.28125 442.640625 763.34375 448.460938 762.25 454.765625 C 760.554688 464.101562 758.976562 473.558594 756.917969 482.769531 C 755.582031 488.710938 752.914062 494.167969 747.824219 498.046875 C 747.097656 498.652344 746.125 499.015625 744.792969 499.867188 C 744.914062 498.652344 744.671875 497.925781 744.914062 497.5625 C 749.886719 491.136719 751.460938 483.5 752.1875 475.617188 C 752.792969 468.464844 753.523438 461.3125 754.25 454.160156 C 754.492188 451.734375 753.523438 450.886719 751.097656 451.613281 C 748.671875 452.21875 746.125 452.460938 743.703125 452.945312 C 745.761719 457.191406 745.761719 459.976562 743.460938 461.3125 C 742.488281 461.796875 740.550781 461.675781 739.699219 460.949219 C 737.398438 459.25 737.519531 456.703125 739.335938 453.675781 C 727.09375 453.1875 715.332031 453.1875 703.695312 453.1875 Z M 579.789062 345.894531 C 572.273438 345.894531 565.847656 345.894531 559.058594 345.894531 C 559.179688 345.652344 558.9375 346.015625 558.9375 346.5 C 558.816406 354.257812 558.691406 361.898438 558.449219 369.65625 C 558.449219 371.597656 559.421875 372.203125 560.875 372.082031 C 566.816406 371.960938 572.636719 371.839844 578.578125 371.476562 C 579.183594 371.476562 580.152344 369.898438 580.152344 369.050781 C 580.152344 365.414062 579.789062 361.898438 579.789062 358.261719 C 579.667969 354.257812 579.789062 350.136719 579.789062 345.894531 Z M 862.152344 346.015625 C 861.910156 352.804688 861.421875 360.199219 861.542969 367.714844 C 861.542969 369.050781 863.605469 371.355469 864.816406 371.476562 C 869.789062 371.960938 874.882812 371.839844 879.972656 371.960938 C 882.15625 371.960938 883.246094 370.625 883.125 368.445312 C 883.003906 361.65625 882.882812 354.988281 882.640625 348.199219 C 882.640625 347.46875 881.304688 346.136719 880.699219 346.136719 C 874.515625 346.015625 868.457031 346.015625 862.152344 346.015625 Z M 542.082031 493.804688 C 544.75 492.832031 547.175781 492.105469 549.359375 491.015625 C 551.054688 490.167969 552.269531 490.410156 553.480469 491.742188 C 557.480469 495.984375 556.632812 502.53125 551.417969 504.835938 C 539.902344 509.929688 527.898438 509.929688 516.140625 506.292969 C 510.199219 504.472656 508.621094 499.5 510.925781 493.441406 C 511.773438 491.378906 512.136719 488.953125 512.257812 486.773438 C 512.5 480.832031 512.378906 474.890625 512.378906 468.949219 C 512.378906 464.707031 513.835938 461.191406 517.351562 458.523438 C 518.441406 457.796875 519.046875 456.339844 519.898438 455.128906 C 518.683594 454.402344 517.472656 453.308594 516.140625 452.945312 C 512.746094 451.976562 509.347656 451.128906 505.953125 450.523438 C 504.015625 450.15625 501.953125 450.402344 500.015625 450.28125 C 496.5 450.035156 492.496094 450.523438 489.464844 449.1875 C 472.25 441.550781 455.277344 433.304688 438.304688 425.304688 C 436.972656 424.699219 435.757812 423.726562 434.789062 422.636719 C 432 419.605469 432.847656 415.96875 436.847656 415.121094 C 439.757812 414.515625 443.152344 414.273438 445.820312 415.121094 C 466.429688 421.910156 487.285156 428.457031 506.199219 439.609375 C 508.984375 441.308594 511.53125 443.488281 514.199219 445.308594 C 516.625 447.128906 518.925781 447.371094 522.078125 446.398438 C 525.109375 445.429688 528.988281 445.671875 532.140625 446.519531 C 533.71875 446.886719 535.050781 450.035156 535.414062 452.097656 C 536.023438 455.492188 538.082031 457.070312 541.355469 455.613281 C 541.960938 455.371094 542.449219 455.007812 543.054688 454.644531 C 547.296875 452.582031 551.539062 452.097656 555.90625 454.402344 C 567.179688 460.222656 577.726562 466.890625 587.304688 475.132812 C 589.003906 476.589844 590.335938 478.40625 591.425781 480.226562 C 593.246094 483.011719 593.246094 486.042969 591.183594 488.832031 C 589.003906 491.742188 586.09375 493.320312 582.578125 492.226562 C 577.363281 490.53125 572.152344 488.710938 567.179688 486.410156 C 561.601562 483.863281 556.269531 480.832031 550.691406 478.164062 C 546.570312 476.101562 543.902344 472.949219 543.296875 468.222656 C 542.449219 462.644531 538.929688 459.613281 533.597656 458.402344 C 533.355469 458.644531 533.113281 458.886719 532.871094 459.007812 C 533.71875 459.855469 534.566406 461.070312 535.535156 461.554688 C 539.054688 463.007812 540.75 465.433594 540.75 469.3125 C 540.871094 476.34375 541.355469 483.257812 541.597656 490.289062 C 541.839844 491.378906 541.960938 492.226562 542.082031 493.804688 Z M 537.234375 480.105469 C 537.113281 480.105469 536.992188 480.105469 536.75 480.105469 C 536.75 476.589844 536.628906 473.191406 536.75 469.675781 C 536.871094 467.132812 535.78125 466.769531 533.476562 466.890625 C 529.109375 467.011719 524.625 467.011719 520.261719 466.769531 C 518.078125 466.648438 517.109375 467.132812 517.230469 469.433594 C 517.230469 476.464844 517.109375 483.621094 517.230469 490.652344 C 517.230469 491.5 518.441406 492.953125 519.167969 492.953125 C 524.382812 493.320312 529.476562 493.199219 534.6875 493.441406 C 536.75 493.441406 537.113281 492.46875 537.113281 490.652344 C 537.234375 487.015625 537.234375 483.5 537.234375 480.105469 Z M 909.070312 458.402344 C 908.707031 457.796875 908.464844 457.554688 908.222656 457.191406 C 904.339844 453.429688 904.464844 450.28125 908.828125 447.25 C 912.464844 444.703125 916.464844 444.339844 920.464844 446.398438 C 923.738281 447.976562 930.164062 446.035156 931.984375 443.003906 C 932.953125 441.429688 934.410156 439.972656 935.984375 439.125 C 955.503906 429.304688 975.992188 422.03125 996.605469 415.121094 C 998.058594 414.636719 999.753906 414.394531 1001.210938 414.273438 C 1004.242188 413.90625 1006.421875 415.121094 1007.273438 418.152344 C 1008 421.0625 1006.910156 423.484375 1004.363281 424.820312 C 999.878906 427.246094 995.390625 429.425781 990.785156 431.609375 C 977.570312 437.792969 964.355469 443.855469 951.019531 449.914062 C 949.804688 450.402344 948.351562 450.402344 947.015625 450.523438 C 944.714844 450.644531 942.289062 450.15625 939.984375 450.523438 C 935.621094 451.128906 931.257812 452.582031 926.890625 452.945312 C 922.769531 453.308594 921.679688 455.371094 921.800781 459.007812 C 927.742188 460.101562 928.832031 464.585938 929.074219 469.675781 C 929.316406 475.011719 929.195312 480.226562 929.195312 485.558594 C 929.195312 488.832031 929.074219 492.105469 930.648438 495.378906 C 932.589844 499.867188 930.042969 505.078125 925.074219 506.535156 C 913.3125 510.050781 901.675781 509.566406 890.398438 504.59375 C 886.035156 502.652344 884.457031 495.136719 887.488281 491.257812 C 888.945312 489.316406 891.734375 489.074219 893.914062 491.136719 C 895.976562 493.199219 898.160156 493.078125 901.066406 492.589844 C 901.066406 487.378906 901.066406 482.285156 901.066406 477.195312 C 901.066406 475.011719 901.066406 472.707031 901.191406 470.527344 C 901.191406 468.101562 901.796875 466.039062 904.828125 464.707031 C 903.855469 464.222656 902.644531 463.007812 902.039062 463.25 C 900.824219 463.859375 898.886719 465.3125 899.007812 466.160156 C 899.734375 472.949219 895.492188 476.101562 890.277344 478.527344 C 880.820312 482.890625 871.242188 487.257812 861.667969 491.257812 C 856.9375 493.199219 853.179688 492.347656 851.117188 489.804688 C 848.9375 486.894531 848.816406 481.921875 852.332031 478.40625 C 857.542969 473.191406 863.363281 468.34375 869.425781 463.859375 C 874.273438 460.34375 879.730469 457.554688 884.945312 454.644531 C 886.519531 453.796875 888.460938 453.066406 890.277344 452.703125 C 896.824219 451.371094 896.824219 451.371094 900.460938 456.949219 C 901.554688 458.644531 902.523438 459.371094 904.585938 458.765625 C 905.917969 458.644531 907.371094 458.644531 909.070312 458.402344 Z M 905.191406 480.46875 C 904.949219 480.46875 904.828125 480.46875 904.585938 480.46875 C 904.585938 483.863281 904.464844 487.257812 904.707031 490.53125 C 904.707031 491.378906 905.917969 492.832031 906.644531 492.957031 C 911.617188 493.078125 916.585938 492.832031 921.558594 492.710938 C 923.859375 492.589844 924.710938 491.5 924.710938 489.074219 C 924.46875 482.890625 924.46875 476.589844 924.710938 470.40625 C 924.832031 467.738281 923.738281 467.132812 921.4375 467.132812 C 917.433594 467.132812 913.433594 467.253906 909.433594 466.890625 C 906.644531 466.648438 905.433594 467.617188 905.433594 470.285156 C 905.191406 473.679688 905.191406 477.074219 905.191406 480.46875 Z M 741.398438 480.832031 C 741.398438 490.53125 732.910156 498.289062 722.605469 498.289062 C 711.816406 498.289062 703.207031 490.046875 703.207031 479.863281 C 703.207031 470.042969 711.816406 461.917969 722.121094 462.039062 C 733.03125 462.160156 741.398438 470.285156 741.398438 480.832031 Z M 727.214844 482.042969 C 727.335938 479.617188 725.152344 477.558594 722.484375 477.4375 C 719.9375 477.316406 717.394531 479.375 717.273438 481.4375 C 717.03125 483.863281 719.695312 486.410156 722.363281 486.410156 C 724.789062 486.53125 727.09375 484.347656 727.214844 482.042969 Z M 703.695312 453.1875 C 702.964844 453.1875 702.238281 453.1875 701.511719 453.429688 C 699.449219 454.160156 698.359375 456.582031 699.328125 458.523438 C 700.300781 460.464844 701.753906 461.433594 703.9375 460.34375 C 705.753906 459.492188 706.117188 456.828125 704.90625 454.886719 C 704.664062 454.28125 704.179688 453.675781 703.695312 453.1875 Z M 703.695312 453.1875 " fill-opacity="1" fill-rule="nonzero"/></svg>