<svg width="362" height="259" viewBox="0 0 362 259" fill="none" xmlns="http://www.w3.org/2000/svg">
<rect x="110.978" y="121.562" width="246.398" height="14.1676" fill="#12DC9F"/>
<path d="M115.921 96.2453C115.283 96.2453 114.74 96.0219 114.294 95.5752C113.847 95.1285 113.624 94.5861 113.624 93.9479V48.7667C113.624 48.1286 113.847 47.5861 114.294 47.1394C114.74 46.6927 115.283 46.4694 115.921 46.4694H123.387C124.025 46.4694 124.568 46.6927 125.015 47.1394C125.461 47.5861 125.685 48.1286 125.685 48.7667V52.0213C127.025 50.2345 128.812 48.7348 131.045 47.5223C133.342 46.246 136.055 45.5759 139.182 45.5121C146.456 45.3845 151.53 48.2243 154.401 54.0315C155.869 51.4789 157.975 49.4368 160.719 47.9052C163.527 46.3098 166.622 45.5121 170.004 45.5121C173.323 45.5121 176.322 46.2779 179.002 47.8095C181.746 49.341 183.884 51.6703 185.416 54.7973C187.011 57.8604 187.809 61.7531 187.809 66.4755V93.9479C187.809 94.5861 187.585 95.1285 187.139 95.5752C186.692 96.0219 186.15 96.2453 185.511 96.2453H177.662C177.024 96.2453 176.482 96.0219 176.035 95.5752C175.588 95.1285 175.365 94.5861 175.365 93.9479V67.2412C175.365 64.3696 174.95 62.1041 174.12 60.4449C173.291 58.7219 172.174 57.5094 170.77 56.8074C169.366 56.1055 167.803 55.7545 166.08 55.7545C164.676 55.7545 163.272 56.1055 161.868 56.8074C160.464 57.5094 159.315 58.7219 158.422 60.4449C157.528 62.1041 157.082 64.3696 157.082 67.2412V93.9479C157.082 94.5861 156.858 95.1285 156.412 95.5752C155.965 96.0219 155.423 96.2453 154.784 96.2453H146.935C146.233 96.2453 145.659 96.0219 145.212 95.5752C144.829 95.1285 144.638 94.5861 144.638 93.9479V67.2412C144.638 64.3696 144.191 62.1041 143.298 60.4449C142.404 58.7219 141.256 57.5094 139.852 56.8074C138.448 56.1055 136.948 55.7545 135.353 55.7545C133.885 55.7545 132.449 56.1374 131.045 56.9032C129.641 57.6051 128.492 58.7857 127.599 60.4449C126.706 62.1041 126.259 64.3696 126.259 67.2412V93.9479C126.259 94.5861 126.036 95.1285 125.589 95.5752C125.142 96.0219 124.6 96.2453 123.962 96.2453H115.921ZM225.269 97.2025C218.186 97.2025 212.57 95.1604 208.422 91.0763C204.274 86.9921 202.041 81.1849 201.722 73.6547C201.658 73.0165 201.626 72.2188 201.626 71.2616C201.626 70.2406 201.658 69.4429 201.722 68.8685C201.977 64.0824 203.062 59.9344 204.976 56.4245C206.954 52.9147 209.667 50.2345 213.113 48.3838C216.559 46.4694 220.611 45.5121 225.269 45.5121C230.438 45.5121 234.778 46.597 238.288 48.7667C241.798 50.8726 244.446 53.84 246.233 57.6689C248.02 61.434 248.913 65.8054 248.913 70.783V72.7932C248.913 73.4313 248.69 73.9738 248.243 74.4205C247.796 74.8672 247.222 75.0905 246.52 75.0905H214.74C214.74 75.0905 214.74 75.1862 214.74 75.3777C214.74 75.5691 214.74 75.7287 214.74 75.8563C214.804 78.0898 215.218 80.1638 215.984 82.0783C216.814 83.9289 217.994 85.4286 219.526 86.5773C221.121 87.726 223.004 88.3003 225.174 88.3003C226.96 88.3003 228.46 88.045 229.673 87.5345C230.885 86.9602 231.874 86.322 232.64 85.6201C233.406 84.9181 233.948 84.3437 234.267 83.897C234.842 83.1313 235.288 82.6845 235.607 82.5569C235.99 82.3655 236.533 82.2697 237.235 82.2697H245.467C246.105 82.2697 246.616 82.4612 246.998 82.8441C247.445 83.227 247.637 83.7056 247.573 84.2799C247.509 85.301 246.967 86.5454 245.946 88.0131C244.988 89.4809 243.584 90.9167 241.734 92.3207C239.883 93.7246 237.554 94.9052 234.746 95.8624C232.002 96.7558 228.843 97.2025 225.269 97.2025ZM214.74 67.0498H235.895V66.7626C235.895 64.2738 235.48 62.1041 234.65 60.2535C233.821 58.4028 232.608 56.9351 231.013 55.8502C229.417 54.7653 227.503 54.2229 225.269 54.2229C223.036 54.2229 221.121 54.7653 219.526 55.8502C217.931 56.9351 216.718 58.4028 215.889 60.2535C215.123 62.1041 214.74 64.2738 214.74 66.7626V67.0498ZM284.345 97.2025C277.261 97.2025 271.645 95.1604 267.497 91.0763C263.349 86.9921 261.116 81.1849 260.797 73.6547C260.733 73.0165 260.701 72.2188 260.701 71.2616C260.701 70.2406 260.733 69.4429 260.797 68.8685C261.052 64.0824 262.137 59.9344 264.051 56.4245C266.03 52.9147 268.742 50.2345 272.188 48.3838C275.634 46.4694 279.686 45.5121 284.345 45.5121C289.514 45.5121 293.853 46.597 297.363 48.7667C300.873 50.8726 303.521 53.84 305.308 57.6689C307.095 61.434 307.988 65.8054 307.988 70.783V72.7932C307.988 73.4313 307.765 73.9738 307.318 74.4205C306.871 74.8672 306.297 75.0905 305.595 75.0905H273.815C273.815 75.0905 273.815 75.1862 273.815 75.3777C273.815 75.5691 273.815 75.7287 273.815 75.8563C273.879 78.0898 274.294 80.1638 275.06 82.0783C275.889 83.9289 277.07 85.4286 278.601 86.5773C280.197 87.726 282.079 88.3003 284.249 88.3003C286.036 88.3003 287.535 88.045 288.748 87.5345C289.96 86.9602 290.95 86.322 291.715 85.6201C292.481 84.9181 293.024 84.3437 293.343 83.897C293.917 83.1313 294.364 82.6845 294.683 82.5569C295.066 82.3655 295.608 82.2697 296.31 82.2697H304.542C305.18 82.2697 305.691 82.4612 306.074 82.8441C306.52 83.227 306.712 83.7056 306.648 84.2799C306.584 85.301 306.042 86.5454 305.021 88.0131C304.064 89.4809 302.66 90.9167 300.809 92.3207C298.958 93.7246 296.629 94.9052 293.821 95.8624C291.077 96.7558 287.918 97.2025 284.345 97.2025ZM273.815 67.0498H294.97V66.7626C294.97 64.2738 294.555 62.1041 293.726 60.2535C292.896 58.4028 291.683 56.9351 290.088 55.8502C288.493 54.7653 286.578 54.2229 284.345 54.2229C282.111 54.2229 280.197 54.7653 278.601 55.8502C277.006 56.9351 275.793 58.4028 274.964 60.2535C274.198 62.1041 273.815 64.2738 273.815 66.7626V67.0498ZM344.286 96.2453C340.457 96.2453 337.234 95.5752 334.618 94.2351C332.001 92.895 330.055 90.9167 328.779 88.3003C327.502 85.6201 326.864 82.3017 326.864 78.3451V56.616H319.302C318.664 56.616 318.122 56.3926 317.675 55.9459C317.228 55.4992 317.005 54.9568 317.005 54.3186V48.7667C317.005 48.1286 317.228 47.5861 317.675 47.1394C318.122 46.6927 318.664 46.4694 319.302 46.4694H326.864V30.5793C326.864 29.9412 327.056 29.3988 327.439 28.9521C327.885 28.5053 328.46 28.282 329.162 28.282H336.915C337.553 28.282 338.096 28.5053 338.543 28.9521C338.989 29.3988 339.213 29.9412 339.213 30.5793V46.4694H351.178C351.816 46.4694 352.359 46.6927 352.805 47.1394C353.252 47.5861 353.475 48.1286 353.475 48.7667V54.3186C353.475 54.9568 353.252 55.4992 352.805 55.9459C352.359 56.3926 351.816 56.616 351.178 56.616H339.213V77.3879C339.213 80.0043 339.659 82.0464 340.553 83.5141C341.51 84.9819 343.137 85.7158 345.435 85.7158H352.039C352.678 85.7158 353.22 85.9391 353.667 86.3858C354.113 86.8325 354.337 87.375 354.337 88.0131V93.9479C354.337 94.5861 354.113 95.1285 353.667 95.5752C353.22 96.0219 352.678 96.2453 352.039 96.2453H344.286Z" fill="white"/>
<path d="M73.0654 5.44348H44.6393V107.304C44.6393 123.003 57.366 135.73 73.0652 135.73H94.3848V107.304L73.0654 107.304H87.2643C79.4471 107.296 73.1074 100.978 73.0654 93.1687V71.4394H94.3848V43.0133H73.0654V5.44348Z" fill="#369FFF"/>
<rect x="0.229065" y="43.0134" width="28.4261" height="92.7167" fill="#369FFF"/>
<path fill-rule="evenodd" clip-rule="evenodd" d="M24.4923 9.60639L14.4421 5.44348L4.39198 9.60639L0.229065 19.6565L4.39198 29.7067L14.4421 33.8696L24.4923 29.7067L28.6552 19.6565L24.4923 9.60639ZM10.7257 14.1654C10.4037 13.9626 9.9965 14.2477 10.0769 14.6197L12.3737 25.2464C12.452 25.6084 12.921 25.7083 13.14 25.4097L15.5728 22.0931C15.6282 22.0176 15.7069 21.9622 15.7967 21.9355L19.8252 20.7372C20.1792 20.6319 20.2441 20.1586 19.9317 19.9618L10.7257 14.1654Z" fill="#12DC9F"/>
<path d="M11.4354 200.308C10.1637 200.308 9.13048 200.07 8.33568 199.593C7.54088 199.093 6.96181 198.401 6.59848 197.515C6.23514 196.607 6.05347 195.539 6.05347 194.313V185.32H3.39657C3.16949 185.32 2.97647 185.252 2.81751 185.116C2.68126 184.957 2.61313 184.764 2.61313 184.537V183.379C2.61313 183.152 2.68126 182.97 2.81751 182.834C2.97647 182.675 3.16949 182.595 3.39657 182.595H6.05347V176.907C6.05347 176.68 6.1216 176.498 6.25785 176.362C6.41681 176.203 6.60983 176.123 6.83692 176.123H8.43787C8.66495 176.123 8.84662 176.203 8.98287 176.362C9.14183 176.498 9.22131 176.68 9.22131 176.907V182.595H13.4451C13.6722 182.595 13.8539 182.675 13.9901 182.834C14.1491 182.97 14.2285 183.152 14.2285 183.379V184.537C14.2285 184.764 14.1491 184.957 13.9901 185.116C13.8539 185.252 13.6722 185.32 13.4451 185.32H9.22131V194.075C9.22131 195.142 9.40298 195.982 9.76632 196.595C10.1297 197.208 10.7768 197.515 11.7079 197.515H13.7857C14.0128 197.515 14.1945 197.594 14.3307 197.753C14.4897 197.89 14.5692 198.071 14.5692 198.298V199.525C14.5692 199.752 14.4897 199.945 14.3307 200.104C14.1945 200.24 14.0128 200.308 13.7857 200.308H11.4354ZM30.3275 200.649C27.9885 200.649 26.1264 199.933 24.7412 198.503C23.356 197.049 22.5952 195.074 22.459 192.576C22.4363 192.281 22.4249 191.906 22.4249 191.452C22.4249 190.975 22.4363 190.589 22.459 190.294C22.5498 188.681 22.9245 187.273 23.583 186.07C24.2416 184.844 25.1386 183.901 26.274 183.243C27.4321 182.584 28.7833 182.255 30.3275 182.255C32.0533 182.255 33.4953 182.618 34.6534 183.345C35.8343 184.071 36.7313 185.105 37.3444 186.444C37.9575 187.784 38.2641 189.351 38.2641 191.145V191.724C38.2641 191.974 38.1846 192.167 38.0257 192.303C37.8894 192.44 37.7077 192.508 37.4807 192.508H25.6949C25.6949 192.53 25.6949 192.576 25.6949 192.644C25.6949 192.712 25.6949 192.769 25.6949 192.814C25.7403 193.745 25.9447 194.62 26.3081 195.437C26.6714 196.232 27.1937 196.879 27.8749 197.379C28.5562 197.878 29.3737 198.128 30.3275 198.128C31.145 198.128 31.8262 198.003 32.3712 197.753C32.9162 197.504 33.3591 197.231 33.6997 196.936C34.0403 196.618 34.2674 196.379 34.3809 196.221C34.5853 195.925 34.7443 195.755 34.8578 195.71C34.9714 195.641 35.153 195.607 35.4028 195.607H37.0378C37.2649 195.607 37.4466 195.676 37.5828 195.812C37.7418 195.925 37.8099 196.096 37.7872 196.323C37.7645 196.663 37.5828 197.083 37.2422 197.583C36.9016 198.06 36.4134 198.537 35.7775 199.014C35.1417 199.491 34.3696 199.888 33.4612 200.206C32.5529 200.501 31.5083 200.649 30.3275 200.649ZM25.6949 190.157H35.0281V190.055C35.0281 189.033 34.8351 188.125 34.4491 187.33C34.0857 186.535 33.5521 185.911 32.8481 185.457C32.1442 184.98 31.3039 184.741 30.3275 184.741C29.351 184.741 28.5108 184.98 27.8068 185.457C27.1256 185.911 26.6033 186.535 26.2399 187.33C25.8766 188.125 25.6949 189.033 25.6949 190.055V190.157ZM54.9402 200.649C53.3279 200.649 51.9314 200.342 50.7505 199.729C49.5924 199.093 48.6954 198.196 48.0595 197.038C47.4237 195.857 47.0831 194.449 47.0377 192.814C47.015 192.474 47.0036 192.019 47.0036 191.452C47.0036 190.884 47.015 190.43 47.0377 190.089C47.0831 188.454 47.4237 187.058 48.0595 185.899C48.6954 184.719 49.5924 183.822 50.7505 183.209C51.9314 182.573 53.3279 182.255 54.9402 182.255C56.2573 182.255 57.3814 182.436 58.3124 182.8C59.2662 183.163 60.0497 183.629 60.6628 184.196C61.2759 184.764 61.7301 185.377 62.0253 186.036C62.3432 186.694 62.5135 187.319 62.5362 187.909C62.5589 188.136 62.4908 188.318 62.3319 188.454C62.1729 188.59 61.9799 188.659 61.7528 188.659H60.1178C59.8907 188.659 59.7204 188.613 59.6068 188.522C59.4933 188.409 59.3798 188.227 59.2662 187.977C58.8575 186.865 58.3011 186.081 57.5971 185.627C56.8932 185.173 56.0189 184.946 54.9743 184.946C53.6118 184.946 52.4991 185.366 51.6361 186.206C50.7959 187.046 50.3418 188.397 50.2736 190.26C50.2509 191.077 50.2509 191.872 50.2736 192.644C50.3418 194.529 50.7959 195.891 51.6361 196.731C52.4991 197.549 53.6118 197.958 54.9743 197.958C56.0189 197.958 56.8932 197.731 57.5971 197.276C58.3011 196.822 58.8575 196.039 59.2662 194.926C59.3798 194.676 59.4933 194.506 59.6068 194.415C59.7204 194.302 59.8907 194.245 60.1178 194.245H61.7528C61.9799 194.245 62.1729 194.313 62.3319 194.449C62.4908 194.585 62.5589 194.767 62.5362 194.994C62.5135 195.471 62.4113 195.959 62.2297 196.459C62.048 196.959 61.7528 197.469 61.344 197.992C60.958 198.491 60.4698 198.946 59.8793 199.354C59.2889 199.74 58.5736 200.058 57.7334 200.308C56.9159 200.535 55.9848 200.649 54.9402 200.649ZM72.849 200.308C72.6219 200.308 72.4289 200.24 72.2699 200.104C72.1337 199.945 72.0656 199.752 72.0656 199.525V176.907C72.0656 176.68 72.1337 176.498 72.2699 176.362C72.4289 176.203 72.6219 176.123 72.849 176.123H74.5522C74.8019 176.123 74.995 176.203 75.1312 176.362C75.2675 176.498 75.3356 176.68 75.3356 176.907V184.844C75.9487 184.071 76.6981 183.447 77.5837 182.97C78.4694 182.493 79.5934 182.255 80.956 182.255C82.432 182.255 83.681 182.584 84.7029 183.243C85.7475 183.878 86.5309 184.775 87.0532 185.934C87.5982 187.069 87.8707 188.397 87.8707 189.919V199.525C87.8707 199.752 87.8026 199.945 87.6663 200.104C87.5301 200.24 87.3371 200.308 87.0873 200.308H85.3841C85.157 200.308 84.964 200.24 84.8051 200.104C84.6688 199.945 84.6007 199.752 84.6007 199.525V190.089C84.6007 188.5 84.2146 187.262 83.4425 186.376C82.6705 185.468 81.535 185.014 80.0363 185.014C78.6283 185.014 77.4929 185.468 76.63 186.376C75.7671 187.262 75.3356 188.5 75.3356 190.089V199.525C75.3356 199.752 75.2675 199.945 75.1312 200.104C74.995 200.24 74.8019 200.308 74.5522 200.308H72.849ZM118.646 200.649C117.193 200.649 115.955 200.331 114.933 199.695C113.934 199.036 113.173 198.128 112.651 196.97C112.129 195.812 111.868 194.483 111.868 192.985V183.379C111.868 183.152 111.936 182.97 112.072 182.834C112.231 182.675 112.424 182.595 112.651 182.595H114.354C114.581 182.595 114.763 182.675 114.899 182.834C115.058 182.97 115.138 183.152 115.138 183.379V192.814C115.138 196.198 116.614 197.89 119.566 197.89C120.974 197.89 122.098 197.447 122.938 196.561C123.801 195.653 124.232 194.404 124.232 192.814V183.379C124.232 183.152 124.301 182.97 124.437 182.834C124.596 182.675 124.789 182.595 125.016 182.595H126.685C126.935 182.595 127.128 182.675 127.264 182.834C127.4 182.97 127.468 183.152 127.468 183.379V199.525C127.468 199.752 127.4 199.945 127.264 200.104C127.128 200.24 126.935 200.308 126.685 200.308H125.118C124.891 200.308 124.698 200.24 124.539 200.104C124.403 199.945 124.335 199.752 124.335 199.525V198.026C123.722 198.821 122.972 199.456 122.087 199.933C121.224 200.41 120.077 200.649 118.646 200.649ZM138.762 200.308C138.535 200.308 138.342 200.24 138.183 200.104C138.047 199.945 137.979 199.752 137.979 199.525V183.379C137.979 183.152 138.047 182.97 138.183 182.834C138.342 182.675 138.535 182.595 138.762 182.595H140.363C140.59 182.595 140.772 182.675 140.908 182.834C141.067 182.97 141.147 183.152 141.147 183.379V184.878C141.737 184.106 142.475 183.481 143.361 183.004C144.269 182.505 145.427 182.255 146.835 182.255C148.311 182.255 149.56 182.584 150.582 183.243C151.627 183.878 152.41 184.775 152.933 185.934C153.455 187.069 153.716 188.397 153.716 189.919V199.525C153.716 199.752 153.648 199.945 153.512 200.104C153.375 200.24 153.194 200.308 152.967 200.308H151.263C151.036 200.308 150.843 200.24 150.684 200.104C150.548 199.945 150.48 199.752 150.48 199.525V190.089C150.48 188.5 150.094 187.262 149.322 186.376C148.55 185.468 147.414 185.014 145.916 185.014C144.508 185.014 143.372 185.468 142.509 186.376C141.669 187.262 141.249 188.5 141.249 190.089V199.525C141.249 199.752 141.169 199.945 141.011 200.104C140.874 200.24 140.693 200.308 140.466 200.308H138.762ZM164.904 200.308C164.677 200.308 164.484 200.24 164.325 200.104C164.188 199.945 164.12 199.752 164.12 199.525V176.907C164.12 176.68 164.188 176.498 164.325 176.362C164.484 176.203 164.677 176.123 164.904 176.123H166.505C166.754 176.123 166.947 176.203 167.084 176.362C167.22 176.498 167.288 176.68 167.288 176.907V199.525C167.288 199.752 167.22 199.945 167.084 200.104C166.947 200.24 166.754 200.308 166.505 200.308H164.904ZM184.87 200.649C182.531 200.649 180.669 199.933 179.284 198.503C177.899 197.049 177.138 195.074 177.002 192.576C176.979 192.281 176.968 191.906 176.968 191.452C176.968 190.975 176.979 190.589 177.002 190.294C177.092 188.681 177.467 187.273 178.126 186.07C178.784 184.844 179.681 183.901 180.817 183.243C181.975 182.584 183.326 182.255 184.87 182.255C186.596 182.255 188.038 182.618 189.196 183.345C190.377 184.071 191.274 185.105 191.887 186.444C192.5 187.784 192.807 189.351 192.807 191.145V191.724C192.807 191.974 192.727 192.167 192.568 192.303C192.432 192.44 192.25 192.508 192.023 192.508H180.238C180.238 192.53 180.238 192.576 180.238 192.644C180.238 192.712 180.238 192.769 180.238 192.814C180.283 193.745 180.487 194.62 180.851 195.437C181.214 196.232 181.736 196.879 182.418 197.379C183.099 197.878 183.916 198.128 184.87 198.128C185.688 198.128 186.369 198.003 186.914 197.753C187.459 197.504 187.902 197.231 188.242 196.936C188.583 196.618 188.81 196.379 188.924 196.221C189.128 195.925 189.287 195.755 189.4 195.71C189.514 195.641 189.696 195.607 189.945 195.607H191.58C191.808 195.607 191.989 195.676 192.125 195.812C192.284 195.925 192.353 196.096 192.33 196.323C192.307 196.663 192.125 197.083 191.785 197.583C191.444 198.06 190.956 198.537 190.32 199.014C189.684 199.491 188.912 199.888 188.004 200.206C187.096 200.501 186.051 200.649 184.87 200.649ZM180.238 190.157H189.571V190.055C189.571 189.033 189.378 188.125 188.992 187.33C188.628 186.535 188.095 185.911 187.391 185.457C186.687 184.98 185.847 184.741 184.87 184.741C183.894 184.741 183.053 184.98 182.349 185.457C181.668 185.911 181.146 186.535 180.783 187.33C180.419 188.125 180.238 189.033 180.238 190.055V190.157ZM207.269 200.649C206.133 200.649 205.1 200.422 204.169 199.967C203.238 199.513 202.489 198.9 201.921 198.128C201.353 197.356 201.069 196.482 201.069 195.505C201.069 193.938 201.705 192.689 202.977 191.758C204.249 190.827 205.906 190.214 207.95 189.919L213.025 189.204V188.216C213.025 187.126 212.707 186.274 212.072 185.661C211.459 185.048 210.448 184.741 209.04 184.741C208.018 184.741 207.189 184.946 206.553 185.354C205.94 185.763 205.509 186.286 205.259 186.921C205.123 187.262 204.884 187.432 204.544 187.432H203.011C202.761 187.432 202.568 187.364 202.432 187.228C202.318 187.069 202.262 186.887 202.262 186.683C202.262 186.342 202.386 185.922 202.636 185.423C202.909 184.923 203.318 184.435 203.863 183.958C204.408 183.481 205.1 183.084 205.94 182.766C206.803 182.425 207.848 182.255 209.074 182.255C210.437 182.255 211.583 182.436 212.514 182.8C213.446 183.14 214.172 183.606 214.694 184.196C215.239 184.787 215.626 185.457 215.853 186.206C216.102 186.955 216.227 187.716 216.227 188.488V199.525C216.227 199.752 216.148 199.945 215.989 200.104C215.853 200.24 215.671 200.308 215.444 200.308H213.877C213.627 200.308 213.434 200.24 213.298 200.104C213.162 199.945 213.094 199.752 213.094 199.525V198.06C212.798 198.469 212.401 198.877 211.901 199.286C211.402 199.672 210.777 200.001 210.028 200.274C209.278 200.524 208.359 200.649 207.269 200.649ZM207.984 198.094C208.915 198.094 209.767 197.901 210.539 197.515C211.311 197.106 211.913 196.482 212.344 195.641C212.798 194.801 213.025 193.745 213.025 192.474V191.52L209.074 192.099C207.462 192.326 206.247 192.712 205.429 193.257C204.612 193.779 204.203 194.449 204.203 195.267C204.203 195.903 204.385 196.436 204.748 196.868C205.134 197.276 205.611 197.583 206.179 197.787C206.769 197.992 207.371 198.094 207.984 198.094ZM232.705 200.649C231.434 200.649 230.344 200.49 229.435 200.172C228.527 199.854 227.789 199.468 227.221 199.014C226.654 198.559 226.222 198.105 225.927 197.651C225.654 197.197 225.507 196.834 225.484 196.561C225.461 196.311 225.541 196.118 225.723 195.982C225.904 195.846 226.086 195.778 226.268 195.778H227.766C227.903 195.778 228.005 195.8 228.073 195.846C228.164 195.869 228.277 195.959 228.414 196.118C228.709 196.436 229.038 196.754 229.401 197.072C229.765 197.39 230.207 197.651 230.73 197.856C231.275 198.06 231.945 198.162 232.739 198.162C233.898 198.162 234.851 197.946 235.601 197.515C236.35 197.061 236.725 196.402 236.725 195.539C236.725 194.972 236.566 194.517 236.248 194.177C235.953 193.836 235.408 193.53 234.613 193.257C233.841 192.985 232.774 192.701 231.411 192.405C230.049 192.088 228.97 191.702 228.175 191.247C227.38 190.77 226.813 190.214 226.472 189.578C226.131 188.92 225.961 188.182 225.961 187.364C225.961 186.524 226.211 185.718 226.71 184.946C227.21 184.151 227.937 183.504 228.89 183.004C229.867 182.505 231.082 182.255 232.535 182.255C233.716 182.255 234.726 182.402 235.567 182.698C236.407 182.993 237.1 183.367 237.645 183.822C238.19 184.253 238.598 184.685 238.871 185.116C239.143 185.548 239.291 185.911 239.314 186.206C239.336 186.433 239.268 186.626 239.109 186.785C238.95 186.921 238.769 186.989 238.564 186.989H237.134C236.975 186.989 236.838 186.955 236.725 186.887C236.634 186.819 236.543 186.74 236.452 186.649C236.225 186.354 235.953 186.058 235.635 185.763C235.34 185.468 234.942 185.23 234.443 185.048C233.966 184.844 233.33 184.741 232.535 184.741C231.4 184.741 230.548 184.98 229.98 185.457C229.413 185.934 229.129 186.535 229.129 187.262C229.129 187.693 229.254 188.08 229.504 188.42C229.753 188.761 230.23 189.067 230.934 189.34C231.638 189.612 232.683 189.908 234.068 190.225C235.567 190.521 236.748 190.918 237.61 191.418C238.473 191.917 239.087 192.496 239.45 193.155C239.813 193.813 239.995 194.574 239.995 195.437C239.995 196.391 239.711 197.265 239.143 198.06C238.598 198.855 237.781 199.491 236.691 199.967C235.623 200.422 234.295 200.649 232.705 200.649ZM250.206 200.308C249.979 200.308 249.786 200.24 249.627 200.104C249.49 199.945 249.422 199.752 249.422 199.525V176.907C249.422 176.68 249.49 176.498 249.627 176.362C249.786 176.203 249.979 176.123 250.206 176.123H251.909C252.159 176.123 252.352 176.203 252.488 176.362C252.624 176.498 252.692 176.68 252.692 176.907V184.844C253.305 184.071 254.055 183.447 254.94 182.97C255.826 182.493 256.95 182.255 258.313 182.255C259.789 182.255 261.038 182.584 262.06 183.243C263.104 183.878 263.888 184.775 264.41 185.934C264.955 187.069 265.227 188.397 265.227 189.919V199.525C265.227 199.752 265.159 199.945 265.023 200.104C264.887 200.24 264.694 200.308 264.444 200.308H262.741C262.514 200.308 262.321 200.24 262.162 200.104C262.026 199.945 261.957 199.752 261.957 199.525V190.089C261.957 188.5 261.571 187.262 260.799 186.376C260.027 185.468 258.892 185.014 257.393 185.014C255.985 185.014 254.85 185.468 253.987 186.376C253.124 187.262 252.692 188.5 252.692 190.089V199.525C252.692 199.752 252.624 199.945 252.488 200.104C252.352 200.24 252.159 200.308 251.909 200.308H250.206ZM282.646 200.649C280.307 200.649 278.445 199.933 277.06 198.503C275.675 197.049 274.914 195.074 274.778 192.576C274.755 192.281 274.744 191.906 274.744 191.452C274.744 190.975 274.755 190.589 274.778 190.294C274.869 188.681 275.243 187.273 275.902 186.07C276.56 184.844 277.457 183.901 278.593 183.243C279.751 182.584 281.102 182.255 282.646 182.255C284.372 182.255 285.814 182.618 286.972 183.345C288.153 184.071 289.05 185.105 289.663 186.444C290.276 187.784 290.583 189.351 290.583 191.145V191.724C290.583 191.974 290.503 192.167 290.344 192.303C290.208 192.44 290.027 192.508 289.799 192.508H278.014C278.014 192.53 278.014 192.576 278.014 192.644C278.014 192.712 278.014 192.769 278.014 192.814C278.059 193.745 278.264 194.62 278.627 195.437C278.99 196.232 279.513 196.879 280.194 197.379C280.875 197.878 281.693 198.128 282.646 198.128C283.464 198.128 284.145 198.003 284.69 197.753C285.235 197.504 285.678 197.231 286.019 196.936C286.359 196.618 286.586 196.379 286.7 196.221C286.904 195.925 287.063 195.755 287.177 195.71C287.29 195.641 287.472 195.607 287.722 195.607H289.357C289.584 195.607 289.765 195.676 289.902 195.812C290.061 195.925 290.129 196.096 290.106 196.323C290.083 196.663 289.902 197.083 289.561 197.583C289.22 198.06 288.732 198.537 288.096 199.014C287.46 199.491 286.688 199.888 285.78 200.206C284.872 200.501 283.827 200.649 282.646 200.649ZM278.014 190.157H287.347V190.055C287.347 189.033 287.154 188.125 286.768 187.33C286.405 186.535 285.871 185.911 285.167 185.457C284.463 184.98 283.623 184.741 282.646 184.741C281.67 184.741 280.83 184.98 280.126 185.457C279.444 185.911 278.922 186.535 278.559 187.33C278.195 188.125 278.014 189.033 278.014 190.055V190.157ZM306.578 200.649C305.329 200.649 304.25 200.433 303.342 200.001C302.433 199.547 301.684 198.946 301.094 198.196C300.526 197.424 300.094 196.55 299.799 195.573C299.527 194.597 299.368 193.564 299.322 192.474C299.3 192.11 299.288 191.77 299.288 191.452C299.288 191.134 299.3 190.793 299.322 190.43C299.368 189.363 299.527 188.341 299.799 187.364C300.094 186.388 300.526 185.513 301.094 184.741C301.684 183.969 302.433 183.367 303.342 182.936C304.25 182.482 305.329 182.255 306.578 182.255C307.918 182.255 309.03 182.493 309.916 182.97C310.802 183.447 311.528 184.037 312.096 184.741V176.907C312.096 176.68 312.164 176.498 312.3 176.362C312.459 176.203 312.652 176.123 312.879 176.123H314.514C314.741 176.123 314.923 176.203 315.059 176.362C315.218 176.498 315.298 176.68 315.298 176.907V199.525C315.298 199.752 315.218 199.945 315.059 200.104C314.923 200.24 314.741 200.308 314.514 200.308H312.982C312.732 200.308 312.539 200.24 312.403 200.104C312.266 199.945 312.198 199.752 312.198 199.525V198.094C311.63 198.821 310.892 199.434 309.984 199.933C309.076 200.41 307.94 200.649 306.578 200.649ZM307.293 197.89C308.429 197.89 309.337 197.628 310.018 197.106C310.699 196.584 311.21 195.925 311.551 195.13C311.892 194.313 312.073 193.484 312.096 192.644C312.119 192.281 312.13 191.849 312.13 191.35C312.13 190.827 312.119 190.384 312.096 190.021C312.073 189.226 311.88 188.443 311.517 187.671C311.176 186.899 310.654 186.263 309.95 185.763C309.269 185.264 308.383 185.014 307.293 185.014C306.135 185.014 305.215 185.275 304.534 185.797C303.853 186.297 303.365 186.967 303.069 187.807C302.774 188.625 302.604 189.51 302.558 190.464C302.536 191.122 302.536 191.781 302.558 192.44C302.604 193.393 302.774 194.29 303.069 195.13C303.365 195.948 303.853 196.618 304.534 197.14C305.215 197.64 306.135 197.89 307.293 197.89ZM325.576 202.863C325.394 202.863 325.246 202.795 325.133 202.658C325.042 202.522 325.008 202.352 325.031 202.147L325.814 197.276C325.859 197.004 325.95 196.777 326.086 196.595C326.245 196.391 326.472 196.289 326.768 196.289H329.05C329.209 196.289 329.334 196.345 329.425 196.459C329.538 196.572 329.595 196.709 329.595 196.868C329.595 197.049 329.55 197.231 329.459 197.413L327.687 202.079C327.597 202.306 327.472 202.488 327.313 202.624C327.176 202.783 326.972 202.863 326.7 202.863H325.576ZM5.30409 249.308C5.07701 249.308 4.88398 249.24 4.72502 249.104C4.58877 248.945 4.52065 248.752 4.52065 248.525V232.379C4.52065 232.152 4.58877 231.97 4.72502 231.834C4.88398 231.675 5.07701 231.595 5.30409 231.595H6.93911C7.16619 231.595 7.34786 231.675 7.48411 231.834C7.62036 231.97 7.68849 232.152 7.68849 232.379V248.525C7.68849 248.752 7.62036 248.945 7.48411 249.104C7.34786 249.24 7.16619 249.308 6.93911 249.308H5.30409ZM5.03159 228.291C4.8045 228.291 4.61148 228.223 4.45252 228.087C4.31627 227.928 4.24814 227.735 4.24814 227.508V225.668C4.24814 225.441 4.31627 225.26 4.45252 225.123C4.61148 224.965 4.8045 224.885 5.03159 224.885H7.17754C7.40463 224.885 7.5863 224.965 7.72255 225.123C7.88151 225.26 7.96099 225.441 7.96099 225.668V227.508C7.96099 227.735 7.88151 227.928 7.72255 228.087C7.5863 228.223 7.40463 228.291 7.17754 228.291H5.03159ZM24.6922 249.649C23.4432 249.649 22.3646 249.433 21.4562 249.001C20.5479 248.547 19.7985 247.946 19.2081 247.196C18.6404 246.424 18.2089 245.55 17.9137 244.573C17.6412 243.597 17.4823 242.564 17.4368 241.474C17.4141 241.11 17.4028 240.77 17.4028 240.452C17.4028 240.134 17.4141 239.793 17.4368 239.43C17.4823 238.363 17.6412 237.341 17.9137 236.364C18.2089 235.388 18.6404 234.513 19.2081 233.741C19.7985 232.969 20.5479 232.367 21.4562 231.936C22.3646 231.482 23.4432 231.255 24.6922 231.255C26.032 231.255 27.1447 231.493 28.0304 231.97C28.916 232.447 29.6427 233.037 30.2104 233.741V225.907C30.2104 225.68 30.2785 225.498 30.4148 225.362C30.5737 225.203 30.7667 225.123 30.9938 225.123H32.6288C32.8559 225.123 33.0376 225.203 33.1738 225.362C33.3328 225.498 33.4123 225.68 33.4123 225.907V248.525C33.4123 248.752 33.3328 248.945 33.1738 249.104C33.0376 249.24 32.8559 249.308 32.6288 249.308H31.096C30.8462 249.308 30.6532 249.24 30.5169 249.104C30.3807 248.945 30.3126 248.752 30.3126 248.525V247.094C29.7449 247.821 29.0068 248.434 28.0985 248.933C27.1901 249.41 26.0547 249.649 24.6922 249.649ZM25.4075 246.89C26.543 246.89 27.4513 246.628 28.1326 246.106C28.8138 245.584 29.3247 244.925 29.6654 244.13C30.006 243.313 30.1877 242.484 30.2104 241.644C30.2331 241.281 30.2444 240.849 30.2444 240.35C30.2444 239.827 30.2331 239.384 30.2104 239.021C30.1877 238.226 29.9947 237.443 29.6313 236.671C29.2907 235.899 28.7684 235.263 28.0644 234.763C27.3832 234.264 26.4975 234.014 25.4075 234.014C24.2494 234.014 23.3297 234.275 22.6484 234.797C21.9672 235.297 21.479 235.967 21.1837 236.807C20.8885 237.625 20.7182 238.51 20.6728 239.464C20.6501 240.122 20.6501 240.781 20.6728 241.44C20.7182 242.393 20.8885 243.29 21.1837 244.13C21.479 244.948 21.9672 245.618 22.6484 246.14C23.3297 246.64 24.2494 246.89 25.4075 246.89ZM50.9794 249.649C48.6404 249.649 46.7783 248.933 45.3931 247.503C44.0079 246.049 43.2471 244.074 43.1109 241.576C43.0882 241.281 43.0768 240.906 43.0768 240.452C43.0768 239.975 43.0882 239.589 43.1109 239.294C43.2017 237.681 43.5764 236.273 44.2349 235.07C44.8935 233.844 45.7905 232.901 46.9259 232.243C48.084 231.584 49.4352 231.255 50.9794 231.255C52.7052 231.255 54.1472 231.618 55.3053 232.345C56.4862 233.071 57.3832 234.105 57.9963 235.444C58.6094 236.784 58.916 238.351 58.916 240.145V240.724C58.916 240.974 58.8365 241.167 58.6776 241.303C58.5413 241.44 58.3596 241.508 58.1326 241.508H46.3468C46.3468 241.53 46.3468 241.576 46.3468 241.644C46.3468 241.712 46.3468 241.769 46.3468 241.814C46.3922 242.745 46.5966 243.62 46.96 244.437C47.3233 245.232 47.8456 245.879 48.5269 246.379C49.2081 246.878 50.0256 247.128 50.9794 247.128C51.7969 247.128 52.4781 247.003 53.0231 246.753C53.5681 246.504 54.011 246.231 54.3516 245.936C54.6922 245.618 54.9193 245.379 55.0328 245.221C55.2372 244.925 55.3962 244.755 55.5097 244.71C55.6233 244.641 55.8049 244.607 56.0547 244.607H57.6897C57.9168 244.607 58.0985 244.676 58.2347 244.812C58.3937 244.925 58.4618 245.096 58.4391 245.323C58.4164 245.663 58.2347 246.083 57.8941 246.583C57.5535 247.06 57.0653 247.537 56.4294 248.014C55.7936 248.491 55.0215 248.888 54.1131 249.206C53.2048 249.501 52.1602 249.649 50.9794 249.649ZM46.3468 239.157H55.68V239.055C55.68 238.033 55.487 237.125 55.101 236.33C54.7376 235.535 54.204 234.911 53.5 234.457C52.7961 233.98 51.9558 233.741 50.9794 233.741C50.0029 233.741 49.1627 233.98 48.4587 234.457C47.7775 234.911 47.2552 235.535 46.8918 236.33C46.5285 237.125 46.3468 238.033 46.3468 239.055V239.157ZM73.3781 249.649C72.2426 249.649 71.2094 249.422 70.2783 248.967C69.3473 248.513 68.5979 247.9 68.0302 247.128C67.4625 246.356 67.1786 245.482 67.1786 244.505C67.1786 242.938 67.8145 241.689 69.0861 240.758C70.3578 239.827 72.0155 239.214 74.0593 238.919L79.1347 238.204V237.216C79.1347 236.126 78.8167 235.274 78.1809 234.661C77.5678 234.048 76.5572 233.741 75.1493 233.741C74.1274 233.741 73.2986 233.946 72.6627 234.354C72.0496 234.763 71.6181 235.286 71.3683 235.921C71.2321 236.262 70.9937 236.432 70.653 236.432H69.1202C68.8704 236.432 68.6774 236.364 68.5411 236.228C68.4276 236.069 68.3708 235.887 68.3708 235.683C68.3708 235.342 68.4957 234.922 68.7455 234.423C69.018 233.923 69.4268 233.435 69.9718 232.958C70.5168 232.481 71.2094 232.084 72.0496 231.766C72.9125 231.425 73.9571 231.255 75.1834 231.255C76.5459 231.255 77.6927 231.436 78.6237 231.8C79.5548 232.14 80.2814 232.606 80.8037 233.196C81.3487 233.787 81.7348 234.457 81.9619 235.206C82.2117 235.955 82.3366 236.716 82.3366 237.488V248.525C82.3366 248.752 82.2571 248.945 82.0981 249.104C81.9619 249.24 81.7802 249.308 81.5531 249.308H79.9862C79.7364 249.308 79.5434 249.24 79.4072 249.104C79.2709 248.945 79.2028 248.752 79.2028 248.525V247.06C78.9076 247.469 78.5102 247.877 78.0106 248.286C77.511 248.672 76.8865 249.001 76.1371 249.274C75.3878 249.524 74.4681 249.649 73.3781 249.649ZM74.0934 247.094C75.0244 247.094 75.876 246.901 76.6481 246.515C77.4202 246.106 78.0219 245.482 78.4534 244.641C78.9076 243.801 79.1347 242.745 79.1347 241.474V240.52L75.1834 241.099C73.5711 241.326 72.3562 241.712 71.5387 242.257C70.7212 242.779 70.3124 243.449 70.3124 244.267C70.3124 244.903 70.4941 245.436 70.8574 245.868C71.2435 246.276 71.7203 246.583 72.288 246.787C72.8785 246.992 73.4802 247.094 74.0934 247.094ZM98.8147 249.649C97.543 249.649 96.453 249.49 95.5447 249.172C94.6363 248.854 93.8983 248.468 93.3306 248.014C92.7629 247.559 92.3314 247.105 92.0362 246.651C91.7637 246.197 91.6161 245.834 91.5934 245.561C91.5707 245.311 91.6502 245.118 91.8318 244.982C92.0135 244.846 92.1952 244.778 92.3768 244.778H93.8756C94.0119 244.778 94.114 244.8 94.1822 244.846C94.273 244.869 94.3865 244.959 94.5228 245.118C94.818 245.436 95.1473 245.754 95.5106 246.072C95.874 246.39 96.3168 246.651 96.8391 246.856C97.3841 247.06 98.054 247.162 98.8488 247.162C100.007 247.162 100.961 246.946 101.71 246.515C102.459 246.061 102.834 245.402 102.834 244.539C102.834 243.972 102.675 243.517 102.357 243.177C102.062 242.836 101.517 242.53 100.722 242.257C99.9501 241.985 98.8828 241.701 97.5203 241.405C96.1578 241.088 95.0792 240.702 94.2844 240.247C93.4896 239.77 92.9218 239.214 92.5812 238.578C92.2406 237.92 92.0703 237.182 92.0703 236.364C92.0703 235.524 92.3201 234.718 92.8197 233.946C93.3192 233.151 94.0459 232.504 94.9997 232.004C95.9761 231.505 97.191 231.255 98.6444 231.255C99.8252 231.255 100.836 231.402 101.676 231.698C102.516 231.993 103.209 232.367 103.754 232.822C104.299 233.253 104.708 233.685 104.98 234.116C105.253 234.548 105.4 234.911 105.423 235.206C105.446 235.433 105.377 235.626 105.219 235.785C105.06 235.921 104.878 235.989 104.674 235.989H103.243C103.084 235.989 102.948 235.955 102.834 235.887C102.743 235.819 102.652 235.74 102.562 235.649C102.335 235.354 102.062 235.058 101.744 234.763C101.449 234.468 101.051 234.23 100.552 234.048C100.075 233.844 99.4392 233.741 98.6444 233.741C97.509 233.741 96.6574 233.98 96.0897 234.457C95.522 234.934 95.2381 235.535 95.2381 236.262C95.2381 236.693 95.363 237.08 95.6128 237.42C95.8626 237.761 96.3395 238.067 97.0434 238.34C97.7474 238.612 98.792 238.908 100.177 239.225C101.676 239.521 102.857 239.918 103.72 240.418C104.583 240.917 105.196 241.496 105.559 242.155C105.922 242.813 106.104 243.574 106.104 244.437C106.104 245.391 105.82 246.265 105.253 247.06C104.708 247.855 103.89 248.491 102.8 248.967C101.733 249.422 100.404 249.649 98.8147 249.649ZM130.08 249.308C129.853 249.308 129.66 249.24 129.501 249.104C129.365 248.945 129.297 248.752 129.297 248.525V232.379C129.297 232.152 129.365 231.97 129.501 231.834C129.66 231.675 129.853 231.595 130.08 231.595H131.715C131.942 231.595 132.124 231.675 132.26 231.834C132.397 231.97 132.465 232.152 132.465 232.379V248.525C132.465 248.752 132.397 248.945 132.26 249.104C132.124 249.24 131.942 249.308 131.715 249.308H130.08ZM129.808 228.291C129.581 228.291 129.388 228.223 129.229 228.087C129.093 227.928 129.024 227.735 129.024 227.508V225.668C129.024 225.441 129.093 225.26 129.229 225.123C129.388 224.965 129.581 224.885 129.808 224.885H131.954C132.181 224.885 132.363 224.965 132.499 225.123C132.658 225.26 132.737 225.441 132.737 225.668V227.508C132.737 227.735 132.658 227.928 132.499 228.087C132.363 228.223 132.181 228.291 131.954 228.291H129.808ZM150.252 256.802C148.708 256.802 147.436 256.597 146.437 256.189C145.46 255.78 144.688 255.28 144.121 254.69C143.576 254.122 143.178 253.543 142.928 252.953C142.701 252.385 142.576 251.931 142.554 251.59C142.531 251.363 142.599 251.17 142.758 251.011C142.94 250.852 143.133 250.773 143.337 250.773H144.972C145.177 250.773 145.347 250.818 145.483 250.909C145.619 251 145.733 251.193 145.824 251.488C145.96 251.829 146.164 252.203 146.437 252.612C146.709 253.044 147.13 253.407 147.697 253.702C148.265 254.02 149.06 254.179 150.082 254.179C151.149 254.179 152.046 254.031 152.773 253.736C153.499 253.464 154.044 252.964 154.408 252.237C154.794 251.533 154.987 250.557 154.987 249.308V246.992C154.442 247.696 153.726 248.286 152.841 248.763C151.955 249.217 150.842 249.444 149.503 249.444C148.231 249.444 147.141 249.229 146.233 248.797C145.324 248.343 144.575 247.741 143.984 246.992C143.417 246.22 142.985 245.345 142.69 244.369C142.417 243.392 142.259 242.371 142.213 241.303C142.19 240.667 142.19 240.043 142.213 239.43C142.259 238.363 142.417 237.341 142.69 236.364C142.985 235.388 143.417 234.513 143.984 233.741C144.575 232.969 145.324 232.367 146.233 231.936C147.141 231.482 148.231 231.255 149.503 231.255C150.865 231.255 151.989 231.516 152.875 232.038C153.783 232.538 154.521 233.151 155.089 233.878V232.413C155.089 232.186 155.157 231.993 155.293 231.834C155.452 231.675 155.645 231.595 155.872 231.595H157.439C157.666 231.595 157.859 231.675 158.018 231.834C158.177 231.993 158.257 232.186 158.257 232.413V248.933C158.257 250.455 157.996 251.806 157.473 252.987C156.974 254.168 156.133 255.099 154.953 255.78C153.794 256.461 152.228 256.802 150.252 256.802ZM150.184 246.719C151.319 246.719 152.228 246.458 152.909 245.936C153.613 245.414 154.124 244.755 154.442 243.96C154.782 243.165 154.964 242.359 154.987 241.542C155.009 241.224 155.021 240.838 155.021 240.384C155.021 239.907 155.009 239.509 154.987 239.191C154.964 238.374 154.782 237.568 154.442 236.773C154.124 235.978 153.613 235.32 152.909 234.797C152.228 234.275 151.319 234.014 150.184 234.014C149.048 234.014 148.14 234.275 147.459 234.797C146.778 235.297 146.289 235.967 145.994 236.807C145.699 237.625 145.529 238.51 145.483 239.464C145.46 240.054 145.46 240.656 145.483 241.269C145.529 242.223 145.699 243.12 145.994 243.96C146.289 244.778 146.778 245.448 147.459 245.97C148.14 246.469 149.048 246.719 150.184 246.719ZM169.555 249.308C169.328 249.308 169.135 249.24 168.976 249.104C168.839 248.945 168.771 248.752 168.771 248.525V232.379C168.771 232.152 168.839 231.97 168.976 231.834C169.135 231.675 169.328 231.595 169.555 231.595H171.156C171.383 231.595 171.564 231.675 171.701 231.834C171.86 231.97 171.939 232.152 171.939 232.379V233.878C172.529 233.106 173.267 232.481 174.153 232.004C175.061 231.505 176.22 231.255 177.628 231.255C179.104 231.255 180.353 231.584 181.374 232.243C182.419 232.878 183.202 233.775 183.725 234.934C184.247 236.069 184.508 237.397 184.508 238.919V248.525C184.508 248.752 184.44 248.945 184.304 249.104C184.168 249.24 183.986 249.308 183.759 249.308H182.056C181.829 249.308 181.636 249.24 181.477 249.104C181.34 248.945 181.272 248.752 181.272 248.525V239.089C181.272 237.5 180.886 236.262 180.114 235.376C179.342 234.468 178.207 234.014 176.708 234.014C175.3 234.014 174.164 234.468 173.302 235.376C172.461 236.262 172.041 237.5 172.041 239.089V248.525C172.041 248.752 171.962 248.945 171.803 249.104C171.667 249.24 171.485 249.308 171.258 249.308H169.555ZM195.662 249.308C195.435 249.308 195.242 249.24 195.083 249.104C194.947 248.945 194.878 248.752 194.878 248.525V232.379C194.878 232.152 194.947 231.97 195.083 231.834C195.242 231.675 195.435 231.595 195.662 231.595H197.297C197.524 231.595 197.706 231.675 197.842 231.834C197.978 231.97 198.046 232.152 198.046 232.379V248.525C198.046 248.752 197.978 248.945 197.842 249.104C197.706 249.24 197.524 249.308 197.297 249.308H195.662ZM195.389 228.291C195.162 228.291 194.969 228.223 194.81 228.087C194.674 227.928 194.606 227.735 194.606 227.508V225.668C194.606 225.441 194.674 225.26 194.81 225.123C194.969 224.965 195.162 224.885 195.389 224.885H197.535C197.762 224.885 197.944 224.965 198.08 225.123C198.239 225.26 198.319 225.441 198.319 225.668V227.508C198.319 227.735 198.239 227.928 198.08 228.087C197.944 228.223 197.762 228.291 197.535 228.291H195.389ZM215.493 249.308C214.221 249.308 213.188 249.07 212.393 248.593C211.598 248.093 211.019 247.401 210.656 246.515C210.293 245.607 210.111 244.539 210.111 243.313V234.32H207.454C207.227 234.32 207.034 234.252 206.875 234.116C206.739 233.957 206.671 233.764 206.671 233.537V232.379C206.671 232.152 206.739 231.97 206.875 231.834C207.034 231.675 207.227 231.595 207.454 231.595H210.111V225.907C210.111 225.68 210.179 225.498 210.315 225.362C210.474 225.203 210.667 225.123 210.894 225.123H212.495C212.722 225.123 212.904 225.203 213.04 225.362C213.199 225.498 213.279 225.68 213.279 225.907V231.595H217.503C217.73 231.595 217.911 231.675 218.048 231.834C218.206 231.97 218.286 232.152 218.286 232.379V233.537C218.286 233.764 218.206 233.957 218.048 234.116C217.911 234.252 217.73 234.32 217.503 234.32H213.279V243.075C213.279 244.142 213.46 244.982 213.824 245.595C214.187 246.208 214.834 246.515 215.765 246.515H217.843C218.07 246.515 218.252 246.594 218.388 246.753C218.547 246.89 218.627 247.071 218.627 247.298V248.525C218.627 248.752 218.547 248.945 218.388 249.104C218.252 249.24 218.07 249.308 217.843 249.308H215.493ZM234.385 249.649C232.046 249.649 230.184 248.933 228.799 247.503C227.413 246.049 226.653 244.074 226.516 241.576C226.494 241.281 226.482 240.906 226.482 240.452C226.482 239.975 226.494 239.589 226.516 239.294C226.607 237.681 226.982 236.273 227.64 235.07C228.299 233.844 229.196 232.901 230.331 232.243C231.49 231.584 232.841 231.255 234.385 231.255C236.111 231.255 237.553 231.618 238.711 232.345C239.892 233.071 240.789 234.105 241.402 235.444C242.015 236.784 242.322 238.351 242.322 240.145V240.724C242.322 240.974 242.242 241.167 242.083 241.303C241.947 241.44 241.765 241.508 241.538 241.508H229.752C229.752 241.53 229.752 241.576 229.752 241.644C229.752 241.712 229.752 241.769 229.752 241.814C229.798 242.745 230.002 243.62 230.365 244.437C230.729 245.232 231.251 245.879 231.932 246.379C232.614 246.878 233.431 247.128 234.385 247.128C235.202 247.128 235.884 247.003 236.429 246.753C236.974 246.504 237.416 246.231 237.757 245.936C238.098 245.618 238.325 245.379 238.438 245.221C238.643 244.925 238.802 244.755 238.915 244.71C239.029 244.641 239.21 244.607 239.46 244.607H241.095C241.322 244.607 241.504 244.676 241.64 244.812C241.799 244.925 241.867 245.096 241.845 245.323C241.822 245.663 241.64 246.083 241.3 246.583C240.959 247.06 240.471 247.537 239.835 248.014C239.199 248.491 238.427 248.888 237.519 249.206C236.61 249.501 235.566 249.649 234.385 249.649ZM229.752 239.157H239.086V239.055C239.086 238.033 238.893 237.125 238.506 236.33C238.143 235.535 237.61 234.911 236.906 234.457C236.202 233.98 235.361 233.741 234.385 233.741C233.408 233.741 232.568 233.98 231.864 234.457C231.183 234.911 230.661 235.535 230.297 236.33C229.934 237.125 229.752 238.033 229.752 239.055V239.157ZM258.316 249.649C257.067 249.649 255.989 249.433 255.08 249.001C254.172 248.547 253.423 247.946 252.832 247.196C252.265 246.424 251.833 245.55 251.538 244.573C251.265 243.597 251.106 242.564 251.061 241.474C251.038 241.11 251.027 240.77 251.027 240.452C251.027 240.134 251.038 239.793 251.061 239.43C251.106 238.363 251.265 237.341 251.538 236.364C251.833 235.388 252.265 234.513 252.832 233.741C253.423 232.969 254.172 232.367 255.08 231.936C255.989 231.482 257.067 231.255 258.316 231.255C259.656 231.255 260.769 231.493 261.655 231.97C262.54 232.447 263.267 233.037 263.835 233.741V225.907C263.835 225.68 263.903 225.498 264.039 225.362C264.198 225.203 264.391 225.123 264.618 225.123H266.253C266.48 225.123 266.662 225.203 266.798 225.362C266.957 225.498 267.036 225.68 267.036 225.907V248.525C267.036 248.752 266.957 248.945 266.798 249.104C266.662 249.24 266.48 249.308 266.253 249.308H264.72C264.47 249.308 264.277 249.24 264.141 249.104C264.005 248.945 263.937 248.752 263.937 248.525V247.094C263.369 247.821 262.631 248.434 261.723 248.933C260.814 249.41 259.679 249.649 258.316 249.649ZM259.032 246.89C260.167 246.89 261.075 246.628 261.757 246.106C262.438 245.584 262.949 244.925 263.29 244.13C263.63 243.313 263.812 242.484 263.835 241.644C263.857 241.281 263.869 240.849 263.869 240.35C263.869 239.827 263.857 239.384 263.835 239.021C263.812 238.226 263.619 237.443 263.256 236.671C262.915 235.899 262.393 235.263 261.689 234.763C261.007 234.264 260.122 234.014 259.032 234.014C257.874 234.014 256.954 234.275 256.273 234.797C255.591 235.297 255.103 235.967 254.808 236.807C254.513 237.625 254.342 238.51 254.297 239.464C254.274 240.122 254.274 240.781 254.297 241.44C254.342 242.393 254.513 243.29 254.808 244.13C255.103 244.948 255.591 245.618 256.273 246.14C256.954 246.64 257.874 246.89 259.032 246.89Z" fill="url(#paint0_linear_10_336)"/>
<defs>
<linearGradient id="paint0_linear_10_336" x1="-42.1004" y1="147.775" x2="544.759" y2="233.112" gradientUnits="userSpaceOnUse">
<stop offset="0.0155432" stop-color="#369FFF"/>
<stop offset="0.730508" stop-color="#12DC9F"/>
</linearGradient>
</defs>
</svg>
