<svg width="408" height="202" viewBox="0 0 408 202" fill="none" xmlns="http://www.w3.org/2000/svg">
<rect x="125.073" y="137.285" width="278.267" height="16" fill="#12DC9F"/>
<path d="M130.655 108.769C129.935 108.769 129.322 108.517 128.818 108.013C128.313 107.508 128.061 106.895 128.061 106.175V55.1498C128.061 54.4291 128.313 53.8165 128.818 53.312C129.322 52.8076 129.935 52.5553 130.655 52.5553H139.087C139.808 52.5553 140.421 52.8076 140.925 53.312C141.43 53.8165 141.682 54.4291 141.682 55.1498V58.8253C143.195 56.8074 145.213 55.1138 147.736 53.7445C150.33 52.3031 153.393 51.5463 156.925 51.4743C165.14 51.3301 170.87 54.5372 174.113 61.0955C175.771 58.2127 178.149 55.9065 181.248 54.1769C184.419 52.3751 187.914 51.4743 191.734 51.4743C195.482 51.4743 198.869 52.3391 201.896 54.0688C204.995 55.7984 207.409 58.429 209.139 61.9603C210.94 65.4197 211.841 69.8159 211.841 75.149V106.175C211.841 106.895 211.589 107.508 211.085 108.013C210.58 108.517 209.968 108.769 209.247 108.769H200.382C199.662 108.769 199.049 108.517 198.545 108.013C198.04 107.508 197.788 106.895 197.788 106.175V76.0138C197.788 72.7707 197.319 70.2123 196.382 68.3385C195.446 66.3926 194.184 65.0233 192.599 64.2305C191.013 63.4378 189.248 63.0414 187.302 63.0414C185.716 63.0414 184.131 63.4378 182.545 64.2305C180.96 65.0233 179.662 66.3926 178.653 68.3385C177.644 70.2123 177.14 72.7707 177.14 76.0138V106.175C177.14 106.895 176.888 107.508 176.383 108.013C175.879 108.517 175.266 108.769 174.546 108.769H165.681C164.888 108.769 164.24 108.517 163.735 108.013C163.303 107.508 163.087 106.895 163.087 106.175V76.0138C163.087 72.7707 162.582 70.2123 161.573 68.3385C160.564 66.3926 159.267 65.0233 157.681 64.2305C156.096 63.4378 154.402 63.0414 152.6 63.0414C150.943 63.0414 149.321 63.4738 147.736 64.3386C146.15 65.1314 144.853 66.4647 143.844 68.3385C142.835 70.2123 142.331 72.7707 142.331 76.0138V106.175C142.331 106.895 142.078 107.508 141.574 108.013C141.069 108.517 140.457 108.769 139.736 108.769H130.655ZM254.147 109.85C246.147 109.85 239.805 107.544 235.121 102.932C230.436 98.3193 227.914 91.761 227.554 83.2568C227.481 82.5361 227.445 81.6352 227.445 80.5542C227.445 79.4011 227.481 78.5002 227.554 77.8516C227.842 72.4464 229.067 67.7619 231.229 63.7981C233.463 59.8343 236.526 56.8074 240.418 54.7174C244.31 52.5553 248.886 51.4743 254.147 51.4743C259.985 51.4743 264.885 52.6995 268.849 55.1498C272.813 57.5281 275.804 60.8793 277.822 65.2035C279.84 69.4555 280.849 74.3923 280.849 80.0137V82.2839C280.849 83.0046 280.596 83.6171 280.092 84.1216C279.587 84.6261 278.939 84.8783 278.146 84.8783H242.256C242.256 84.8783 242.256 84.9865 242.256 85.2027C242.256 85.4189 242.256 85.599 242.256 85.7432C242.328 88.2656 242.796 90.6079 243.661 92.7699C244.598 94.8599 245.931 96.5536 247.661 97.8508C249.463 99.1481 251.589 99.7967 254.039 99.7967C256.057 99.7967 257.751 99.5084 259.12 98.9318C260.489 98.2832 261.606 97.5625 262.471 96.7698C263.336 95.977 263.948 95.3284 264.309 94.8239C264.957 93.9591 265.462 93.4546 265.822 93.3104C266.255 93.0942 266.867 92.9861 267.66 92.9861H276.957C277.678 92.9861 278.254 93.2023 278.687 93.6348C279.191 94.0672 279.407 94.6077 279.335 95.2563C279.263 96.4094 278.651 97.8148 277.497 99.4724C276.416 101.13 274.831 102.752 272.741 104.337C270.651 105.923 268.02 107.256 264.849 108.337C261.75 109.346 258.183 109.85 254.147 109.85ZM242.256 75.7976H266.147V75.4733C266.147 72.6626 265.678 70.2123 264.741 68.1223C263.804 66.0323 262.435 64.3747 260.633 63.1495C258.832 61.9243 256.669 61.3117 254.147 61.3117C251.625 61.3117 249.463 61.9243 247.661 63.1495C245.859 64.3747 244.49 66.0323 243.553 68.1223C242.688 70.2123 242.256 72.6626 242.256 75.4733V75.7976ZM320.863 109.85C312.863 109.85 306.521 107.544 301.837 102.932C297.152 98.3193 294.63 91.761 294.27 83.2568C294.198 82.5361 294.161 81.6352 294.161 80.5542C294.161 79.4011 294.198 78.5002 294.27 77.8516C294.558 72.4464 295.783 67.7619 297.945 63.7981C300.179 59.8343 303.242 56.8074 307.134 54.7174C311.026 52.5553 315.602 51.4743 320.863 51.4743C326.701 51.4743 331.601 52.6995 335.565 55.1498C339.529 57.5281 342.52 60.8793 344.538 65.2035C346.556 69.4555 347.565 74.3923 347.565 80.0137V82.2839C347.565 83.0046 347.313 83.6171 346.808 84.1216C346.304 84.6261 345.655 84.8783 344.862 84.8783H308.972C308.972 84.8783 308.972 84.9865 308.972 85.2027C308.972 85.4189 308.972 85.599 308.972 85.7432C309.044 88.2656 309.512 90.6079 310.377 92.7699C311.314 94.8599 312.647 96.5536 314.377 97.8508C316.179 99.1481 318.305 99.7967 320.755 99.7967C322.773 99.7967 324.467 99.5084 325.836 98.9318C327.205 98.2832 328.322 97.5625 329.187 96.7698C330.052 95.977 330.665 95.3284 331.025 94.8239C331.674 93.9591 332.178 93.4546 332.538 93.3104C332.971 93.0942 333.583 92.9861 334.376 92.9861H343.673C344.394 92.9861 344.97 93.2023 345.403 93.6348C345.907 94.0672 346.123 94.6077 346.051 95.2563C345.979 96.4094 345.367 97.8148 344.214 99.4724C343.133 101.13 341.547 102.752 339.457 104.337C337.367 105.923 334.736 107.256 331.565 108.337C328.466 109.346 324.899 109.85 320.863 109.85ZM308.972 75.7976H332.863V75.4733C332.863 72.6626 332.394 70.2123 331.457 68.1223C330.52 66.0323 329.151 64.3747 327.349 63.1495C325.548 61.9243 323.386 61.3117 320.863 61.3117C318.341 61.3117 316.179 61.9243 314.377 63.1495C312.575 64.3747 311.206 66.0323 310.269 68.1223C309.404 70.2123 308.972 72.6626 308.972 75.4733V75.7976ZM388.557 108.769C384.233 108.769 380.594 108.013 377.639 106.499C374.684 104.986 372.486 102.752 371.044 99.7967C369.603 96.7698 368.882 93.0222 368.882 88.5539V64.0143H360.342C359.621 64.0143 359.009 63.7621 358.504 63.2576C358 62.7531 357.748 62.1405 357.748 61.4198V55.1498C357.748 54.4291 358 53.8165 358.504 53.312C359.009 52.8076 359.621 52.5553 360.342 52.5553H368.882V34.6101C368.882 33.8894 369.099 33.2768 369.531 32.7723C370.035 32.2678 370.684 32.0156 371.477 32.0156H380.233C380.954 32.0156 381.567 32.2678 382.071 32.7723C382.575 33.2768 382.828 33.8894 382.828 34.6101V52.5553H396.341C397.061 52.5553 397.674 52.8076 398.178 53.312C398.683 53.8165 398.935 54.4291 398.935 55.1498V61.4198C398.935 62.1405 398.683 62.7531 398.178 63.2576C397.674 63.7621 397.061 64.0143 396.341 64.0143H382.828V87.4728C382.828 90.4277 383.332 92.7339 384.341 94.3915C385.422 96.0491 387.26 96.8779 389.854 96.8779H397.314C398.034 96.8779 398.647 97.1301 399.151 97.6346C399.656 98.1391 399.908 98.7517 399.908 99.4724V106.175C399.908 106.895 399.656 107.508 399.151 108.013C398.647 108.517 398.034 108.769 397.314 108.769H388.557Z" fill="white"/>
<path d="M82.257 6.14746H50.1542V121.182C50.1542 138.912 64.527 153.285 82.2568 153.285H106.334V121.182L82.257 121.182H98.2923C89.464 121.174 82.3044 114.038 82.257 105.219V80.6793H106.334V48.5765H82.257V6.14746Z" fill="#369FFF"/>
<rect y="48.5767" width="32.1028" height="104.709" fill="#369FFF"/>
<path fill-rule="evenodd" clip-rule="evenodd" d="M27.4014 10.8488L16.0514 6.14746L4.70134 10.8488L0 22.1988L4.70134 33.5489L16.0514 38.2502L27.4014 33.5489L32.1028 22.1988L27.4014 10.8488ZM11.8543 15.9975C11.4906 15.7685 11.0308 16.0905 11.1216 16.5106L13.7155 28.5117C13.8038 28.9205 14.3335 29.0334 14.5809 28.6962L17.3283 24.9506C17.3909 24.8653 17.4797 24.8027 17.5812 24.7726L22.1308 23.4193C22.5305 23.3004 22.6038 22.7659 22.2509 22.5437L11.8543 15.9975Z" fill="#12DC9F"/>
<path d="M9.821 192.809C8.82867 192.809 7.99302 192.635 7.31405 192.287C6.65249 191.921 6.15632 191.399 5.82554 190.72C5.49477 190.024 5.32938 189.179 5.32938 188.187V181.528H3.57973C3.28377 181.528 3.05745 181.458 2.90076 181.319C2.74408 181.162 2.66574 180.953 2.66574 180.692C2.66574 180.431 2.74408 180.231 2.90076 180.092C3.05745 179.952 3.28377 179.883 3.57973 179.883H5.32938V176.88C5.32938 176.531 5.42513 176.27 5.61663 176.096C5.80814 175.905 6.06928 175.809 6.40005 175.809C6.73083 175.809 6.98327 175.905 7.15736 176.096C7.34887 176.27 7.44462 176.531 7.44462 176.88V179.883H10.735C11.031 179.883 11.2573 179.952 11.414 180.092C11.5706 180.231 11.649 180.431 11.649 180.692C11.649 180.953 11.5706 181.162 11.414 181.319C11.2573 181.458 11.031 181.528 10.735 181.528H7.44462V187.978C7.44462 188.97 7.65353 189.728 8.07136 190.25C8.48918 190.755 9.16815 191.007 10.1083 191.007C10.439 191.007 10.7176 190.973 10.9439 190.903C11.1876 190.833 11.3878 190.798 11.5445 190.798C11.7012 190.781 11.8318 190.833 11.9362 190.955C12.0407 191.077 12.0929 191.286 12.0929 191.582C12.0929 191.791 12.0494 191.982 11.9624 192.156C11.8927 192.33 11.7622 192.452 11.5706 192.522C11.3617 192.592 11.0832 192.653 10.735 192.705C10.4042 192.774 10.0996 192.809 9.821 192.809ZM21.5391 192.809C20.1986 192.809 19.0408 192.548 18.0659 192.026C17.1084 191.486 16.3598 190.729 15.8201 189.754C15.2978 188.779 15.0367 187.613 15.0367 186.255C15.0367 184.931 15.2978 183.782 15.8201 182.808C16.3424 181.815 17.0562 181.04 17.9615 180.483C18.8842 179.926 19.9461 179.648 21.1474 179.648C22.0004 179.648 22.7665 179.796 23.4454 180.092C24.1244 180.37 24.6989 180.779 25.169 181.319C25.6564 181.859 26.022 182.512 26.2658 183.278C26.5269 184.044 26.6575 184.905 26.6575 185.863C26.6575 186.141 26.5791 186.35 26.4224 186.49C26.2658 186.611 26.0394 186.672 25.7435 186.672H16.6558V185.288H25.2473L24.8295 185.628C24.8295 184.688 24.6902 183.896 24.4116 183.251C24.1331 182.59 23.724 182.085 23.1843 181.737C22.662 181.389 22.0004 181.215 21.1996 181.215C20.3117 181.215 19.5544 181.423 18.9277 181.841C18.3184 182.242 17.857 182.808 17.5436 183.539C17.2303 184.253 17.0736 185.088 17.0736 186.046V186.202C17.0736 187.804 17.4566 189.023 18.2226 189.858C19.006 190.694 20.1115 191.112 21.5391 191.112C22.131 191.112 22.7142 191.033 23.2887 190.877C23.8807 190.72 24.4552 190.459 25.0123 190.093C25.256 189.937 25.4736 189.867 25.6651 189.884C25.874 189.884 26.0394 189.945 26.1613 190.067C26.2832 190.172 26.3615 190.311 26.3963 190.485C26.4486 190.642 26.4311 190.816 26.3441 191.007C26.2745 191.199 26.1265 191.364 25.9002 191.504C25.3256 191.921 24.6467 192.243 23.8633 192.47C23.0798 192.696 22.3051 192.809 21.5391 192.809ZM37.1874 192.809C35.9165 192.809 34.8197 192.531 33.897 191.974C32.9743 191.416 32.2605 190.642 31.7556 189.649C31.2682 188.64 31.0244 187.473 31.0244 186.15C31.0244 185.14 31.1637 184.235 31.4423 183.434C31.7208 182.633 32.1299 181.954 32.6696 181.397C33.2093 180.823 33.8535 180.388 34.6021 180.092C35.3681 179.796 36.2298 179.648 37.1874 179.648C37.8141 179.648 38.467 179.743 39.1459 179.935C39.8249 180.126 40.4429 180.457 41 180.927C41.1741 181.049 41.2873 181.197 41.3395 181.371C41.3917 181.545 41.3917 181.719 41.3395 181.894C41.2873 182.05 41.2002 182.19 41.0784 182.311C40.9565 182.416 40.7998 182.477 40.6083 182.494C40.4342 182.512 40.2514 182.451 40.0599 182.311C39.6073 181.963 39.1459 181.719 38.6759 181.58C38.2058 181.441 37.7532 181.371 37.3179 181.371C36.639 181.371 36.047 181.484 35.5422 181.711C35.0373 181.92 34.6108 182.224 34.2626 182.625C33.9144 183.025 33.6446 183.521 33.453 184.113C33.279 184.705 33.1919 185.393 33.1919 186.176C33.1919 187.691 33.5488 188.892 34.2626 189.78C34.9764 190.65 35.9948 191.086 37.3179 191.086C37.7532 191.086 38.1971 191.016 38.6498 190.877C39.1198 190.738 39.5899 190.494 40.0599 190.146C40.2514 190.006 40.4342 189.945 40.6083 189.963C40.7824 189.98 40.9304 190.05 41.0523 190.172C41.1741 190.276 41.2525 190.415 41.2873 190.59C41.3395 190.764 41.3395 190.938 41.2873 191.112C41.2351 191.269 41.1219 191.408 40.9478 191.53C40.3907 191.982 39.7814 192.313 39.1198 192.522C38.4583 192.713 37.8141 192.809 37.1874 192.809ZM47.0295 192.757C46.6813 192.757 46.4202 192.661 46.2461 192.47C46.072 192.278 45.985 192.008 45.985 191.66V175.052C45.985 174.703 46.072 174.442 46.2461 174.268C46.4202 174.077 46.6813 173.981 47.0295 173.981C47.3603 173.981 47.6214 174.077 47.813 174.268C48.0045 174.442 48.1002 174.703 48.1002 175.052V182.703H47.7607C48.1263 181.693 48.7182 180.936 49.5365 180.431C50.3721 179.909 51.3297 179.648 52.409 179.648C53.4188 179.648 54.2544 179.831 54.916 180.196C55.595 180.562 56.0998 181.119 56.4306 181.867C56.7614 182.599 56.9268 183.53 56.9268 184.662V191.66C56.9268 192.008 56.831 192.278 56.6395 192.47C56.4654 192.661 56.213 192.757 55.8822 192.757C55.534 192.757 55.2642 192.661 55.0727 192.47C54.8986 192.278 54.8115 192.008 54.8115 191.66V184.792C54.8115 183.608 54.5765 182.747 54.1065 182.207C53.6538 181.65 52.9226 181.371 51.9129 181.371C50.7464 181.371 49.815 181.737 49.1187 182.468C48.4397 183.182 48.1002 184.139 48.1002 185.341V191.66C48.1002 192.391 47.7433 192.757 47.0295 192.757ZM76.2296 192.809C75.2024 192.809 74.3494 192.626 73.6704 192.261C73.0088 191.878 72.504 191.312 72.1558 190.563C71.825 189.815 71.6596 188.883 71.6596 187.769V180.771C71.6596 180.405 71.7467 180.135 71.9208 179.961C72.1123 179.787 72.3734 179.7 72.7042 179.7C73.0524 179.7 73.3135 179.787 73.4876 179.961C73.6791 180.135 73.7749 180.405 73.7749 180.771V187.743C73.7749 188.857 74.0012 189.693 74.4538 190.25C74.9239 190.79 75.6551 191.06 76.6474 191.06C77.7268 191.06 78.606 190.694 79.2849 189.963C79.9639 189.232 80.3034 188.274 80.3034 187.09V180.771C80.3034 180.405 80.3904 180.135 80.5645 179.961C80.756 179.787 81.0259 179.7 81.3741 179.7C81.7048 179.7 81.9573 179.787 82.1314 179.961C82.3229 180.135 82.4186 180.405 82.4186 180.771V191.66C82.4186 192.391 82.0791 192.757 81.4002 192.757C81.0694 192.757 80.8083 192.661 80.6168 192.47C80.4427 192.278 80.3556 192.008 80.3556 191.66V189.284L80.6951 189.649C80.3469 190.677 79.7724 191.46 78.9716 192C78.1881 192.539 77.2742 192.809 76.2296 192.809ZM89.5098 192.757C89.1617 192.757 88.9005 192.661 88.7264 192.47C88.5523 192.278 88.4653 192.008 88.4653 191.66V180.771C88.4653 180.422 88.5523 180.161 88.7264 179.987C88.9005 179.796 89.1529 179.7 89.4837 179.7C89.8145 179.7 90.0669 179.796 90.241 179.987C90.4325 180.161 90.5283 180.422 90.5283 180.771V183.016L90.241 182.703C90.6066 181.693 91.1986 180.936 92.0168 180.431C92.8524 179.909 93.81 179.648 94.8893 179.648C95.8991 179.648 96.7347 179.831 97.3963 180.196C98.0753 180.562 98.5801 181.119 98.9109 181.867C99.2417 182.599 99.4071 183.53 99.4071 184.662V191.66C99.4071 192.008 99.3113 192.278 99.1198 192.47C98.9457 192.661 98.6933 192.757 98.3625 192.757C98.0143 192.757 97.7445 192.661 97.553 192.47C97.3789 192.278 97.2918 192.008 97.2918 191.66V184.792C97.2918 183.608 97.0568 182.747 96.5868 182.207C96.1341 181.65 95.4029 181.371 94.3932 181.371C93.2268 181.371 92.2953 181.737 91.599 182.468C90.92 183.182 90.5805 184.139 90.5805 185.341V191.66C90.5805 192.391 90.2236 192.757 89.5098 192.757ZM109.261 192.809C108.008 192.809 107.05 192.426 106.389 191.66C105.727 190.894 105.397 189.797 105.397 188.37V175.052C105.397 174.703 105.484 174.442 105.658 174.268C105.832 174.077 106.093 173.981 106.441 173.981C106.772 173.981 107.033 174.077 107.225 174.268C107.416 174.442 107.512 174.703 107.512 175.052V188.213C107.512 189.153 107.695 189.858 108.06 190.328C108.443 190.781 109 191.007 109.732 191.007C109.888 191.007 110.028 190.999 110.149 190.981C110.271 190.964 110.393 190.955 110.515 190.955C110.706 190.938 110.837 190.981 110.907 191.086C110.994 191.19 111.037 191.399 111.037 191.712C111.037 192.026 110.968 192.261 110.828 192.418C110.689 192.574 110.463 192.679 110.149 192.731C110.01 192.748 109.862 192.766 109.705 192.783C109.549 192.801 109.401 192.809 109.261 192.809ZM120.804 192.809C119.464 192.809 118.306 192.548 117.331 192.026C116.374 191.486 115.625 190.729 115.085 189.754C114.563 188.779 114.302 187.613 114.302 186.255C114.302 184.931 114.563 183.782 115.085 182.808C115.608 181.815 116.321 181.04 117.227 180.483C118.149 179.926 119.211 179.648 120.413 179.648C121.266 179.648 122.032 179.796 122.711 180.092C123.39 180.37 123.964 180.779 124.434 181.319C124.922 181.859 125.287 182.512 125.531 183.278C125.792 184.044 125.923 184.905 125.923 185.863C125.923 186.141 125.844 186.35 125.688 186.49C125.531 186.611 125.305 186.672 125.009 186.672H115.921V185.288H124.513L124.095 185.628C124.095 184.688 123.955 183.896 123.677 183.251C123.398 182.59 122.989 182.085 122.45 181.737C121.927 181.389 121.266 181.215 120.465 181.215C119.577 181.215 118.82 181.423 118.193 181.841C117.584 182.242 117.122 182.808 116.809 183.539C116.496 184.253 116.339 185.088 116.339 186.046V186.202C116.339 187.804 116.722 189.023 117.488 189.858C118.271 190.694 119.377 191.112 120.804 191.112C121.396 191.112 121.979 191.033 122.554 190.877C123.146 190.72 123.72 190.459 124.278 190.093C124.521 189.937 124.739 189.867 124.93 189.884C125.139 189.884 125.305 189.945 125.427 190.067C125.548 190.172 125.627 190.311 125.662 190.485C125.714 190.642 125.696 190.816 125.609 191.007C125.54 191.199 125.392 191.364 125.165 191.504C124.591 191.921 123.912 192.243 123.128 192.47C122.345 192.696 121.57 192.809 120.804 192.809ZM135.069 192.809C134.198 192.809 133.415 192.644 132.718 192.313C132.039 191.965 131.5 191.495 131.099 190.903C130.699 190.311 130.499 189.649 130.499 188.918C130.499 187.978 130.734 187.238 131.204 186.699C131.691 186.159 132.483 185.776 133.58 185.55C134.694 185.323 136.209 185.21 138.124 185.21H139.299V186.594H138.15C136.74 186.594 135.626 186.664 134.807 186.803C134.007 186.925 133.441 187.142 133.11 187.456C132.797 187.769 132.64 188.213 132.64 188.788C132.64 189.501 132.884 190.085 133.371 190.537C133.876 190.99 134.555 191.216 135.408 191.216C136.104 191.216 136.714 191.051 137.236 190.72C137.776 190.389 138.194 189.937 138.49 189.362C138.803 188.788 138.96 188.126 138.96 187.378V184.401C138.96 183.321 138.742 182.546 138.307 182.076C137.871 181.589 137.158 181.345 136.165 181.345C135.556 181.345 134.947 181.423 134.337 181.58C133.728 181.737 133.084 181.989 132.405 182.337C132.161 182.459 131.952 182.503 131.778 182.468C131.604 182.416 131.465 182.32 131.36 182.181C131.256 182.042 131.195 181.885 131.178 181.711C131.16 181.519 131.195 181.336 131.282 181.162C131.386 180.988 131.543 180.849 131.752 180.745C132.518 180.362 133.275 180.083 134.024 179.909C134.773 179.735 135.486 179.648 136.165 179.648C137.262 179.648 138.167 179.831 138.881 180.196C139.595 180.544 140.126 181.084 140.474 181.815C140.822 182.529 140.996 183.452 140.996 184.583V191.66C140.996 192.008 140.909 192.278 140.735 192.47C140.579 192.661 140.344 192.757 140.03 192.757C139.699 192.757 139.447 192.661 139.273 192.47C139.099 192.278 139.012 192.008 139.012 191.66V189.623H139.247C139.108 190.285 138.838 190.851 138.437 191.321C138.054 191.791 137.576 192.156 137.001 192.418C136.426 192.679 135.782 192.809 135.069 192.809ZM151.293 192.809C150.509 192.809 149.717 192.713 148.916 192.522C148.133 192.33 147.402 192 146.723 191.53C146.549 191.408 146.427 191.269 146.357 191.112C146.287 190.938 146.261 190.772 146.279 190.616C146.313 190.442 146.383 190.294 146.488 190.172C146.609 190.05 146.749 189.98 146.905 189.963C147.079 189.928 147.271 189.963 147.48 190.067C148.159 190.485 148.812 190.781 149.438 190.955C150.083 191.112 150.718 191.19 151.345 191.19C152.337 191.19 153.086 191.007 153.591 190.642C154.095 190.276 154.348 189.78 154.348 189.153C154.348 188.666 154.183 188.283 153.852 188.004C153.521 187.708 152.999 187.482 152.285 187.325L149.909 186.803C148.812 186.577 147.993 186.185 147.454 185.628C146.932 185.071 146.67 184.348 146.67 183.46C146.67 182.677 146.871 182.007 147.271 181.45C147.689 180.875 148.272 180.431 149.021 180.118C149.769 179.804 150.64 179.648 151.632 179.648C152.398 179.648 153.121 179.752 153.8 179.961C154.496 180.153 155.123 180.466 155.68 180.901C155.854 181.023 155.967 181.171 156.019 181.345C156.089 181.502 156.098 181.667 156.045 181.841C156.011 181.998 155.932 182.137 155.81 182.259C155.688 182.364 155.54 182.425 155.366 182.442C155.192 182.459 155.009 182.407 154.818 182.285C154.296 181.937 153.765 181.685 153.225 181.528C152.685 181.354 152.154 181.267 151.632 181.267C150.657 181.267 149.917 181.458 149.412 181.841C148.907 182.224 148.655 182.729 148.655 183.356C148.655 183.843 148.812 184.244 149.125 184.557C149.438 184.871 149.926 185.097 150.587 185.236L152.964 185.732C154.095 185.976 154.94 186.368 155.497 186.907C156.071 187.43 156.359 188.144 156.359 189.049C156.359 190.198 155.897 191.112 154.975 191.791C154.052 192.47 152.825 192.809 151.293 192.809ZM162.716 192.757C162.368 192.757 162.107 192.661 161.933 192.47C161.759 192.278 161.671 192.008 161.671 191.66V175.052C161.671 174.703 161.759 174.442 161.933 174.268C162.107 174.077 162.368 173.981 162.716 173.981C163.047 173.981 163.308 174.077 163.499 174.268C163.691 174.442 163.787 174.703 163.787 175.052V182.703H163.447C163.813 181.693 164.405 180.936 165.223 180.431C166.059 179.909 167.016 179.648 168.096 179.648C169.105 179.648 169.941 179.831 170.603 180.196C171.281 180.562 171.786 181.119 172.117 181.867C172.448 182.599 172.613 183.53 172.613 184.662V191.66C172.613 192.008 172.518 192.278 172.326 192.47C172.152 192.661 171.9 192.757 171.569 192.757C171.221 192.757 170.951 192.661 170.759 192.47C170.585 192.278 170.498 192.008 170.498 191.66V184.792C170.498 183.608 170.263 182.747 169.793 182.207C169.34 181.65 168.609 181.371 167.599 181.371C166.433 181.371 165.502 181.737 164.805 182.468C164.126 183.182 163.787 184.139 163.787 185.341V191.66C163.787 192.391 163.43 192.757 162.716 192.757ZM184.322 192.809C182.981 192.809 181.824 192.548 180.849 192.026C179.891 191.486 179.143 190.729 178.603 189.754C178.081 188.779 177.819 187.613 177.819 186.255C177.819 184.931 178.081 183.782 178.603 182.808C179.125 181.815 179.839 181.04 180.744 180.483C181.667 179.926 182.729 179.648 183.93 179.648C184.783 179.648 185.549 179.796 186.228 180.092C186.907 180.37 187.482 180.779 187.952 181.319C188.439 181.859 188.805 182.512 189.048 183.278C189.31 184.044 189.44 184.905 189.44 185.863C189.44 186.141 189.362 186.35 189.205 186.49C189.048 186.611 188.822 186.672 188.526 186.672H179.438V185.288H188.03L187.612 185.628C187.612 184.688 187.473 183.896 187.194 183.251C186.916 182.59 186.507 182.085 185.967 181.737C185.445 181.389 184.783 181.215 183.982 181.215C183.094 181.215 182.337 181.423 181.71 181.841C181.101 182.242 180.64 182.808 180.326 183.539C180.013 184.253 179.856 185.088 179.856 186.046V186.202C179.856 187.804 180.239 189.023 181.005 189.858C181.789 190.694 182.894 191.112 184.322 191.112C184.914 191.112 185.497 191.033 186.071 190.877C186.663 190.72 187.238 190.459 187.795 190.093C188.039 189.937 188.256 189.867 188.448 189.884C188.657 189.884 188.822 189.945 188.944 190.067C189.066 190.172 189.144 190.311 189.179 190.485C189.231 190.642 189.214 190.816 189.127 191.007C189.057 191.199 188.909 191.364 188.683 191.504C188.108 191.921 187.429 192.243 186.646 192.47C185.863 192.696 185.088 192.809 184.322 192.809ZM199.422 192.809C198.29 192.809 197.298 192.539 196.445 192C195.609 191.46 194.956 190.703 194.486 189.728C194.033 188.735 193.807 187.569 193.807 186.228C193.807 184.871 194.033 183.704 194.486 182.729C194.956 181.737 195.609 180.98 196.445 180.457C197.298 179.918 198.29 179.648 199.422 179.648C200.571 179.648 201.554 179.935 202.373 180.51C203.191 181.084 203.739 181.859 204.018 182.834H203.731V175.052C203.731 174.703 203.818 174.442 203.992 174.268C204.183 174.077 204.453 173.981 204.801 173.981C205.132 173.981 205.384 174.077 205.558 174.268C205.75 174.442 205.846 174.703 205.846 175.052V191.66C205.846 192.008 205.759 192.278 205.585 192.47C205.411 192.661 205.149 192.757 204.801 192.757C204.47 192.757 204.209 192.661 204.018 192.47C203.844 192.278 203.757 192.008 203.757 191.66V189.179L204.044 189.545C203.765 190.537 203.208 191.329 202.373 191.921C201.554 192.513 200.571 192.809 199.422 192.809ZM199.866 191.112C200.649 191.112 201.337 190.92 201.929 190.537C202.521 190.154 202.973 189.597 203.287 188.866C203.617 188.135 203.783 187.256 203.783 186.228C203.783 184.644 203.426 183.434 202.712 182.599C202.016 181.763 201.067 181.345 199.866 181.345C199.065 181.345 198.368 181.537 197.776 181.92C197.202 182.285 196.749 182.834 196.419 183.565C196.105 184.279 195.949 185.167 195.949 186.228C195.949 187.795 196.305 189.005 197.019 189.858C197.733 190.694 198.682 191.112 199.866 191.112ZM213.158 195.055C212.984 195.281 212.801 195.412 212.61 195.447C212.418 195.482 212.253 195.447 212.113 195.342C211.974 195.238 211.896 195.09 211.878 194.898C211.878 194.707 211.965 194.498 212.139 194.272C212.418 193.906 212.61 193.532 212.714 193.149C212.818 192.783 212.871 192.444 212.871 192.13L212.975 192.679C212.522 192.679 212.157 192.548 211.878 192.287C211.617 192.008 211.487 191.66 211.487 191.242C211.487 190.825 211.608 190.485 211.852 190.224C212.113 189.945 212.453 189.806 212.871 189.806C213.323 189.806 213.68 189.963 213.941 190.276C214.202 190.572 214.333 191.007 214.333 191.582C214.333 191.947 214.298 192.322 214.229 192.705C214.159 193.105 214.037 193.506 213.863 193.906C213.689 194.306 213.454 194.689 213.158 195.055ZM229.802 192.705C229.454 192.705 229.192 192.609 229.018 192.418C228.844 192.209 228.757 191.921 228.757 191.556V180.875C228.757 180.51 228.844 180.231 229.018 180.039C229.192 179.848 229.454 179.752 229.802 179.752C230.133 179.752 230.394 179.848 230.585 180.039C230.777 180.231 230.872 180.51 230.872 180.875V191.556C230.872 191.921 230.777 192.209 230.585 192.418C230.411 192.609 230.15 192.705 229.802 192.705ZM229.802 176.827C229.367 176.827 229.027 176.714 228.783 176.488C228.54 176.244 228.418 175.922 228.418 175.522C228.418 175.104 228.54 174.791 228.783 174.582C229.027 174.355 229.367 174.242 229.802 174.242C230.254 174.242 230.594 174.355 230.82 174.582C231.064 174.791 231.186 175.104 231.186 175.522C231.186 175.922 231.064 176.244 230.82 176.488C230.594 176.714 230.254 176.827 229.802 176.827ZM241.747 192.809C240.615 192.809 239.623 192.539 238.77 192C237.934 191.46 237.281 190.703 236.811 189.728C236.359 188.735 236.132 187.569 236.132 186.228C236.132 184.871 236.359 183.704 236.811 182.729C237.281 181.737 237.934 180.98 238.77 180.457C239.623 179.918 240.615 179.648 241.747 179.648C242.896 179.648 243.88 179.935 244.698 180.51C245.516 181.084 246.064 181.859 246.343 182.834H246.056V175.052C246.056 174.703 246.143 174.442 246.317 174.268C246.508 174.077 246.778 173.981 247.126 173.981C247.457 173.981 247.71 174.077 247.884 174.268C248.075 174.442 248.171 174.703 248.171 175.052V191.66C248.171 192.008 248.084 192.278 247.91 192.47C247.736 192.661 247.475 192.757 247.126 192.757C246.796 192.757 246.535 192.661 246.343 192.47C246.169 192.278 246.082 192.008 246.082 191.66V189.179L246.369 189.545C246.091 190.537 245.533 191.329 244.698 191.921C243.88 192.513 242.896 192.809 241.747 192.809ZM242.191 191.112C242.974 191.112 243.662 190.92 244.254 190.537C244.846 190.154 245.298 189.597 245.612 188.866C245.943 188.135 246.108 187.256 246.108 186.228C246.108 184.644 245.751 183.434 245.037 182.599C244.341 181.763 243.392 181.345 242.191 181.345C241.39 181.345 240.694 181.537 240.102 181.92C239.527 182.285 239.075 182.834 238.744 183.565C238.43 184.279 238.274 185.167 238.274 186.228C238.274 187.795 238.631 189.005 239.344 189.858C240.058 190.694 241.007 191.112 242.191 191.112ZM259.949 192.809C258.608 192.809 257.45 192.548 256.475 192.026C255.518 191.486 254.769 190.729 254.23 189.754C253.707 188.779 253.446 187.613 253.446 186.255C253.446 184.931 253.707 183.782 254.23 182.808C254.752 181.815 255.466 181.04 256.371 180.483C257.294 179.926 258.356 179.648 259.557 179.648C260.41 179.648 261.176 179.796 261.855 180.092C262.534 180.37 263.108 180.779 263.579 181.319C264.066 181.859 264.432 182.512 264.675 183.278C264.936 184.044 265.067 184.905 265.067 185.863C265.067 186.141 264.989 186.35 264.832 186.49C264.675 186.611 264.449 186.672 264.153 186.672H255.065V185.288H263.657L263.239 185.628C263.239 184.688 263.1 183.896 262.821 183.251C262.543 182.59 262.134 182.085 261.594 181.737C261.072 181.389 260.41 181.215 259.609 181.215C258.721 181.215 257.964 181.423 257.337 181.841C256.728 182.242 256.267 182.808 255.953 183.539C255.64 184.253 255.483 185.088 255.483 186.046V186.202C255.483 187.804 255.866 189.023 256.632 189.858C257.416 190.694 258.521 191.112 259.949 191.112C260.541 191.112 261.124 191.033 261.698 190.877C262.29 190.72 262.865 190.459 263.422 190.093C263.666 189.937 263.883 189.867 264.075 189.884C264.284 189.884 264.449 189.945 264.571 190.067C264.693 190.172 264.771 190.311 264.806 190.485C264.858 190.642 264.841 190.816 264.754 191.007C264.684 191.199 264.536 191.364 264.31 191.504C263.735 191.921 263.056 192.243 262.273 192.47C261.489 192.696 260.715 192.809 259.949 192.809ZM274.213 192.809C273.342 192.809 272.559 192.644 271.863 192.313C271.184 191.965 270.644 191.495 270.244 190.903C269.843 190.311 269.643 189.649 269.643 188.918C269.643 187.978 269.878 187.238 270.348 186.699C270.835 186.159 271.628 185.776 272.724 185.55C273.839 185.323 275.353 185.21 277.268 185.21H278.443V186.594H277.294C275.884 186.594 274.77 186.664 273.952 186.803C273.151 186.925 272.585 187.142 272.254 187.456C271.941 187.769 271.784 188.213 271.784 188.788C271.784 189.501 272.028 190.085 272.515 190.537C273.02 190.99 273.699 191.216 274.552 191.216C275.249 191.216 275.858 191.051 276.38 190.72C276.92 190.389 277.338 189.937 277.634 189.362C277.947 188.788 278.104 188.126 278.104 187.378V184.401C278.104 183.321 277.886 182.546 277.451 182.076C277.016 181.589 276.302 181.345 275.31 181.345C274.7 181.345 274.091 181.423 273.482 181.58C272.872 181.737 272.228 181.989 271.549 182.337C271.306 182.459 271.097 182.503 270.923 182.468C270.748 182.416 270.609 182.32 270.505 182.181C270.4 182.042 270.339 181.885 270.322 181.711C270.304 181.519 270.339 181.336 270.426 181.162C270.531 180.988 270.687 180.849 270.896 180.745C271.662 180.362 272.42 180.083 273.168 179.909C273.917 179.735 274.631 179.648 275.31 179.648C276.406 179.648 277.312 179.831 278.026 180.196C278.739 180.544 279.27 181.084 279.619 181.815C279.967 182.529 280.141 183.452 280.141 184.583V191.66C280.141 192.008 280.054 192.278 279.88 192.47C279.723 192.661 279.488 192.757 279.175 192.757C278.844 192.757 278.591 192.661 278.417 192.47C278.243 192.278 278.156 192.008 278.156 191.66V189.623H278.391C278.252 190.285 277.982 190.851 277.582 191.321C277.199 191.791 276.72 192.156 276.145 192.418C275.571 192.679 274.927 192.809 274.213 192.809ZM290.437 192.809C289.653 192.809 288.861 192.713 288.06 192.522C287.277 192.33 286.546 192 285.867 191.53C285.693 191.408 285.571 191.269 285.501 191.112C285.432 190.938 285.406 190.772 285.423 190.616C285.458 190.442 285.527 190.294 285.632 190.172C285.754 190.05 285.893 189.98 286.05 189.963C286.224 189.928 286.415 189.963 286.624 190.067C287.303 190.485 287.956 190.781 288.583 190.955C289.227 191.112 289.862 191.19 290.489 191.19C291.481 191.19 292.23 191.007 292.735 190.642C293.24 190.276 293.492 189.78 293.492 189.153C293.492 188.666 293.327 188.283 292.996 188.004C292.665 187.708 292.143 187.482 291.429 187.325L289.053 186.803C287.956 186.577 287.138 186.185 286.598 185.628C286.076 185.071 285.815 184.348 285.815 183.46C285.815 182.677 286.015 182.007 286.415 181.45C286.833 180.875 287.416 180.431 288.165 180.118C288.914 179.804 289.784 179.648 290.776 179.648C291.542 179.648 292.265 179.752 292.944 179.961C293.64 180.153 294.267 180.466 294.824 180.901C294.998 181.023 295.111 181.171 295.164 181.345C295.233 181.502 295.242 181.667 295.19 181.841C295.155 181.998 295.076 182.137 294.955 182.259C294.833 182.364 294.685 182.425 294.511 182.442C294.337 182.459 294.154 182.407 293.962 182.285C293.44 181.937 292.909 181.685 292.369 181.528C291.83 181.354 291.299 181.267 290.776 181.267C289.801 181.267 289.062 181.458 288.557 181.841C288.052 182.224 287.799 182.729 287.799 183.356C287.799 183.843 287.956 184.244 288.269 184.557C288.583 184.871 289.07 185.097 289.732 185.236L292.108 185.732C293.24 185.976 294.084 186.368 294.641 186.907C295.216 187.43 295.503 188.144 295.503 189.049C295.503 190.198 295.042 191.112 294.119 191.791C293.196 192.47 291.969 192.809 290.437 192.809ZM310.682 192.705C310.334 192.705 310.073 192.609 309.899 192.418C309.725 192.209 309.638 191.921 309.638 191.556V180.875C309.638 180.51 309.725 180.231 309.899 180.039C310.073 179.848 310.334 179.752 310.682 179.752C311.013 179.752 311.274 179.848 311.465 180.039C311.657 180.231 311.753 180.51 311.753 180.875V191.556C311.753 191.921 311.657 192.209 311.465 192.418C311.291 192.609 311.03 192.705 310.682 192.705ZM310.682 176.827C310.247 176.827 309.907 176.714 309.664 176.488C309.42 176.244 309.298 175.922 309.298 175.522C309.298 175.104 309.42 174.791 309.664 174.582C309.907 174.355 310.247 174.242 310.682 174.242C311.135 174.242 311.474 174.355 311.701 174.582C311.944 174.791 312.066 175.104 312.066 175.522C312.066 175.922 311.944 176.244 311.701 176.488C311.474 176.714 311.135 176.827 310.682 176.827ZM323.411 197.51C322.488 197.51 321.583 197.397 320.695 197.17C319.824 196.961 319.032 196.622 318.318 196.152C318.109 196.03 317.97 195.882 317.901 195.708C317.848 195.534 317.84 195.36 317.874 195.186C317.909 195.029 317.988 194.881 318.109 194.742C318.231 194.62 318.371 194.541 318.527 194.507C318.701 194.472 318.875 194.498 319.05 194.585C319.816 195.055 320.547 195.377 321.243 195.551C321.94 195.725 322.627 195.812 323.306 195.812C324.542 195.812 325.474 195.482 326.1 194.82C326.745 194.158 327.067 193.201 327.067 191.947V188.997H327.328C327.067 190.006 326.51 190.807 325.656 191.399C324.821 191.991 323.837 192.287 322.706 192.287C321.539 192.287 320.529 192.026 319.676 191.504C318.823 190.964 318.162 190.215 317.692 189.258C317.239 188.3 317.013 187.195 317.013 185.941C317.013 185.001 317.143 184.148 317.404 183.382C317.666 182.599 318.04 181.937 318.527 181.397C319.032 180.84 319.633 180.414 320.329 180.118C321.043 179.804 321.835 179.648 322.706 179.648C323.855 179.648 324.847 179.944 325.683 180.536C326.518 181.11 327.058 181.894 327.302 182.886L327.04 183.199V180.771C327.04 180.422 327.128 180.161 327.302 179.987C327.493 179.796 327.754 179.7 328.085 179.7C328.433 179.7 328.694 179.796 328.868 179.987C329.043 180.161 329.13 180.422 329.13 180.771V191.66C329.13 193.593 328.642 195.046 327.667 196.021C326.71 197.014 325.291 197.51 323.411 197.51ZM323.097 190.563C323.916 190.563 324.621 190.381 325.213 190.015C325.804 189.632 326.257 189.092 326.57 188.396C326.901 187.7 327.067 186.881 327.067 185.941C327.067 184.531 326.71 183.417 325.996 182.599C325.282 181.763 324.316 181.345 323.097 181.345C322.296 181.345 321.6 181.537 321.008 181.92C320.416 182.285 319.955 182.816 319.624 183.513C319.311 184.192 319.154 185.001 319.154 185.941C319.154 187.351 319.511 188.474 320.225 189.31C320.939 190.146 321.896 190.563 323.097 190.563ZM336.231 192.757C335.883 192.757 335.622 192.661 335.448 192.47C335.274 192.278 335.186 192.008 335.186 191.66V180.771C335.186 180.422 335.274 180.161 335.448 179.987C335.622 179.796 335.874 179.7 336.205 179.7C336.536 179.7 336.788 179.796 336.962 179.987C337.154 180.161 337.249 180.422 337.249 180.771V183.016L336.962 182.703C337.328 181.693 337.92 180.936 338.738 180.431C339.574 179.909 340.531 179.648 341.611 179.648C342.62 179.648 343.456 179.831 344.118 180.196C344.796 180.562 345.301 181.119 345.632 181.867C345.963 182.599 346.128 183.53 346.128 184.662V191.66C346.128 192.008 346.033 192.278 345.841 192.47C345.667 192.661 345.415 192.757 345.084 192.757C344.736 192.757 344.466 192.661 344.274 192.47C344.1 192.278 344.013 192.008 344.013 191.66V184.792C344.013 183.608 343.778 182.747 343.308 182.207C342.855 181.65 342.124 181.371 341.114 181.371C339.948 181.371 339.017 181.737 338.32 182.468C337.641 183.182 337.302 184.139 337.302 185.341V191.66C337.302 192.391 336.945 192.757 336.231 192.757ZM353.162 192.705C352.814 192.705 352.553 192.609 352.379 192.418C352.205 192.209 352.118 191.921 352.118 191.556V180.875C352.118 180.51 352.205 180.231 352.379 180.039C352.553 179.848 352.814 179.752 353.162 179.752C353.493 179.752 353.754 179.848 353.946 180.039C354.137 180.231 354.233 180.51 354.233 180.875V191.556C354.233 191.921 354.137 192.209 353.946 192.418C353.772 192.609 353.511 192.705 353.162 192.705ZM353.162 176.827C352.727 176.827 352.388 176.714 352.144 176.488C351.9 176.244 351.778 175.922 351.778 175.522C351.778 175.104 351.9 174.791 352.144 174.582C352.388 174.355 352.727 174.242 353.162 174.242C353.615 174.242 353.955 174.355 354.181 174.582C354.425 174.791 354.546 175.104 354.546 175.522C354.546 175.922 354.425 176.244 354.181 176.488C353.955 176.714 353.615 176.827 353.162 176.827ZM365.369 192.809C364.376 192.809 363.541 192.635 362.862 192.287C362.2 191.921 361.704 191.399 361.373 190.72C361.042 190.024 360.877 189.179 360.877 188.187V181.528H359.127C358.831 181.528 358.605 181.458 358.448 181.319C358.292 181.162 358.213 180.953 358.213 180.692C358.213 180.431 358.292 180.231 358.448 180.092C358.605 179.952 358.831 179.883 359.127 179.883H360.877V176.88C360.877 176.531 360.973 176.27 361.164 176.096C361.356 175.905 361.617 175.809 361.948 175.809C362.279 175.809 362.531 175.905 362.705 176.096C362.897 176.27 362.992 176.531 362.992 176.88V179.883H366.283C366.579 179.883 366.805 179.952 366.962 180.092C367.118 180.231 367.197 180.431 367.197 180.692C367.197 180.953 367.118 181.162 366.962 181.319C366.805 181.458 366.579 181.528 366.283 181.528H362.992V187.978C362.992 188.97 363.201 189.728 363.619 190.25C364.037 190.755 364.716 191.007 365.656 191.007C365.987 191.007 366.265 190.973 366.492 190.903C366.735 190.833 366.936 190.798 367.092 190.798C367.249 190.781 367.379 190.833 367.484 190.955C367.588 191.077 367.641 191.286 367.641 191.582C367.641 191.791 367.597 191.982 367.51 192.156C367.44 192.33 367.31 192.452 367.118 192.522C366.909 192.592 366.631 192.653 366.283 192.705C365.952 192.774 365.647 192.809 365.369 192.809ZM377.087 192.809C375.746 192.809 374.589 192.548 373.614 192.026C372.656 191.486 371.907 190.729 371.368 189.754C370.846 188.779 370.584 187.613 370.584 186.255C370.584 184.931 370.846 183.782 371.368 182.808C371.89 181.815 372.604 181.04 373.509 180.483C374.432 179.926 375.494 179.648 376.695 179.648C377.548 179.648 378.314 179.796 378.993 180.092C379.672 180.37 380.247 180.779 380.717 181.319C381.204 181.859 381.57 182.512 381.813 183.278C382.075 184.044 382.205 184.905 382.205 185.863C382.205 186.141 382.127 186.35 381.97 186.49C381.813 186.611 381.587 186.672 381.291 186.672H372.203V185.288H380.795L380.377 185.628C380.377 184.688 380.238 183.896 379.959 183.251C379.681 182.59 379.272 182.085 378.732 181.737C378.21 181.389 377.548 181.215 376.747 181.215C375.859 181.215 375.102 181.423 374.475 181.841C373.866 182.242 373.405 182.808 373.091 183.539C372.778 184.253 372.621 185.088 372.621 186.046V186.202C372.621 187.804 373.004 189.023 373.77 189.858C374.554 190.694 375.659 191.112 377.087 191.112C377.679 191.112 378.262 191.033 378.836 190.877C379.428 190.72 380.003 190.459 380.56 190.093C380.804 189.937 381.021 189.867 381.213 189.884C381.422 189.884 381.587 189.945 381.709 190.067C381.831 190.172 381.909 190.311 381.944 190.485C381.996 190.642 381.979 190.816 381.892 191.007C381.822 191.199 381.674 191.364 381.448 191.504C380.873 191.921 380.194 192.243 379.411 192.47C378.628 192.696 377.853 192.809 377.087 192.809ZM392.187 192.809C391.055 192.809 390.063 192.539 389.21 192C388.374 191.46 387.721 190.703 387.251 189.728C386.798 188.735 386.572 187.569 386.572 186.228C386.572 184.871 386.798 183.704 387.251 182.729C387.721 181.737 388.374 180.98 389.21 180.457C390.063 179.918 391.055 179.648 392.187 179.648C393.336 179.648 394.319 179.935 395.138 180.51C395.956 181.084 396.504 181.859 396.783 182.834H396.495V175.052C396.495 174.703 396.583 174.442 396.757 174.268C396.948 174.077 397.218 173.981 397.566 173.981C397.897 173.981 398.149 174.077 398.323 174.268C398.515 174.442 398.611 174.703 398.611 175.052V191.66C398.611 192.008 398.524 192.278 398.35 192.47C398.175 192.661 397.914 192.757 397.566 192.757C397.235 192.757 396.974 192.661 396.783 192.47C396.609 192.278 396.522 192.008 396.522 191.66V189.179L396.809 189.545C396.53 190.537 395.973 191.329 395.138 191.921C394.319 192.513 393.336 192.809 392.187 192.809ZM392.631 191.112C393.414 191.112 394.102 190.92 394.694 190.537C395.286 190.154 395.738 189.597 396.052 188.866C396.382 188.135 396.548 187.256 396.548 186.228C396.548 184.644 396.191 183.434 395.477 182.599C394.781 181.763 393.832 181.345 392.631 181.345C391.83 181.345 391.133 181.537 390.541 181.92C389.967 182.285 389.514 182.834 389.184 183.565C388.87 184.279 388.713 185.167 388.713 186.228C388.713 187.795 389.07 189.005 389.784 189.858C390.498 190.694 391.447 191.112 392.631 191.112Z" fill="white"/>
</svg>
