<svg width="408" height="154" viewBox="0 0 408 154" fill="none" xmlns="http://www.w3.org/2000/svg">
<path d="M345.473 21C345.309 21 345.17 20.9508 345.055 20.8525C344.957 20.7378 344.907 20.5986 344.907 20.4347V19.6482C344.907 19.5007 344.948 19.3369 345.03 19.1567C345.112 18.9764 345.276 18.7798 345.522 18.5668L350.732 13.3562C351.568 12.6517 352.223 12.0536 352.699 11.5621C353.19 11.0541 353.534 10.5707 353.731 10.112C353.944 9.65316 354.05 9.17799 354.05 8.68643C354.05 7.75246 353.788 7.01513 353.264 6.47441C352.74 5.91731 351.961 5.63876 350.929 5.63876C350.274 5.63876 349.708 5.77803 349.233 6.05658C348.758 6.31875 348.381 6.68742 348.103 7.16259C347.84 7.62138 347.668 8.14571 347.586 8.73558C347.554 8.94859 347.464 9.09606 347.316 9.17799C347.185 9.25991 347.062 9.30088 346.947 9.30088H345.669C345.522 9.30088 345.399 9.25991 345.301 9.17799C345.202 9.07968 345.153 8.96498 345.153 8.8339C345.17 8.21125 345.301 7.58861 345.546 6.96597C345.792 6.32694 346.153 5.75346 346.628 5.24551C347.119 4.73756 347.718 4.32793 348.422 4.01661C349.143 3.6889 349.979 3.52505 350.929 3.52505C352.223 3.52505 353.28 3.76264 354.1 4.23781C354.935 4.6966 355.55 5.31105 355.943 6.08116C356.336 6.85127 356.533 7.69512 356.533 8.61269C356.533 9.33365 356.41 9.99725 356.164 10.6035C355.918 11.1934 355.558 11.7751 355.083 12.3485C354.624 12.9056 354.05 13.4791 353.362 14.069L348.643 18.8617H356.312C356.492 18.8617 356.631 18.9109 356.729 19.0092C356.844 19.1075 356.902 19.2468 356.902 19.427V20.4347C356.902 20.5986 356.844 20.7378 356.729 20.8525C356.631 20.9508 356.492 21 356.312 21H345.473ZM367.394 21.2458C366.264 21.2458 365.305 21.0737 364.519 20.7296C363.748 20.3692 363.118 19.8776 362.626 19.255C362.135 18.6323 361.774 17.9196 361.545 17.1167C361.332 16.3138 361.209 15.4618 361.176 14.5606C361.16 14.1182 361.143 13.6512 361.127 13.1596C361.127 12.6681 361.127 12.1765 361.127 11.6849C361.143 11.177 361.16 10.6936 361.176 10.2348C361.192 9.33365 361.315 8.48161 361.545 7.67873C361.79 6.85946 362.151 6.1467 362.626 5.54045C363.118 4.9178 363.757 4.43444 364.543 4.09035C365.33 3.72987 366.28 3.54963 367.394 3.54963C368.525 3.54963 369.475 3.72987 370.245 4.09035C371.032 4.43444 371.671 4.9178 372.162 5.54045C372.654 6.1467 373.014 6.85946 373.244 7.67873C373.49 8.48161 373.621 9.33365 373.637 10.2348C373.653 10.6936 373.662 11.177 373.662 11.6849C373.678 12.1765 373.678 12.6681 373.662 13.1596C373.662 13.6512 373.653 14.1182 373.637 14.5606C373.621 15.4618 373.49 16.3138 373.244 17.1167C373.014 17.9196 372.654 18.6323 372.162 19.255C371.687 19.8776 371.056 20.3692 370.27 20.7296C369.5 21.0737 368.541 21.2458 367.394 21.2458ZM367.394 19.1567C368.672 19.1567 369.614 18.7388 370.221 17.9032C370.843 17.0511 371.163 15.896 371.179 14.4377C371.212 13.9625 371.228 13.5037 371.228 13.0613C371.228 12.6025 371.228 12.1519 371.228 11.7095C371.228 11.2507 371.212 10.8001 371.179 10.3577C371.163 8.93221 370.843 7.79343 370.221 6.94139C369.614 6.07297 368.672 5.63876 367.394 5.63876C366.133 5.63876 365.19 6.07297 364.568 6.94139C363.961 7.79343 363.642 8.93221 363.609 10.3577C363.609 10.8001 363.601 11.2507 363.585 11.7095C363.585 12.1519 363.585 12.6025 363.585 13.0613C363.601 13.5037 363.609 13.9625 363.609 14.4377C363.642 15.896 363.97 17.0511 364.592 17.9032C365.215 18.7388 366.149 19.1567 367.394 19.1567ZM378.449 21C378.285 21 378.145 20.9508 378.031 20.8525C377.932 20.7378 377.883 20.5986 377.883 20.4347V19.6482C377.883 19.5007 377.924 19.3369 378.006 19.1567C378.088 18.9764 378.252 18.7798 378.498 18.5668L383.708 13.3562C384.544 12.6517 385.199 12.0536 385.674 11.5621C386.166 11.0541 386.51 10.5707 386.707 10.112C386.92 9.65316 387.026 9.17799 387.026 8.68643C387.026 7.75246 386.764 7.01513 386.24 6.47441C385.715 5.91731 384.937 5.63876 383.905 5.63876C383.249 5.63876 382.684 5.77803 382.209 6.05658C381.734 6.31875 381.357 6.68742 381.078 7.16259C380.816 7.62138 380.644 8.14571 380.562 8.73558C380.529 8.94859 380.439 9.09606 380.292 9.17799C380.161 9.25991 380.038 9.30088 379.923 9.30088H378.645C378.498 9.30088 378.375 9.25991 378.276 9.17799C378.178 9.07968 378.129 8.96498 378.129 8.8339C378.145 8.21125 378.276 7.58861 378.522 6.96597C378.768 6.32694 379.129 5.75346 379.604 5.24551C380.095 4.73756 380.693 4.32793 381.398 4.01661C382.119 3.6889 382.954 3.52505 383.905 3.52505C385.199 3.52505 386.256 3.76264 387.075 4.23781C387.911 4.6966 388.525 5.31105 388.919 6.08116C389.312 6.85127 389.509 7.69512 389.509 8.61269C389.509 9.33365 389.386 9.99725 389.14 10.6035C388.894 11.1934 388.534 11.7751 388.059 12.3485C387.6 12.9056 387.026 13.4791 386.338 14.069L381.619 18.8617H389.287C389.468 18.8617 389.607 18.9109 389.705 19.0092C389.82 19.1075 389.877 19.2468 389.877 19.427V20.4347C389.877 20.5986 389.82 20.7378 389.705 20.8525C389.607 20.9508 389.468 21 389.287 21H378.449ZM399.903 21.2458C398.871 21.2458 397.97 21.1229 397.199 20.8771C396.429 20.6149 395.782 20.2709 395.258 19.8448C394.733 19.4188 394.332 18.9518 394.053 18.4439C393.791 17.9359 393.652 17.4116 393.636 16.8709C393.636 16.7234 393.685 16.6087 393.783 16.5268C393.881 16.4449 394.004 16.4039 394.152 16.4039H395.356C395.504 16.4039 395.635 16.4367 395.749 16.5022C395.864 16.5678 395.962 16.707 396.044 16.9201C396.208 17.5099 396.487 17.9687 396.88 18.2964C397.29 18.6241 397.757 18.8535 398.281 18.9846C398.822 19.0993 399.362 19.1567 399.903 19.1567C401.034 19.1567 401.951 18.8863 402.656 18.3456C403.36 17.8049 403.713 17.0102 403.713 15.9615C403.713 14.8965 403.393 14.1345 402.754 13.6758C402.115 13.217 401.23 12.9876 400.1 12.9876H397.765C397.601 12.9876 397.462 12.9384 397.347 12.8401C397.249 12.7418 397.199 12.6025 397.199 12.4223V11.7587C397.199 11.6112 397.224 11.4883 397.273 11.39C397.339 11.2753 397.404 11.177 397.47 11.0951L402.238 5.88454H394.987C394.824 5.88454 394.684 5.83538 394.57 5.73707C394.471 5.63876 394.422 5.49948 394.422 5.31924V4.38528C394.422 4.20504 394.471 4.06577 394.57 3.96746C394.684 3.85276 394.824 3.79541 394.987 3.79541H404.794C404.974 3.79541 405.114 3.85276 405.212 3.96746C405.327 4.06577 405.384 4.20504 405.384 4.38528V5.27009C405.384 5.38479 405.351 5.49129 405.286 5.5896C405.236 5.67153 405.179 5.75346 405.114 5.83538L400.37 11.1196L400.763 11.1442C401.845 11.177 402.787 11.3736 403.59 11.7341C404.409 12.0946 405.04 12.6353 405.482 13.3562C405.941 14.0608 406.17 14.9538 406.17 16.0352C406.17 17.1331 405.9 18.0752 405.359 18.8617C404.819 19.6318 404.073 20.2217 403.123 20.6313C402.172 21.041 401.099 21.2458 399.903 21.2458Z" fill="white"/>
<rect x="125.073" y="137.285" width="278.267" height="16" fill="white"/>
<path d="M130.655 108.769C129.935 108.769 129.322 108.517 128.818 108.013C128.313 107.508 128.061 106.895 128.061 106.175V55.1498C128.061 54.4291 128.313 53.8165 128.818 53.312C129.322 52.8076 129.935 52.5553 130.655 52.5553H139.087C139.808 52.5553 140.421 52.8076 140.925 53.312C141.43 53.8165 141.682 54.4291 141.682 55.1498V58.8253C143.195 56.8074 145.213 55.1138 147.736 53.7445C150.33 52.3031 153.393 51.5463 156.925 51.4743C165.14 51.3301 170.87 54.5372 174.113 61.0955C175.771 58.2127 178.149 55.9065 181.248 54.1769C184.419 52.3751 187.914 51.4743 191.734 51.4743C195.482 51.4743 198.869 52.3391 201.896 54.0688C204.995 55.7984 207.409 58.429 209.139 61.9603C210.94 65.4197 211.841 69.8159 211.841 75.149V106.175C211.841 106.895 211.589 107.508 211.085 108.013C210.58 108.517 209.968 108.769 209.247 108.769H200.382C199.662 108.769 199.049 108.517 198.545 108.013C198.04 107.508 197.788 106.895 197.788 106.175V76.0138C197.788 72.7707 197.319 70.2123 196.382 68.3385C195.446 66.3926 194.184 65.0233 192.599 64.2305C191.013 63.4378 189.248 63.0414 187.302 63.0414C185.716 63.0414 184.131 63.4378 182.545 64.2305C180.96 65.0233 179.662 66.3926 178.653 68.3385C177.644 70.2123 177.14 72.7707 177.14 76.0138V106.175C177.14 106.895 176.888 107.508 176.383 108.013C175.879 108.517 175.266 108.769 174.546 108.769H165.681C164.888 108.769 164.24 108.517 163.735 108.013C163.303 107.508 163.087 106.895 163.087 106.175V76.0138C163.087 72.7707 162.582 70.2123 161.573 68.3385C160.564 66.3926 159.267 65.0233 157.681 64.2305C156.096 63.4378 154.402 63.0414 152.6 63.0414C150.943 63.0414 149.321 63.4738 147.736 64.3386C146.15 65.1314 144.853 66.4647 143.844 68.3385C142.835 70.2123 142.331 72.7707 142.331 76.0138V106.175C142.331 106.895 142.078 107.508 141.574 108.013C141.069 108.517 140.457 108.769 139.736 108.769H130.655ZM254.147 109.85C246.147 109.85 239.805 107.544 235.121 102.932C230.436 98.3193 227.914 91.761 227.554 83.2568C227.481 82.5361 227.445 81.6352 227.445 80.5542C227.445 79.4011 227.481 78.5002 227.554 77.8516C227.842 72.4464 229.067 67.7619 231.229 63.7981C233.463 59.8343 236.526 56.8074 240.418 54.7174C244.31 52.5553 248.886 51.4743 254.147 51.4743C259.985 51.4743 264.885 52.6995 268.849 55.1498C272.813 57.5281 275.804 60.8793 277.822 65.2035C279.84 69.4555 280.849 74.3923 280.849 80.0137V82.2839C280.849 83.0046 280.596 83.6171 280.092 84.1216C279.587 84.6261 278.939 84.8783 278.146 84.8783H242.256C242.256 84.8783 242.256 84.9865 242.256 85.2027C242.256 85.4189 242.256 85.599 242.256 85.7432C242.328 88.2656 242.796 90.6079 243.661 92.7699C244.598 94.8599 245.931 96.5536 247.661 97.8508C249.463 99.1481 251.589 99.7967 254.039 99.7967C256.057 99.7967 257.751 99.5084 259.12 98.9318C260.489 98.2832 261.606 97.5625 262.471 96.7698C263.336 95.977 263.948 95.3284 264.309 94.8239C264.957 93.9591 265.462 93.4546 265.822 93.3104C266.255 93.0942 266.867 92.9861 267.66 92.9861H276.957C277.678 92.9861 278.254 93.2023 278.687 93.6348C279.191 94.0672 279.407 94.6077 279.335 95.2563C279.263 96.4094 278.651 97.8148 277.497 99.4724C276.416 101.13 274.831 102.752 272.741 104.337C270.651 105.923 268.02 107.256 264.849 108.337C261.75 109.346 258.183 109.85 254.147 109.85ZM242.256 75.7976H266.147V75.4733C266.147 72.6626 265.678 70.2123 264.741 68.1223C263.804 66.0323 262.435 64.3747 260.633 63.1495C258.832 61.9243 256.669 61.3117 254.147 61.3117C251.625 61.3117 249.463 61.9243 247.661 63.1495C245.859 64.3747 244.49 66.0323 243.553 68.1223C242.688 70.2123 242.256 72.6626 242.256 75.4733V75.7976ZM320.863 109.85C312.863 109.85 306.521 107.544 301.837 102.932C297.152 98.3193 294.63 91.761 294.27 83.2568C294.198 82.5361 294.161 81.6352 294.161 80.5542C294.161 79.4011 294.198 78.5002 294.27 77.8516C294.558 72.4464 295.783 67.7619 297.945 63.7981C300.179 59.8343 303.242 56.8074 307.134 54.7174C311.026 52.5553 315.602 51.4743 320.863 51.4743C326.701 51.4743 331.601 52.6995 335.565 55.1498C339.529 57.5281 342.52 60.8793 344.538 65.2035C346.556 69.4555 347.565 74.3923 347.565 80.0137V82.2839C347.565 83.0046 347.313 83.6171 346.808 84.1216C346.304 84.6261 345.655 84.8783 344.862 84.8783H308.972C308.972 84.8783 308.972 84.9865 308.972 85.2027C308.972 85.4189 308.972 85.599 308.972 85.7432C309.044 88.2656 309.512 90.6079 310.377 92.7699C311.314 94.8599 312.647 96.5536 314.377 97.8508C316.179 99.1481 318.305 99.7967 320.755 99.7967C322.773 99.7967 324.467 99.5084 325.836 98.9318C327.205 98.2832 328.322 97.5625 329.187 96.7698C330.052 95.977 330.665 95.3284 331.025 94.8239C331.674 93.9591 332.178 93.4546 332.538 93.3104C332.971 93.0942 333.583 92.9861 334.376 92.9861H343.673C344.394 92.9861 344.97 93.2023 345.403 93.6348C345.907 94.0672 346.123 94.6077 346.051 95.2563C345.979 96.4094 345.367 97.8148 344.214 99.4724C343.133 101.13 341.547 102.752 339.457 104.337C337.367 105.923 334.736 107.256 331.565 108.337C328.466 109.346 324.899 109.85 320.863 109.85ZM308.972 75.7976H332.863V75.4733C332.863 72.6626 332.394 70.2123 331.457 68.1223C330.52 66.0323 329.151 64.3747 327.349 63.1495C325.548 61.9243 323.386 61.3117 320.863 61.3117C318.341 61.3117 316.179 61.9243 314.377 63.1495C312.575 64.3747 311.206 66.0323 310.269 68.1223C309.404 70.2123 308.972 72.6626 308.972 75.4733V75.7976ZM388.557 108.769C384.233 108.769 380.594 108.013 377.639 106.499C374.684 104.986 372.486 102.752 371.044 99.7967C369.603 96.7698 368.882 93.0222 368.882 88.5539V64.0143H360.342C359.621 64.0143 359.009 63.7621 358.504 63.2576C358 62.7531 357.748 62.1405 357.748 61.4198V55.1498C357.748 54.4291 358 53.8165 358.504 53.312C359.009 52.8076 359.621 52.5553 360.342 52.5553H368.882V34.6101C368.882 33.8894 369.099 33.2768 369.531 32.7723C370.035 32.2678 370.684 32.0156 371.477 32.0156H380.233C380.954 32.0156 381.567 32.2678 382.071 32.7723C382.575 33.2768 382.828 33.8894 382.828 34.6101V52.5553H396.341C397.061 52.5553 397.674 52.8076 398.178 53.312C398.683 53.8165 398.935 54.4291 398.935 55.1498V61.4198C398.935 62.1405 398.683 62.7531 398.178 63.2576C397.674 63.7621 397.061 64.0143 396.341 64.0143H382.828V87.4728C382.828 90.4277 383.332 92.7339 384.341 94.3915C385.422 96.0491 387.26 96.8779 389.854 96.8779H397.314C398.034 96.8779 398.647 97.1301 399.151 97.6346C399.656 98.1391 399.908 98.7517 399.908 99.4724V106.175C399.908 106.895 399.656 107.508 399.151 108.013C398.647 108.517 398.034 108.769 397.314 108.769H388.557Z" fill="white"/>
<path d="M82.257 6.14746H50.1542V121.182C50.1542 138.912 64.527 153.285 82.2567 153.285H106.334V121.182L82.257 121.182H98.2923C89.464 121.174 82.3044 114.038 82.257 105.219V80.6793H106.334V48.5765H82.257V6.14746Z" fill="white"/>
<rect y="48.5767" width="32.1028" height="104.709" fill="white"/>
<path fill-rule="evenodd" clip-rule="evenodd" d="M27.4014 10.8488L16.0514 6.14746L4.70134 10.8488L0 22.1988L4.70134 33.5489L16.0514 38.2502L27.4014 33.5489L32.1028 22.1988L27.4014 10.8488ZM11.8543 15.9975C11.4906 15.7685 11.0308 16.0905 11.1216 16.5106L13.7155 28.5117C13.8038 28.9205 14.3335 29.0334 14.5809 28.6962L17.3283 24.9506C17.3909 24.8653 17.4797 24.8027 17.5812 24.7726L22.1308 23.4193C22.5305 23.3004 22.6038 22.7659 22.2509 22.5437L11.8543 15.9975Z" fill="white"/>
</svg>
