<svg width="404" height="148" viewBox="0 0 404 148" fill="none" xmlns="http://www.w3.org/2000/svg">
<rect x="125.073" y="131.285" width="278.267" height="16" fill="#12DC9F"/>
<path d="M130.655 102.769C129.935 102.769 129.322 102.517 128.818 102.013C128.313 101.508 128.061 100.895 128.061 100.175V49.1498C128.061 48.4291 128.313 47.8165 128.818 47.312C129.322 46.8076 129.935 46.5553 130.655 46.5553H139.087C139.808 46.5553 140.421 46.8076 140.925 47.312C141.43 47.8165 141.682 48.4291 141.682 49.1498V52.8253C143.195 50.8074 145.213 49.1138 147.736 47.7445C150.33 46.3031 153.393 45.5463 156.925 45.4743C165.14 45.3301 170.87 48.5372 174.113 55.0955C175.771 52.2127 178.149 49.9065 181.248 48.1769C184.419 46.3751 187.914 45.4743 191.734 45.4743C195.482 45.4743 198.869 46.3391 201.896 48.0688C204.995 49.7984 207.409 52.429 209.139 55.9603C210.94 59.4197 211.841 63.8159 211.841 69.149V100.175C211.841 100.895 211.589 101.508 211.085 102.013C210.58 102.517 209.968 102.769 209.247 102.769H200.382C199.662 102.769 199.049 102.517 198.545 102.013C198.04 101.508 197.788 100.895 197.788 100.175V70.0138C197.788 66.7707 197.319 64.2123 196.382 62.3385C195.446 60.3926 194.184 59.0233 192.599 58.2305C191.013 57.4378 189.248 57.0414 187.302 57.0414C185.716 57.0414 184.131 57.4378 182.545 58.2305C180.96 59.0233 179.662 60.3926 178.653 62.3385C177.644 64.2123 177.14 66.7707 177.14 70.0138V100.175C177.14 100.895 176.888 101.508 176.383 102.013C175.879 102.517 175.266 102.769 174.546 102.769H165.681C164.888 102.769 164.24 102.517 163.735 102.013C163.303 101.508 163.087 100.895 163.087 100.175V70.0138C163.087 66.7707 162.582 64.2123 161.573 62.3385C160.564 60.3926 159.267 59.0233 157.681 58.2305C156.096 57.4378 154.402 57.0414 152.6 57.0414C150.943 57.0414 149.321 57.4738 147.736 58.3386C146.15 59.1314 144.853 60.4647 143.844 62.3385C142.835 64.2123 142.331 66.7707 142.331 70.0138V100.175C142.331 100.895 142.078 101.508 141.574 102.013C141.069 102.517 140.457 102.769 139.736 102.769H130.655ZM254.147 103.85C246.147 103.85 239.805 101.544 235.121 96.9317C230.436 92.3193 227.914 85.761 227.554 77.2568C227.481 76.5361 227.445 75.6352 227.445 74.5542C227.445 73.4011 227.481 72.5002 227.554 71.8516C227.842 66.4464 229.067 61.7619 231.229 57.7981C233.463 53.8343 236.526 50.8074 240.418 48.7174C244.31 46.5553 248.886 45.4743 254.147 45.4743C259.985 45.4743 264.885 46.6995 268.849 49.1498C272.813 51.5281 275.804 54.8793 277.822 59.2035C279.84 63.4555 280.849 68.3923 280.849 74.0137V76.2839C280.849 77.0046 280.596 77.6171 280.092 78.1216C279.587 78.6261 278.939 78.8783 278.146 78.8783H242.256C242.256 78.8783 242.256 78.9865 242.256 79.2027C242.256 79.4189 242.256 79.599 242.256 79.7432C242.328 82.2656 242.796 84.6079 243.661 86.7699C244.598 88.8599 245.931 90.5536 247.661 91.8508C249.463 93.1481 251.589 93.7967 254.039 93.7967C256.057 93.7967 257.751 93.5084 259.12 92.9318C260.489 92.2832 261.606 91.5625 262.471 90.7698C263.336 89.977 263.948 89.3284 264.309 88.8239C264.957 87.9591 265.462 87.4546 265.822 87.3104C266.255 87.0942 266.867 86.9861 267.66 86.9861H276.957C277.678 86.9861 278.254 87.2023 278.687 87.6348C279.191 88.0672 279.407 88.6077 279.335 89.2563C279.263 90.4094 278.651 91.8148 277.497 93.4724C276.416 95.13 274.831 96.7515 272.741 98.337C270.651 99.9226 268.02 101.256 264.849 102.337C261.75 103.346 258.183 103.85 254.147 103.85ZM242.256 69.7976H266.147V69.4733C266.147 66.6626 265.678 64.2123 264.741 62.1223C263.804 60.0323 262.435 58.3747 260.633 57.1495C258.832 55.9243 256.669 55.3117 254.147 55.3117C251.625 55.3117 249.463 55.9243 247.661 57.1495C245.859 58.3747 244.49 60.0323 243.553 62.1223C242.688 64.2123 242.256 66.6626 242.256 69.4733V69.7976ZM320.863 103.85C312.863 103.85 306.521 101.544 301.837 96.9317C297.152 92.3193 294.63 85.761 294.27 77.2568C294.198 76.5361 294.161 75.6352 294.161 74.5542C294.161 73.4011 294.198 72.5002 294.27 71.8516C294.558 66.4464 295.783 61.7619 297.945 57.7981C300.179 53.8343 303.242 50.8074 307.134 48.7174C311.026 46.5553 315.602 45.4743 320.863 45.4743C326.701 45.4743 331.601 46.6995 335.565 49.1498C339.529 51.5281 342.52 54.8793 344.538 59.2035C346.556 63.4555 347.565 68.3923 347.565 74.0137V76.2839C347.565 77.0046 347.313 77.6171 346.808 78.1216C346.304 78.6261 345.655 78.8783 344.862 78.8783H308.972C308.972 78.8783 308.972 78.9865 308.972 79.2027C308.972 79.4189 308.972 79.599 308.972 79.7432C309.044 82.2656 309.512 84.6079 310.377 86.7699C311.314 88.8599 312.647 90.5536 314.377 91.8508C316.179 93.1481 318.305 93.7967 320.755 93.7967C322.773 93.7967 324.467 93.5084 325.836 92.9318C327.205 92.2832 328.322 91.5625 329.187 90.7698C330.052 89.977 330.665 89.3284 331.025 88.8239C331.674 87.9591 332.178 87.4546 332.538 87.3104C332.971 87.0942 333.583 86.9861 334.376 86.9861H343.673C344.394 86.9861 344.97 87.2023 345.403 87.6348C345.907 88.0672 346.123 88.6077 346.051 89.2563C345.979 90.4094 345.367 91.8148 344.214 93.4724C343.133 95.13 341.547 96.7515 339.457 98.337C337.367 99.9226 334.736 101.256 331.565 102.337C328.466 103.346 324.899 103.85 320.863 103.85ZM308.972 69.7976H332.863V69.4733C332.863 66.6626 332.394 64.2123 331.457 62.1223C330.52 60.0323 329.151 58.3747 327.349 57.1495C325.548 55.9243 323.386 55.3117 320.863 55.3117C318.341 55.3117 316.179 55.9243 314.377 57.1495C312.575 58.3747 311.206 60.0323 310.269 62.1223C309.404 64.2123 308.972 66.6626 308.972 69.4733V69.7976ZM388.557 102.769C384.233 102.769 380.594 102.013 377.639 100.499C374.684 98.9857 372.486 96.7515 371.044 93.7967C369.603 90.7698 368.882 87.0222 368.882 82.5539V58.0143H360.342C359.621 58.0143 359.009 57.7621 358.504 57.2576C358 56.7531 357.748 56.1405 357.748 55.4198V49.1498C357.748 48.4291 358 47.8165 358.504 47.312C359.009 46.8076 359.621 46.5553 360.342 46.5553H368.882V28.6101C368.882 27.8894 369.099 27.2768 369.531 26.7723C370.035 26.2678 370.684 26.0156 371.477 26.0156H380.233C380.954 26.0156 381.567 26.2678 382.071 26.7723C382.575 27.2768 382.828 27.8894 382.828 28.6101V46.5553H396.341C397.061 46.5553 397.674 46.8076 398.178 47.312C398.683 47.8165 398.935 48.4291 398.935 49.1498V55.4198C398.935 56.1405 398.683 56.7531 398.178 57.2576C397.674 57.7621 397.061 58.0143 396.341 58.0143H382.828V81.4728C382.828 84.4277 383.332 86.7339 384.341 88.3915C385.422 90.0491 387.26 90.8779 389.854 90.8779H397.314C398.034 90.8779 398.647 91.1301 399.151 91.6346C399.656 92.1391 399.908 92.7517 399.908 93.4724V100.175C399.908 100.895 399.656 101.508 399.151 102.013C398.647 102.517 398.034 102.769 397.314 102.769H388.557Z" fill="#4E5866"/>
<path d="M82.257 0.147461H50.1542V115.182C50.1542 132.912 64.527 147.285 82.2567 147.285H106.334V115.182L82.257 115.182H98.2923C89.464 115.174 82.3043 108.038 82.257 99.2191V74.6793H106.334V42.5765H82.257V0.147461Z" fill="#369FFF"/>
<rect y="42.5767" width="32.1028" height="104.709" fill="#369FFF"/>
<path fill-rule="evenodd" clip-rule="evenodd" d="M27.4014 4.8488L16.0514 0.147461L4.70134 4.8488L0 16.1988L4.70134 27.5489L16.0514 32.2502L27.4014 27.5489L32.1028 16.1988L27.4014 4.8488ZM11.8543 9.99751C11.4906 9.76853 11.0308 10.0905 11.1216 10.5106L13.7155 22.5117C13.8038 22.9205 14.3335 23.0334 14.5809 22.6962L17.3283 18.9506C17.3909 18.8653 17.4797 18.8027 17.5812 18.7726L22.1308 17.4193C22.5305 17.3004 22.6038 16.7659 22.2509 16.5437L11.8543 9.99751Z" fill="#12DC9F"/>
</svg>
