<svg width="408" height="202" viewBox="0 0 408 202" fill="none" xmlns="http://www.w3.org/2000/svg">
<path d="M343.473 21C343.309 21 343.17 20.9508 343.055 20.8525C342.957 20.7378 342.907 20.5986 342.907 20.4347V19.6482C342.907 19.5007 342.948 19.3369 343.03 19.1567C343.112 18.9764 343.276 18.7798 343.522 18.5668L348.732 13.3562C349.568 12.6517 350.223 12.0536 350.699 11.5621C351.19 11.0541 351.534 10.5707 351.731 10.112C351.944 9.65316 352.05 9.17799 352.05 8.68643C352.05 7.75246 351.788 7.01513 351.264 6.47441C350.74 5.91731 349.961 5.63876 348.929 5.63876C348.274 5.63876 347.708 5.77803 347.233 6.05658C346.758 6.31875 346.381 6.68742 346.103 7.16259C345.84 7.62138 345.668 8.14571 345.586 8.73558C345.554 8.94859 345.464 9.09606 345.316 9.17799C345.185 9.25991 345.062 9.30088 344.947 9.30088H343.669C343.522 9.30088 343.399 9.25991 343.301 9.17799C343.202 9.07968 343.153 8.96498 343.153 8.8339C343.17 8.21125 343.301 7.58861 343.546 6.96597C343.792 6.32694 344.153 5.75346 344.628 5.24551C345.119 4.73756 345.718 4.32793 346.422 4.01661C347.143 3.6889 347.979 3.52505 348.929 3.52505C350.223 3.52505 351.28 3.76264 352.1 4.23781C352.935 4.6966 353.55 5.31105 353.943 6.08116C354.336 6.85127 354.533 7.69512 354.533 8.61269C354.533 9.33365 354.41 9.99725 354.164 10.6035C353.918 11.1934 353.558 11.7751 353.083 12.3485C352.624 12.9056 352.05 13.4791 351.362 14.069L346.643 18.8617H354.312C354.492 18.8617 354.631 18.9109 354.729 19.0092C354.844 19.1075 354.902 19.2468 354.902 19.427V20.4347C354.902 20.5986 354.844 20.7378 354.729 20.8525C354.631 20.9508 354.492 21 354.312 21H343.473ZM365.394 21.2458C364.264 21.2458 363.305 21.0737 362.519 20.7296C361.748 20.3692 361.118 19.8776 360.626 19.255C360.135 18.6323 359.774 17.9196 359.545 17.1167C359.332 16.3138 359.209 15.4618 359.176 14.5606C359.16 14.1182 359.143 13.6512 359.127 13.1596C359.127 12.6681 359.127 12.1765 359.127 11.6849C359.143 11.177 359.16 10.6936 359.176 10.2348C359.192 9.33365 359.315 8.48161 359.545 7.67873C359.79 6.85946 360.151 6.1467 360.626 5.54045C361.118 4.9178 361.757 4.43444 362.543 4.09035C363.33 3.72987 364.28 3.54963 365.394 3.54963C366.525 3.54963 367.475 3.72987 368.245 4.09035C369.032 4.43444 369.671 4.9178 370.162 5.54045C370.654 6.1467 371.014 6.85946 371.244 7.67873C371.49 8.48161 371.621 9.33365 371.637 10.2348C371.653 10.6936 371.662 11.177 371.662 11.6849C371.678 12.1765 371.678 12.6681 371.662 13.1596C371.662 13.6512 371.653 14.1182 371.637 14.5606C371.621 15.4618 371.49 16.3138 371.244 17.1167C371.014 17.9196 370.654 18.6323 370.162 19.255C369.687 19.8776 369.056 20.3692 368.27 20.7296C367.5 21.0737 366.541 21.2458 365.394 21.2458ZM365.394 19.1567C366.672 19.1567 367.614 18.7388 368.221 17.9032C368.843 17.0511 369.163 15.896 369.179 14.4377C369.212 13.9625 369.228 13.5037 369.228 13.0613C369.228 12.6025 369.228 12.1519 369.228 11.7095C369.228 11.2507 369.212 10.8001 369.179 10.3577C369.163 8.93221 368.843 7.79343 368.221 6.94139C367.614 6.07297 366.672 5.63876 365.394 5.63876C364.133 5.63876 363.19 6.07297 362.568 6.94139C361.961 7.79343 361.642 8.93221 361.609 10.3577C361.609 10.8001 361.601 11.2507 361.585 11.7095C361.585 12.1519 361.585 12.6025 361.585 13.0613C361.601 13.5037 361.609 13.9625 361.609 14.4377C361.642 15.896 361.97 17.0511 362.592 17.9032C363.215 18.7388 364.149 19.1567 365.394 19.1567ZM376.449 21C376.285 21 376.145 20.9508 376.031 20.8525C375.932 20.7378 375.883 20.5986 375.883 20.4347V19.6482C375.883 19.5007 375.924 19.3369 376.006 19.1567C376.088 18.9764 376.252 18.7798 376.498 18.5668L381.708 13.3562C382.544 12.6517 383.199 12.0536 383.674 11.5621C384.166 11.0541 384.51 10.5707 384.707 10.112C384.92 9.65316 385.026 9.17799 385.026 8.68643C385.026 7.75246 384.764 7.01513 384.24 6.47441C383.715 5.91731 382.937 5.63876 381.905 5.63876C381.249 5.63876 380.684 5.77803 380.209 6.05658C379.734 6.31875 379.357 6.68742 379.078 7.16259C378.816 7.62138 378.644 8.14571 378.562 8.73558C378.529 8.94859 378.439 9.09606 378.292 9.17799C378.161 9.25991 378.038 9.30088 377.923 9.30088H376.645C376.498 9.30088 376.375 9.25991 376.276 9.17799C376.178 9.07968 376.129 8.96498 376.129 8.8339C376.145 8.21125 376.276 7.58861 376.522 6.96597C376.768 6.32694 377.129 5.75346 377.604 5.24551C378.095 4.73756 378.693 4.32793 379.398 4.01661C380.119 3.6889 380.954 3.52505 381.905 3.52505C383.199 3.52505 384.256 3.76264 385.075 4.23781C385.911 4.6966 386.525 5.31105 386.919 6.08116C387.312 6.85127 387.509 7.69512 387.509 8.61269C387.509 9.33365 387.386 9.99725 387.14 10.6035C386.894 11.1934 386.534 11.7751 386.059 12.3485C385.6 12.9056 385.026 13.4791 384.338 14.069L379.619 18.8617H387.287C387.468 18.8617 387.607 18.9109 387.705 19.0092C387.82 19.1075 387.877 19.2468 387.877 19.427V20.4347C387.877 20.5986 387.82 20.7378 387.705 20.8525C387.607 20.9508 387.468 21 387.287 21H376.449ZM397.903 21.2458C396.871 21.2458 395.97 21.1229 395.199 20.8771C394.429 20.6149 393.782 20.2709 393.258 19.8448C392.733 19.4188 392.332 18.9518 392.053 18.4439C391.791 17.9359 391.652 17.4116 391.636 16.8709C391.636 16.7234 391.685 16.6087 391.783 16.5268C391.881 16.4449 392.004 16.4039 392.152 16.4039H393.356C393.504 16.4039 393.635 16.4367 393.749 16.5022C393.864 16.5678 393.962 16.707 394.044 16.9201C394.208 17.5099 394.487 17.9687 394.88 18.2964C395.29 18.6241 395.757 18.8535 396.281 18.9846C396.822 19.0993 397.362 19.1567 397.903 19.1567C399.034 19.1567 399.951 18.8863 400.656 18.3456C401.36 17.8049 401.713 17.0102 401.713 15.9615C401.713 14.8965 401.393 14.1345 400.754 13.6758C400.115 13.217 399.23 12.9876 398.1 12.9876H395.765C395.601 12.9876 395.462 12.9384 395.347 12.8401C395.249 12.7418 395.199 12.6025 395.199 12.4223V11.7587C395.199 11.6112 395.224 11.4883 395.273 11.39C395.339 11.2753 395.404 11.177 395.47 11.0951L400.238 5.88454H392.987C392.824 5.88454 392.684 5.83538 392.57 5.73707C392.471 5.63876 392.422 5.49948 392.422 5.31924V4.38528C392.422 4.20504 392.471 4.06577 392.57 3.96746C392.684 3.85276 392.824 3.79541 392.987 3.79541H402.794C402.974 3.79541 403.114 3.85276 403.212 3.96746C403.327 4.06577 403.384 4.20504 403.384 4.38528V5.27009C403.384 5.38479 403.351 5.49129 403.286 5.5896C403.236 5.67153 403.179 5.75346 403.114 5.83538L398.37 11.1196L398.763 11.1442C399.845 11.177 400.787 11.3736 401.59 11.7341C402.409 12.0946 403.04 12.6353 403.482 13.3562C403.941 14.0608 404.17 14.9538 404.17 16.0352C404.17 17.1331 403.9 18.0752 403.359 18.8617C402.819 19.6318 402.073 20.2217 401.123 20.6313C400.172 21.041 399.099 21.2458 397.903 21.2458Z" fill="#848E9B"/>
<rect x="125.073" y="137.285" width="278.267" height="16" fill="#12DC9F"/>
<path d="M130.655 108.769C129.935 108.769 129.322 108.517 128.818 108.013C128.313 107.508 128.061 106.895 128.061 106.175V55.1498C128.061 54.4291 128.313 53.8165 128.818 53.312C129.322 52.8076 129.935 52.5553 130.655 52.5553H139.087C139.808 52.5553 140.421 52.8076 140.925 53.312C141.43 53.8165 141.682 54.4291 141.682 55.1498V58.8253C143.195 56.8074 145.213 55.1138 147.736 53.7445C150.33 52.3031 153.393 51.5463 156.925 51.4743C165.14 51.3301 170.87 54.5372 174.113 61.0955C175.771 58.2127 178.149 55.9065 181.248 54.1769C184.419 52.3751 187.914 51.4743 191.734 51.4743C195.482 51.4743 198.869 52.3391 201.896 54.0688C204.995 55.7984 207.409 58.429 209.139 61.9603C210.94 65.4197 211.841 69.8159 211.841 75.149V106.175C211.841 106.895 211.589 107.508 211.085 108.013C210.58 108.517 209.968 108.769 209.247 108.769H200.382C199.662 108.769 199.049 108.517 198.545 108.013C198.04 107.508 197.788 106.895 197.788 106.175V76.0138C197.788 72.7707 197.319 70.2123 196.382 68.3385C195.446 66.3926 194.184 65.0233 192.599 64.2305C191.013 63.4378 189.248 63.0414 187.302 63.0414C185.716 63.0414 184.131 63.4378 182.545 64.2305C180.96 65.0233 179.662 66.3926 178.653 68.3385C177.644 70.2123 177.14 72.7707 177.14 76.0138V106.175C177.14 106.895 176.888 107.508 176.383 108.013C175.879 108.517 175.266 108.769 174.546 108.769H165.681C164.888 108.769 164.24 108.517 163.735 108.013C163.303 107.508 163.087 106.895 163.087 106.175V76.0138C163.087 72.7707 162.582 70.2123 161.573 68.3385C160.564 66.3926 159.267 65.0233 157.681 64.2305C156.096 63.4378 154.402 63.0414 152.6 63.0414C150.943 63.0414 149.321 63.4738 147.736 64.3386C146.15 65.1314 144.853 66.4647 143.844 68.3385C142.835 70.2123 142.331 72.7707 142.331 76.0138V106.175C142.331 106.895 142.078 107.508 141.574 108.013C141.069 108.517 140.457 108.769 139.736 108.769H130.655ZM254.147 109.85C246.147 109.85 239.805 107.544 235.121 102.932C230.436 98.3193 227.914 91.761 227.554 83.2568C227.481 82.5361 227.445 81.6352 227.445 80.5542C227.445 79.4011 227.481 78.5002 227.554 77.8516C227.842 72.4464 229.067 67.7619 231.229 63.7981C233.463 59.8343 236.526 56.8074 240.418 54.7174C244.31 52.5553 248.886 51.4743 254.147 51.4743C259.985 51.4743 264.885 52.6995 268.849 55.1498C272.813 57.5281 275.804 60.8793 277.822 65.2035C279.84 69.4555 280.849 74.3923 280.849 80.0137V82.2839C280.849 83.0046 280.596 83.6171 280.092 84.1216C279.587 84.6261 278.939 84.8783 278.146 84.8783H242.256C242.256 84.8783 242.256 84.9865 242.256 85.2027C242.256 85.4189 242.256 85.599 242.256 85.7432C242.328 88.2656 242.796 90.6079 243.661 92.7699C244.598 94.8599 245.931 96.5536 247.661 97.8508C249.463 99.1481 251.589 99.7967 254.039 99.7967C256.057 99.7967 257.751 99.5084 259.12 98.9318C260.489 98.2832 261.606 97.5625 262.471 96.7698C263.336 95.977 263.948 95.3284 264.309 94.8239C264.957 93.9591 265.462 93.4546 265.822 93.3104C266.255 93.0942 266.867 92.9861 267.66 92.9861H276.957C277.678 92.9861 278.254 93.2023 278.687 93.6348C279.191 94.0672 279.407 94.6077 279.335 95.2563C279.263 96.4094 278.651 97.8148 277.497 99.4724C276.416 101.13 274.831 102.752 272.741 104.337C270.651 105.923 268.02 107.256 264.849 108.337C261.75 109.346 258.183 109.85 254.147 109.85ZM242.256 75.7976H266.147V75.4733C266.147 72.6626 265.678 70.2123 264.741 68.1223C263.804 66.0323 262.435 64.3747 260.633 63.1495C258.832 61.9243 256.669 61.3117 254.147 61.3117C251.625 61.3117 249.463 61.9243 247.661 63.1495C245.859 64.3747 244.49 66.0323 243.553 68.1223C242.688 70.2123 242.256 72.6626 242.256 75.4733V75.7976ZM320.863 109.85C312.863 109.85 306.521 107.544 301.837 102.932C297.152 98.3193 294.63 91.761 294.27 83.2568C294.198 82.5361 294.161 81.6352 294.161 80.5542C294.161 79.4011 294.198 78.5002 294.27 77.8516C294.558 72.4464 295.783 67.7619 297.945 63.7981C300.179 59.8343 303.242 56.8074 307.134 54.7174C311.026 52.5553 315.602 51.4743 320.863 51.4743C326.701 51.4743 331.601 52.6995 335.565 55.1498C339.529 57.5281 342.52 60.8793 344.538 65.2035C346.556 69.4555 347.565 74.3923 347.565 80.0137V82.2839C347.565 83.0046 347.313 83.6171 346.808 84.1216C346.304 84.6261 345.655 84.8783 344.862 84.8783H308.972C308.972 84.8783 308.972 84.9865 308.972 85.2027C308.972 85.4189 308.972 85.599 308.972 85.7432C309.044 88.2656 309.512 90.6079 310.377 92.7699C311.314 94.8599 312.647 96.5536 314.377 97.8508C316.179 99.1481 318.305 99.7967 320.755 99.7967C322.773 99.7967 324.467 99.5084 325.836 98.9318C327.205 98.2832 328.322 97.5625 329.187 96.7698C330.052 95.977 330.665 95.3284 331.025 94.8239C331.674 93.9591 332.178 93.4546 332.538 93.3104C332.971 93.0942 333.583 92.9861 334.376 92.9861H343.673C344.394 92.9861 344.97 93.2023 345.403 93.6348C345.907 94.0672 346.123 94.6077 346.051 95.2563C345.979 96.4094 345.367 97.8148 344.214 99.4724C343.133 101.13 341.547 102.752 339.457 104.337C337.367 105.923 334.736 107.256 331.565 108.337C328.466 109.346 324.899 109.85 320.863 109.85ZM308.972 75.7976H332.863V75.4733C332.863 72.6626 332.394 70.2123 331.457 68.1223C330.52 66.0323 329.151 64.3747 327.349 63.1495C325.548 61.9243 323.386 61.3117 320.863 61.3117C318.341 61.3117 316.179 61.9243 314.377 63.1495C312.575 64.3747 311.206 66.0323 310.269 68.1223C309.404 70.2123 308.972 72.6626 308.972 75.4733V75.7976ZM388.557 108.769C384.233 108.769 380.594 108.013 377.639 106.499C374.684 104.986 372.486 102.752 371.044 99.7967C369.603 96.7698 368.882 93.0222 368.882 88.5539V64.0143H360.342C359.621 64.0143 359.009 63.7621 358.504 63.2576C358 62.7531 357.748 62.1405 357.748 61.4198V55.1498C357.748 54.4291 358 53.8165 358.504 53.312C359.009 52.8076 359.621 52.5553 360.342 52.5553H368.882V34.6101C368.882 33.8894 369.099 33.2768 369.531 32.7723C370.035 32.2678 370.684 32.0156 371.477 32.0156H380.233C380.954 32.0156 381.567 32.2678 382.071 32.7723C382.575 33.2768 382.828 33.8894 382.828 34.6101V52.5553H396.341C397.061 52.5553 397.674 52.8076 398.178 53.312C398.683 53.8165 398.935 54.4291 398.935 55.1498V61.4198C398.935 62.1405 398.683 62.7531 398.178 63.2576C397.674 63.7621 397.061 64.0143 396.341 64.0143H382.828V87.4728C382.828 90.4277 383.332 92.7339 384.341 94.3915C385.422 96.0491 387.26 96.8779 389.854 96.8779H397.314C398.034 96.8779 398.647 97.1301 399.151 97.6346C399.656 98.1391 399.908 98.7517 399.908 99.4724V106.175C399.908 106.895 399.656 107.508 399.151 108.013C398.647 108.517 398.034 108.769 397.314 108.769H388.557Z" fill="#4E5866"/>
<path d="M82.257 6.14746H50.1542V121.182C50.1542 138.912 64.527 153.285 82.2567 153.285H106.334V121.182L82.257 121.182H98.2923C89.464 121.174 82.3043 114.038 82.257 105.219V80.6793H106.334V48.5765H82.257V6.14746Z" fill="#369FFF"/>
<rect y="48.5767" width="32.1028" height="104.709" fill="#369FFF"/>
<path fill-rule="evenodd" clip-rule="evenodd" d="M27.4014 10.8488L16.0514 6.14746L4.70134 10.8488L0 22.1988L4.70134 33.5489L16.0514 38.2502L27.4014 33.5489L32.1028 22.1988L27.4014 10.8488ZM11.8543 15.9975C11.4906 15.7685 11.0308 16.0905 11.1216 16.5106L13.7155 28.5117C13.8038 28.9205 14.3335 29.0334 14.5809 28.6962L17.3283 24.9506C17.3909 24.8653 17.4797 24.8027 17.5812 24.7726L22.1308 23.4193C22.5305 23.3004 22.6038 22.7659 22.2509 22.5437L11.8543 15.9975Z" fill="#12DC9F"/>
<path d="M9.821 192.809C8.82867 192.809 7.99302 192.635 7.31405 192.287C6.65249 191.922 6.15632 191.399 5.82554 190.72C5.49477 190.024 5.32938 189.18 5.32938 188.187V181.528H3.57973C3.28377 181.528 3.05745 181.459 2.90076 181.319C2.74408 181.163 2.66574 180.954 2.66574 180.693C2.66574 180.431 2.74408 180.231 2.90076 180.092C3.05745 179.953 3.28377 179.883 3.57973 179.883H5.32938V176.88C5.32938 176.532 5.42513 176.271 5.61663 176.096C5.80814 175.905 6.06928 175.809 6.40005 175.809C6.73083 175.809 6.98327 175.905 7.15736 176.096C7.34887 176.271 7.44462 176.532 7.44462 176.88V179.883H10.735C11.031 179.883 11.2573 179.953 11.414 180.092C11.5706 180.231 11.649 180.431 11.649 180.693C11.649 180.954 11.5706 181.163 11.414 181.319C11.2573 181.459 11.031 181.528 10.735 181.528H7.44462V187.978C7.44462 188.971 7.65353 189.728 8.07136 190.25C8.48918 190.755 9.16815 191.008 10.1083 191.008C10.439 191.008 10.7176 190.973 10.9439 190.903C11.1876 190.834 11.3878 190.799 11.5445 190.799C11.7012 190.781 11.8318 190.834 11.9362 190.955C12.0407 191.077 12.0929 191.286 12.0929 191.582C12.0929 191.791 12.0494 191.983 11.9624 192.157C11.8927 192.331 11.7622 192.453 11.5706 192.522C11.3617 192.592 11.0832 192.653 10.735 192.705C10.4042 192.775 10.0996 192.809 9.821 192.809ZM21.5391 192.809C20.1986 192.809 19.0408 192.548 18.0659 192.026C17.1084 191.486 16.3598 190.729 15.8201 189.754C15.2978 188.779 15.0367 187.613 15.0367 186.255C15.0367 184.932 15.2978 183.783 15.8201 182.808C16.3424 181.815 17.0562 181.041 17.9615 180.484C18.8842 179.927 19.9461 179.648 21.1474 179.648C22.0004 179.648 22.7665 179.796 23.4454 180.092C24.1244 180.37 24.6989 180.78 25.169 181.319C25.6564 181.859 26.022 182.512 26.2658 183.278C26.5269 184.044 26.6575 184.906 26.6575 185.863C26.6575 186.142 26.5791 186.351 26.4224 186.49C26.2658 186.612 26.0394 186.673 25.7435 186.673H16.6558V185.289H25.2473L24.8295 185.628C24.8295 184.688 24.6902 183.896 24.4116 183.252C24.1331 182.59 23.724 182.085 23.1843 181.737C22.662 181.389 22.0004 181.215 21.1996 181.215C20.3117 181.215 19.5544 181.424 18.9277 181.842C18.3184 182.242 17.857 182.808 17.5436 183.539C17.2303 184.253 17.0736 185.088 17.0736 186.046V186.203C17.0736 187.804 17.4566 189.023 18.2226 189.859C19.006 190.694 20.1115 191.112 21.5391 191.112C22.131 191.112 22.7142 191.034 23.2887 190.877C23.8807 190.72 24.4552 190.459 25.0123 190.094C25.256 189.937 25.4736 189.867 25.6651 189.885C25.874 189.885 26.0394 189.946 26.1613 190.068C26.2832 190.172 26.3615 190.311 26.3963 190.485C26.4486 190.642 26.4311 190.816 26.3441 191.008C26.2745 191.199 26.1265 191.365 25.9002 191.504C25.3256 191.922 24.6467 192.244 23.8633 192.47C23.0798 192.696 22.3051 192.809 21.5391 192.809ZM37.1874 192.809C35.9165 192.809 34.8197 192.531 33.897 191.974C32.9743 191.417 32.2605 190.642 31.7556 189.65C31.2682 188.64 31.0244 187.474 31.0244 186.15C31.0244 185.141 31.1637 184.235 31.4423 183.435C31.7208 182.634 32.1299 181.955 32.6696 181.398C33.2093 180.823 33.8535 180.388 34.6021 180.092C35.3681 179.796 36.2298 179.648 37.1874 179.648C37.8141 179.648 38.467 179.744 39.1459 179.935C39.8249 180.127 40.4429 180.458 41 180.928C41.1741 181.049 41.2873 181.197 41.3395 181.372C41.3917 181.546 41.3917 181.72 41.3395 181.894C41.2873 182.05 41.2002 182.19 41.0784 182.312C40.9565 182.416 40.7998 182.477 40.6083 182.494C40.4342 182.512 40.2514 182.451 40.0599 182.312C39.6073 181.963 39.1459 181.72 38.6759 181.58C38.2058 181.441 37.7532 181.372 37.3179 181.372C36.639 181.372 36.047 181.485 35.5422 181.711C35.0373 181.92 34.6108 182.225 34.2626 182.625C33.9144 183.025 33.6446 183.522 33.453 184.113C33.279 184.705 33.1919 185.393 33.1919 186.177C33.1919 187.691 33.5488 188.892 34.2626 189.78C34.9764 190.651 35.9948 191.086 37.3179 191.086C37.7532 191.086 38.1971 191.016 38.6498 190.877C39.1198 190.738 39.5899 190.494 40.0599 190.146C40.2514 190.007 40.4342 189.946 40.6083 189.963C40.7824 189.98 40.9304 190.05 41.0523 190.172C41.1741 190.276 41.2525 190.416 41.2873 190.59C41.3395 190.764 41.3395 190.938 41.2873 191.112C41.2351 191.269 41.1219 191.408 40.9478 191.53C40.3907 191.983 39.7814 192.313 39.1198 192.522C38.4583 192.714 37.8141 192.809 37.1874 192.809ZM47.0295 192.757C46.6813 192.757 46.4202 192.662 46.2461 192.47C46.072 192.279 45.985 192.009 45.985 191.66V175.052C45.985 174.704 46.072 174.443 46.2461 174.268C46.4202 174.077 46.6813 173.981 47.0295 173.981C47.3603 173.981 47.6214 174.077 47.813 174.268C48.0045 174.443 48.1002 174.704 48.1002 175.052V182.703H47.7607C48.1263 181.694 48.7182 180.936 49.5365 180.431C50.3721 179.909 51.3297 179.648 52.409 179.648C53.4188 179.648 54.2544 179.831 54.916 180.196C55.595 180.562 56.0998 181.119 56.4306 181.868C56.7614 182.599 56.9268 183.53 56.9268 184.662V191.66C56.9268 192.009 56.831 192.279 56.6395 192.47C56.4654 192.662 56.213 192.757 55.8822 192.757C55.534 192.757 55.2642 192.662 55.0727 192.47C54.8986 192.279 54.8115 192.009 54.8115 191.66V184.792C54.8115 183.609 54.5765 182.747 54.1065 182.207C53.6538 181.65 52.9226 181.372 51.9129 181.372C50.7464 181.372 49.815 181.737 49.1187 182.468C48.4397 183.182 48.1002 184.14 48.1002 185.341V191.66C48.1002 192.392 47.7433 192.757 47.0295 192.757ZM76.2296 192.809C75.2024 192.809 74.3494 192.627 73.6704 192.261C73.0088 191.878 72.504 191.312 72.1558 190.564C71.825 189.815 71.6596 188.884 71.6596 187.769V180.771C71.6596 180.405 71.7467 180.135 71.9208 179.961C72.1123 179.787 72.3734 179.7 72.7042 179.7C73.0524 179.7 73.3135 179.787 73.4876 179.961C73.6791 180.135 73.7749 180.405 73.7749 180.771V187.743C73.7749 188.858 74.0012 189.693 74.4538 190.25C74.9239 190.79 75.6551 191.06 76.6474 191.06C77.7268 191.06 78.606 190.694 79.2849 189.963C79.9639 189.232 80.3034 188.274 80.3034 187.09V180.771C80.3034 180.405 80.3904 180.135 80.5645 179.961C80.756 179.787 81.0259 179.7 81.3741 179.7C81.7048 179.7 81.9573 179.787 82.1314 179.961C82.3229 180.135 82.4186 180.405 82.4186 180.771V191.66C82.4186 192.392 82.0791 192.757 81.4002 192.757C81.0694 192.757 80.8083 192.662 80.6168 192.47C80.4427 192.279 80.3556 192.009 80.3556 191.66V189.284L80.6951 189.65C80.3469 190.677 79.7724 191.46 78.9716 192C78.1881 192.54 77.2742 192.809 76.2296 192.809ZM89.5098 192.757C89.1617 192.757 88.9005 192.662 88.7264 192.47C88.5523 192.279 88.4653 192.009 88.4653 191.66V180.771C88.4653 180.423 88.5523 180.162 88.7264 179.987C88.9005 179.796 89.1529 179.7 89.4837 179.7C89.8145 179.7 90.0669 179.796 90.241 179.987C90.4325 180.162 90.5283 180.423 90.5283 180.771V183.017L90.241 182.703C90.6066 181.694 91.1986 180.936 92.0168 180.431C92.8524 179.909 93.81 179.648 94.8893 179.648C95.8991 179.648 96.7347 179.831 97.3963 180.196C98.0753 180.562 98.5801 181.119 98.9109 181.868C99.2417 182.599 99.4071 183.53 99.4071 184.662V191.66C99.4071 192.009 99.3113 192.279 99.1198 192.47C98.9457 192.662 98.6933 192.757 98.3625 192.757C98.0143 192.757 97.7445 192.662 97.553 192.47C97.3789 192.279 97.2918 192.009 97.2918 191.66V184.792C97.2918 183.609 97.0568 182.747 96.5868 182.207C96.1341 181.65 95.4029 181.372 94.3932 181.372C93.2268 181.372 92.2953 181.737 91.599 182.468C90.92 183.182 90.5805 184.14 90.5805 185.341V191.66C90.5805 192.392 90.2236 192.757 89.5098 192.757ZM109.261 192.809C108.008 192.809 107.05 192.426 106.389 191.66C105.727 190.894 105.397 189.798 105.397 188.37V175.052C105.397 174.704 105.484 174.443 105.658 174.268C105.832 174.077 106.093 173.981 106.441 173.981C106.772 173.981 107.033 174.077 107.225 174.268C107.416 174.443 107.512 174.704 107.512 175.052V188.213C107.512 189.154 107.695 189.859 108.06 190.329C108.443 190.781 109 191.008 109.732 191.008C109.888 191.008 110.028 190.999 110.149 190.982C110.271 190.964 110.393 190.955 110.515 190.955C110.706 190.938 110.837 190.982 110.907 191.086C110.994 191.19 111.037 191.399 111.037 191.713C111.037 192.026 110.968 192.261 110.828 192.418C110.689 192.574 110.463 192.679 110.149 192.731C110.01 192.749 109.862 192.766 109.705 192.783C109.549 192.801 109.401 192.809 109.261 192.809ZM120.804 192.809C119.464 192.809 118.306 192.548 117.331 192.026C116.374 191.486 115.625 190.729 115.085 189.754C114.563 188.779 114.302 187.613 114.302 186.255C114.302 184.932 114.563 183.783 115.085 182.808C115.608 181.815 116.321 181.041 117.227 180.484C118.149 179.927 119.211 179.648 120.413 179.648C121.266 179.648 122.032 179.796 122.711 180.092C123.39 180.37 123.964 180.78 124.434 181.319C124.922 181.859 125.287 182.512 125.531 183.278C125.792 184.044 125.923 184.906 125.923 185.863C125.923 186.142 125.844 186.351 125.688 186.49C125.531 186.612 125.305 186.673 125.009 186.673H115.921V185.289H124.513L124.095 185.628C124.095 184.688 123.955 183.896 123.677 183.252C123.398 182.59 122.989 182.085 122.45 181.737C121.927 181.389 121.266 181.215 120.465 181.215C119.577 181.215 118.82 181.424 118.193 181.842C117.584 182.242 117.122 182.808 116.809 183.539C116.496 184.253 116.339 185.088 116.339 186.046V186.203C116.339 187.804 116.722 189.023 117.488 189.859C118.271 190.694 119.377 191.112 120.804 191.112C121.396 191.112 121.979 191.034 122.554 190.877C123.146 190.72 123.72 190.459 124.278 190.094C124.521 189.937 124.739 189.867 124.93 189.885C125.139 189.885 125.305 189.946 125.427 190.068C125.548 190.172 125.627 190.311 125.662 190.485C125.714 190.642 125.696 190.816 125.609 191.008C125.54 191.199 125.392 191.365 125.165 191.504C124.591 191.922 123.912 192.244 123.128 192.47C122.345 192.696 121.57 192.809 120.804 192.809ZM135.069 192.809C134.198 192.809 133.415 192.644 132.718 192.313C132.039 191.965 131.5 191.495 131.099 190.903C130.699 190.311 130.499 189.65 130.499 188.918C130.499 187.978 130.734 187.238 131.204 186.699C131.691 186.159 132.483 185.776 133.58 185.55C134.694 185.323 136.209 185.21 138.124 185.21H139.299V186.594H138.15C136.74 186.594 135.626 186.664 134.807 186.803C134.007 186.925 133.441 187.143 133.11 187.456C132.797 187.769 132.64 188.213 132.64 188.788C132.64 189.502 132.884 190.085 133.371 190.538C133.876 190.99 134.555 191.217 135.408 191.217C136.104 191.217 136.714 191.051 137.236 190.72C137.776 190.39 138.194 189.937 138.49 189.362C138.803 188.788 138.96 188.126 138.96 187.378V184.401C138.96 183.321 138.742 182.547 138.307 182.077C137.871 181.589 137.158 181.345 136.165 181.345C135.556 181.345 134.947 181.424 134.337 181.58C133.728 181.737 133.084 181.99 132.405 182.338C132.161 182.46 131.952 182.503 131.778 182.468C131.604 182.416 131.465 182.32 131.36 182.181C131.256 182.042 131.195 181.885 131.178 181.711C131.16 181.519 131.195 181.337 131.282 181.163C131.386 180.989 131.543 180.849 131.752 180.745C132.518 180.362 133.275 180.083 134.024 179.909C134.773 179.735 135.486 179.648 136.165 179.648C137.262 179.648 138.167 179.831 138.881 180.196C139.595 180.545 140.126 181.084 140.474 181.815C140.822 182.529 140.996 183.452 140.996 184.584V191.66C140.996 192.009 140.909 192.279 140.735 192.47C140.579 192.662 140.344 192.757 140.03 192.757C139.699 192.757 139.447 192.662 139.273 192.47C139.099 192.279 139.012 192.009 139.012 191.66V189.624H139.247C139.108 190.285 138.838 190.851 138.437 191.321C138.054 191.791 137.576 192.157 137.001 192.418C136.426 192.679 135.782 192.809 135.069 192.809ZM151.293 192.809C150.509 192.809 149.717 192.714 148.916 192.522C148.133 192.331 147.402 192 146.723 191.53C146.549 191.408 146.427 191.269 146.357 191.112C146.287 190.938 146.261 190.773 146.279 190.616C146.313 190.442 146.383 190.294 146.488 190.172C146.609 190.05 146.749 189.98 146.905 189.963C147.079 189.928 147.271 189.963 147.48 190.068C148.159 190.485 148.812 190.781 149.438 190.955C150.083 191.112 150.718 191.19 151.345 191.19C152.337 191.19 153.086 191.008 153.591 190.642C154.095 190.276 154.348 189.78 154.348 189.154C154.348 188.666 154.183 188.283 153.852 188.004C153.521 187.709 152.999 187.482 152.285 187.326L149.909 186.803C148.812 186.577 147.993 186.185 147.454 185.628C146.932 185.071 146.67 184.349 146.67 183.461C146.67 182.677 146.871 182.007 147.271 181.45C147.689 180.875 148.272 180.431 149.021 180.118C149.769 179.805 150.64 179.648 151.632 179.648C152.398 179.648 153.121 179.752 153.8 179.961C154.496 180.153 155.123 180.466 155.68 180.901C155.854 181.023 155.967 181.171 156.019 181.345C156.089 181.502 156.098 181.667 156.045 181.842C156.011 181.998 155.932 182.138 155.81 182.259C155.688 182.364 155.54 182.425 155.366 182.442C155.192 182.46 155.009 182.407 154.818 182.286C154.296 181.937 153.765 181.685 153.225 181.528C152.685 181.354 152.154 181.267 151.632 181.267C150.657 181.267 149.917 181.459 149.412 181.842C148.907 182.225 148.655 182.729 148.655 183.356C148.655 183.844 148.812 184.244 149.125 184.557C149.438 184.871 149.926 185.097 150.587 185.236L152.964 185.733C154.095 185.976 154.94 186.368 155.497 186.908C156.071 187.43 156.359 188.144 156.359 189.049C156.359 190.198 155.897 191.112 154.975 191.791C154.052 192.47 152.825 192.809 151.293 192.809ZM162.716 192.757C162.368 192.757 162.107 192.662 161.933 192.47C161.759 192.279 161.671 192.009 161.671 191.66V175.052C161.671 174.704 161.759 174.443 161.933 174.268C162.107 174.077 162.368 173.981 162.716 173.981C163.047 173.981 163.308 174.077 163.499 174.268C163.691 174.443 163.787 174.704 163.787 175.052V182.703H163.447C163.813 181.694 164.405 180.936 165.223 180.431C166.059 179.909 167.016 179.648 168.096 179.648C169.105 179.648 169.941 179.831 170.603 180.196C171.281 180.562 171.786 181.119 172.117 181.868C172.448 182.599 172.613 183.53 172.613 184.662V191.66C172.613 192.009 172.518 192.279 172.326 192.47C172.152 192.662 171.9 192.757 171.569 192.757C171.221 192.757 170.951 192.662 170.759 192.47C170.585 192.279 170.498 192.009 170.498 191.66V184.792C170.498 183.609 170.263 182.747 169.793 182.207C169.34 181.65 168.609 181.372 167.599 181.372C166.433 181.372 165.502 181.737 164.805 182.468C164.126 183.182 163.787 184.14 163.787 185.341V191.66C163.787 192.392 163.43 192.757 162.716 192.757ZM184.322 192.809C182.981 192.809 181.824 192.548 180.849 192.026C179.891 191.486 179.143 190.729 178.603 189.754C178.081 188.779 177.819 187.613 177.819 186.255C177.819 184.932 178.081 183.783 178.603 182.808C179.125 181.815 179.839 181.041 180.744 180.484C181.667 179.927 182.729 179.648 183.93 179.648C184.783 179.648 185.549 179.796 186.228 180.092C186.907 180.37 187.482 180.78 187.952 181.319C188.439 181.859 188.805 182.512 189.048 183.278C189.31 184.044 189.44 184.906 189.44 185.863C189.44 186.142 189.362 186.351 189.205 186.49C189.048 186.612 188.822 186.673 188.526 186.673H179.438V185.289H188.03L187.612 185.628C187.612 184.688 187.473 183.896 187.194 183.252C186.916 182.59 186.507 182.085 185.967 181.737C185.445 181.389 184.783 181.215 183.982 181.215C183.094 181.215 182.337 181.424 181.71 181.842C181.101 182.242 180.64 182.808 180.326 183.539C180.013 184.253 179.856 185.088 179.856 186.046V186.203C179.856 187.804 180.239 189.023 181.005 189.859C181.789 190.694 182.894 191.112 184.322 191.112C184.914 191.112 185.497 191.034 186.071 190.877C186.663 190.72 187.238 190.459 187.795 190.094C188.039 189.937 188.256 189.867 188.448 189.885C188.657 189.885 188.822 189.946 188.944 190.068C189.066 190.172 189.144 190.311 189.179 190.485C189.231 190.642 189.214 190.816 189.127 191.008C189.057 191.199 188.909 191.365 188.683 191.504C188.108 191.922 187.429 192.244 186.646 192.47C185.863 192.696 185.088 192.809 184.322 192.809ZM199.422 192.809C198.29 192.809 197.298 192.54 196.445 192C195.609 191.46 194.956 190.703 194.486 189.728C194.033 188.736 193.807 187.569 193.807 186.229C193.807 184.871 194.033 183.704 194.486 182.729C194.956 181.737 195.609 180.98 196.445 180.458C197.298 179.918 198.29 179.648 199.422 179.648C200.571 179.648 201.554 179.935 202.373 180.51C203.191 181.084 203.739 181.859 204.018 182.834H203.731V175.052C203.731 174.704 203.818 174.443 203.992 174.268C204.183 174.077 204.453 173.981 204.801 173.981C205.132 173.981 205.384 174.077 205.558 174.268C205.75 174.443 205.846 174.704 205.846 175.052V191.66C205.846 192.009 205.759 192.279 205.585 192.47C205.411 192.662 205.149 192.757 204.801 192.757C204.47 192.757 204.209 192.662 204.018 192.47C203.844 192.279 203.757 192.009 203.757 191.66V189.18L204.044 189.545C203.765 190.538 203.208 191.33 202.373 191.922C201.554 192.514 200.571 192.809 199.422 192.809ZM199.866 191.112C200.649 191.112 201.337 190.921 201.929 190.538C202.521 190.155 202.973 189.597 203.287 188.866C203.617 188.135 203.783 187.256 203.783 186.229C203.783 184.644 203.426 183.435 202.712 182.599C202.016 181.763 201.067 181.345 199.866 181.345C199.065 181.345 198.368 181.537 197.776 181.92C197.202 182.286 196.749 182.834 196.419 183.565C196.105 184.279 195.949 185.167 195.949 186.229C195.949 187.796 196.305 189.006 197.019 189.859C197.733 190.694 198.682 191.112 199.866 191.112ZM213.158 195.055C212.984 195.282 212.801 195.412 212.61 195.447C212.418 195.482 212.253 195.447 212.113 195.343C211.974 195.238 211.896 195.09 211.878 194.899C211.878 194.707 211.965 194.498 212.139 194.272C212.418 193.906 212.61 193.532 212.714 193.149C212.818 192.783 212.871 192.444 212.871 192.131L212.975 192.679C212.522 192.679 212.157 192.548 211.878 192.287C211.617 192.009 211.487 191.66 211.487 191.243C211.487 190.825 211.608 190.485 211.852 190.224C212.113 189.946 212.453 189.806 212.871 189.806C213.323 189.806 213.68 189.963 213.941 190.276C214.202 190.572 214.333 191.008 214.333 191.582C214.333 191.948 214.298 192.322 214.229 192.705C214.159 193.105 214.037 193.506 213.863 193.906C213.689 194.307 213.454 194.69 213.158 195.055ZM229.802 192.705C229.454 192.705 229.192 192.609 229.018 192.418C228.844 192.209 228.757 191.922 228.757 191.556V180.875C228.757 180.51 228.844 180.231 229.018 180.04C229.192 179.848 229.454 179.752 229.802 179.752C230.133 179.752 230.394 179.848 230.585 180.04C230.777 180.231 230.872 180.51 230.872 180.875V191.556C230.872 191.922 230.777 192.209 230.585 192.418C230.411 192.609 230.15 192.705 229.802 192.705ZM229.802 176.828C229.367 176.828 229.027 176.714 228.783 176.488C228.54 176.244 228.418 175.922 228.418 175.522C228.418 175.104 228.54 174.791 228.783 174.582C229.027 174.356 229.367 174.242 229.802 174.242C230.254 174.242 230.594 174.356 230.82 174.582C231.064 174.791 231.186 175.104 231.186 175.522C231.186 175.922 231.064 176.244 230.82 176.488C230.594 176.714 230.254 176.828 229.802 176.828ZM241.747 192.809C240.615 192.809 239.623 192.54 238.77 192C237.934 191.46 237.281 190.703 236.811 189.728C236.359 188.736 236.132 187.569 236.132 186.229C236.132 184.871 236.359 183.704 236.811 182.729C237.281 181.737 237.934 180.98 238.77 180.458C239.623 179.918 240.615 179.648 241.747 179.648C242.896 179.648 243.88 179.935 244.698 180.51C245.516 181.084 246.064 181.859 246.343 182.834H246.056V175.052C246.056 174.704 246.143 174.443 246.317 174.268C246.508 174.077 246.778 173.981 247.126 173.981C247.457 173.981 247.71 174.077 247.884 174.268C248.075 174.443 248.171 174.704 248.171 175.052V191.66C248.171 192.009 248.084 192.279 247.91 192.47C247.736 192.662 247.475 192.757 247.126 192.757C246.796 192.757 246.535 192.662 246.343 192.47C246.169 192.279 246.082 192.009 246.082 191.66V189.18L246.369 189.545C246.091 190.538 245.533 191.33 244.698 191.922C243.88 192.514 242.896 192.809 241.747 192.809ZM242.191 191.112C242.974 191.112 243.662 190.921 244.254 190.538C244.846 190.155 245.298 189.597 245.612 188.866C245.943 188.135 246.108 187.256 246.108 186.229C246.108 184.644 245.751 183.435 245.037 182.599C244.341 181.763 243.392 181.345 242.191 181.345C241.39 181.345 240.694 181.537 240.102 181.92C239.527 182.286 239.075 182.834 238.744 183.565C238.43 184.279 238.274 185.167 238.274 186.229C238.274 187.796 238.631 189.006 239.344 189.859C240.058 190.694 241.007 191.112 242.191 191.112ZM259.949 192.809C258.608 192.809 257.45 192.548 256.475 192.026C255.518 191.486 254.769 190.729 254.23 189.754C253.707 188.779 253.446 187.613 253.446 186.255C253.446 184.932 253.707 183.783 254.23 182.808C254.752 181.815 255.466 181.041 256.371 180.484C257.294 179.927 258.356 179.648 259.557 179.648C260.41 179.648 261.176 179.796 261.855 180.092C262.534 180.37 263.108 180.78 263.579 181.319C264.066 181.859 264.432 182.512 264.675 183.278C264.936 184.044 265.067 184.906 265.067 185.863C265.067 186.142 264.989 186.351 264.832 186.49C264.675 186.612 264.449 186.673 264.153 186.673H255.065V185.289H263.657L263.239 185.628C263.239 184.688 263.1 183.896 262.821 183.252C262.543 182.59 262.134 182.085 261.594 181.737C261.072 181.389 260.41 181.215 259.609 181.215C258.721 181.215 257.964 181.424 257.337 181.842C256.728 182.242 256.267 182.808 255.953 183.539C255.64 184.253 255.483 185.088 255.483 186.046V186.203C255.483 187.804 255.866 189.023 256.632 189.859C257.416 190.694 258.521 191.112 259.949 191.112C260.541 191.112 261.124 191.034 261.698 190.877C262.29 190.72 262.865 190.459 263.422 190.094C263.666 189.937 263.883 189.867 264.075 189.885C264.284 189.885 264.449 189.946 264.571 190.068C264.693 190.172 264.771 190.311 264.806 190.485C264.858 190.642 264.841 190.816 264.754 191.008C264.684 191.199 264.536 191.365 264.31 191.504C263.735 191.922 263.056 192.244 262.273 192.47C261.489 192.696 260.715 192.809 259.949 192.809ZM274.213 192.809C273.342 192.809 272.559 192.644 271.863 192.313C271.184 191.965 270.644 191.495 270.244 190.903C269.843 190.311 269.643 189.65 269.643 188.918C269.643 187.978 269.878 187.238 270.348 186.699C270.835 186.159 271.628 185.776 272.724 185.55C273.839 185.323 275.353 185.21 277.268 185.21H278.443V186.594H277.294C275.884 186.594 274.77 186.664 273.952 186.803C273.151 186.925 272.585 187.143 272.254 187.456C271.941 187.769 271.784 188.213 271.784 188.788C271.784 189.502 272.028 190.085 272.515 190.538C273.02 190.99 273.699 191.217 274.552 191.217C275.249 191.217 275.858 191.051 276.38 190.72C276.92 190.39 277.338 189.937 277.634 189.362C277.947 188.788 278.104 188.126 278.104 187.378V184.401C278.104 183.321 277.886 182.547 277.451 182.077C277.016 181.589 276.302 181.345 275.31 181.345C274.7 181.345 274.091 181.424 273.482 181.58C272.872 181.737 272.228 181.99 271.549 182.338C271.306 182.46 271.097 182.503 270.923 182.468C270.748 182.416 270.609 182.32 270.505 182.181C270.4 182.042 270.339 181.885 270.322 181.711C270.304 181.519 270.339 181.337 270.426 181.163C270.531 180.989 270.687 180.849 270.896 180.745C271.662 180.362 272.42 180.083 273.168 179.909C273.917 179.735 274.631 179.648 275.31 179.648C276.406 179.648 277.312 179.831 278.026 180.196C278.739 180.545 279.27 181.084 279.619 181.815C279.967 182.529 280.141 183.452 280.141 184.584V191.66C280.141 192.009 280.054 192.279 279.88 192.47C279.723 192.662 279.488 192.757 279.175 192.757C278.844 192.757 278.591 192.662 278.417 192.47C278.243 192.279 278.156 192.009 278.156 191.66V189.624H278.391C278.252 190.285 277.982 190.851 277.582 191.321C277.199 191.791 276.72 192.157 276.145 192.418C275.571 192.679 274.927 192.809 274.213 192.809ZM290.437 192.809C289.653 192.809 288.861 192.714 288.06 192.522C287.277 192.331 286.546 192 285.867 191.53C285.693 191.408 285.571 191.269 285.501 191.112C285.432 190.938 285.406 190.773 285.423 190.616C285.458 190.442 285.527 190.294 285.632 190.172C285.754 190.05 285.893 189.98 286.05 189.963C286.224 189.928 286.415 189.963 286.624 190.068C287.303 190.485 287.956 190.781 288.583 190.955C289.227 191.112 289.862 191.19 290.489 191.19C291.481 191.19 292.23 191.008 292.735 190.642C293.24 190.276 293.492 189.78 293.492 189.154C293.492 188.666 293.327 188.283 292.996 188.004C292.665 187.709 292.143 187.482 291.429 187.326L289.053 186.803C287.956 186.577 287.138 186.185 286.598 185.628C286.076 185.071 285.815 184.349 285.815 183.461C285.815 182.677 286.015 182.007 286.415 181.45C286.833 180.875 287.416 180.431 288.165 180.118C288.914 179.805 289.784 179.648 290.776 179.648C291.542 179.648 292.265 179.752 292.944 179.961C293.64 180.153 294.267 180.466 294.824 180.901C294.998 181.023 295.111 181.171 295.164 181.345C295.233 181.502 295.242 181.667 295.19 181.842C295.155 181.998 295.076 182.138 294.955 182.259C294.833 182.364 294.685 182.425 294.511 182.442C294.337 182.46 294.154 182.407 293.962 182.286C293.44 181.937 292.909 181.685 292.369 181.528C291.83 181.354 291.299 181.267 290.776 181.267C289.801 181.267 289.062 181.459 288.557 181.842C288.052 182.225 287.799 182.729 287.799 183.356C287.799 183.844 287.956 184.244 288.269 184.557C288.583 184.871 289.07 185.097 289.732 185.236L292.108 185.733C293.24 185.976 294.084 186.368 294.641 186.908C295.216 187.43 295.503 188.144 295.503 189.049C295.503 190.198 295.042 191.112 294.119 191.791C293.196 192.47 291.969 192.809 290.437 192.809ZM310.682 192.705C310.334 192.705 310.073 192.609 309.899 192.418C309.725 192.209 309.638 191.922 309.638 191.556V180.875C309.638 180.51 309.725 180.231 309.899 180.04C310.073 179.848 310.334 179.752 310.682 179.752C311.013 179.752 311.274 179.848 311.465 180.04C311.657 180.231 311.753 180.51 311.753 180.875V191.556C311.753 191.922 311.657 192.209 311.465 192.418C311.291 192.609 311.03 192.705 310.682 192.705ZM310.682 176.828C310.247 176.828 309.907 176.714 309.664 176.488C309.42 176.244 309.298 175.922 309.298 175.522C309.298 175.104 309.42 174.791 309.664 174.582C309.907 174.356 310.247 174.242 310.682 174.242C311.135 174.242 311.474 174.356 311.701 174.582C311.944 174.791 312.066 175.104 312.066 175.522C312.066 175.922 311.944 176.244 311.701 176.488C311.474 176.714 311.135 176.828 310.682 176.828ZM323.411 197.51C322.488 197.51 321.583 197.397 320.695 197.171C319.824 196.962 319.032 196.622 318.318 196.152C318.109 196.03 317.97 195.882 317.901 195.708C317.848 195.534 317.84 195.36 317.874 195.186C317.909 195.029 317.988 194.881 318.109 194.742C318.231 194.62 318.371 194.542 318.527 194.507C318.701 194.472 318.875 194.498 319.05 194.585C319.816 195.055 320.547 195.377 321.243 195.551C321.94 195.726 322.627 195.813 323.306 195.813C324.542 195.813 325.474 195.482 326.1 194.82C326.745 194.159 327.067 193.201 327.067 191.948V188.997H327.328C327.067 190.007 326.51 190.807 325.656 191.399C324.821 191.991 323.837 192.287 322.706 192.287C321.539 192.287 320.529 192.026 319.676 191.504C318.823 190.964 318.162 190.215 317.692 189.258C317.239 188.3 317.013 187.195 317.013 185.941C317.013 185.001 317.143 184.148 317.404 183.382C317.666 182.599 318.04 181.937 318.527 181.398C319.032 180.841 319.633 180.414 320.329 180.118C321.043 179.805 321.835 179.648 322.706 179.648C323.855 179.648 324.847 179.944 325.683 180.536C326.518 181.11 327.058 181.894 327.302 182.886L327.04 183.199V180.771C327.04 180.423 327.128 180.162 327.302 179.987C327.493 179.796 327.754 179.7 328.085 179.7C328.433 179.7 328.694 179.796 328.868 179.987C329.043 180.162 329.13 180.423 329.13 180.771V191.66C329.13 193.593 328.642 195.047 327.667 196.022C326.71 197.014 325.291 197.51 323.411 197.51ZM323.097 190.564C323.916 190.564 324.621 190.381 325.213 190.015C325.804 189.632 326.257 189.093 326.57 188.396C326.901 187.7 327.067 186.882 327.067 185.941C327.067 184.531 326.71 183.417 325.996 182.599C325.282 181.763 324.316 181.345 323.097 181.345C322.296 181.345 321.6 181.537 321.008 181.92C320.416 182.286 319.955 182.816 319.624 183.513C319.311 184.192 319.154 185.001 319.154 185.941C319.154 187.352 319.511 188.475 320.225 189.31C320.939 190.146 321.896 190.564 323.097 190.564ZM336.231 192.757C335.883 192.757 335.622 192.662 335.448 192.47C335.274 192.279 335.186 192.009 335.186 191.66V180.771C335.186 180.423 335.274 180.162 335.448 179.987C335.622 179.796 335.874 179.7 336.205 179.7C336.536 179.7 336.788 179.796 336.962 179.987C337.154 180.162 337.249 180.423 337.249 180.771V183.017L336.962 182.703C337.328 181.694 337.92 180.936 338.738 180.431C339.574 179.909 340.531 179.648 341.611 179.648C342.62 179.648 343.456 179.831 344.118 180.196C344.796 180.562 345.301 181.119 345.632 181.868C345.963 182.599 346.128 183.53 346.128 184.662V191.66C346.128 192.009 346.033 192.279 345.841 192.47C345.667 192.662 345.415 192.757 345.084 192.757C344.736 192.757 344.466 192.662 344.274 192.47C344.1 192.279 344.013 192.009 344.013 191.66V184.792C344.013 183.609 343.778 182.747 343.308 182.207C342.855 181.65 342.124 181.372 341.114 181.372C339.948 181.372 339.017 181.737 338.32 182.468C337.641 183.182 337.302 184.14 337.302 185.341V191.66C337.302 192.392 336.945 192.757 336.231 192.757ZM353.162 192.705C352.814 192.705 352.553 192.609 352.379 192.418C352.205 192.209 352.118 191.922 352.118 191.556V180.875C352.118 180.51 352.205 180.231 352.379 180.04C352.553 179.848 352.814 179.752 353.162 179.752C353.493 179.752 353.754 179.848 353.946 180.04C354.137 180.231 354.233 180.51 354.233 180.875V191.556C354.233 191.922 354.137 192.209 353.946 192.418C353.772 192.609 353.511 192.705 353.162 192.705ZM353.162 176.828C352.727 176.828 352.388 176.714 352.144 176.488C351.9 176.244 351.778 175.922 351.778 175.522C351.778 175.104 351.9 174.791 352.144 174.582C352.388 174.356 352.727 174.242 353.162 174.242C353.615 174.242 353.955 174.356 354.181 174.582C354.425 174.791 354.546 175.104 354.546 175.522C354.546 175.922 354.425 176.244 354.181 176.488C353.955 176.714 353.615 176.828 353.162 176.828ZM365.369 192.809C364.376 192.809 363.541 192.635 362.862 192.287C362.2 191.922 361.704 191.399 361.373 190.72C361.042 190.024 360.877 189.18 360.877 188.187V181.528H359.127C358.831 181.528 358.605 181.459 358.448 181.319C358.292 181.163 358.213 180.954 358.213 180.693C358.213 180.431 358.292 180.231 358.448 180.092C358.605 179.953 358.831 179.883 359.127 179.883H360.877V176.88C360.877 176.532 360.973 176.271 361.164 176.096C361.356 175.905 361.617 175.809 361.948 175.809C362.279 175.809 362.531 175.905 362.705 176.096C362.897 176.271 362.992 176.532 362.992 176.88V179.883H366.283C366.579 179.883 366.805 179.953 366.962 180.092C367.118 180.231 367.197 180.431 367.197 180.693C367.197 180.954 367.118 181.163 366.962 181.319C366.805 181.459 366.579 181.528 366.283 181.528H362.992V187.978C362.992 188.971 363.201 189.728 363.619 190.25C364.037 190.755 364.716 191.008 365.656 191.008C365.987 191.008 366.265 190.973 366.492 190.903C366.735 190.834 366.936 190.799 367.092 190.799C367.249 190.781 367.379 190.834 367.484 190.955C367.588 191.077 367.641 191.286 367.641 191.582C367.641 191.791 367.597 191.983 367.51 192.157C367.44 192.331 367.31 192.453 367.118 192.522C366.909 192.592 366.631 192.653 366.283 192.705C365.952 192.775 365.647 192.809 365.369 192.809ZM377.087 192.809C375.746 192.809 374.589 192.548 373.614 192.026C372.656 191.486 371.907 190.729 371.368 189.754C370.846 188.779 370.584 187.613 370.584 186.255C370.584 184.932 370.846 183.783 371.368 182.808C371.89 181.815 372.604 181.041 373.509 180.484C374.432 179.927 375.494 179.648 376.695 179.648C377.548 179.648 378.314 179.796 378.993 180.092C379.672 180.37 380.247 180.78 380.717 181.319C381.204 181.859 381.57 182.512 381.813 183.278C382.075 184.044 382.205 184.906 382.205 185.863C382.205 186.142 382.127 186.351 381.97 186.49C381.813 186.612 381.587 186.673 381.291 186.673H372.203V185.289H380.795L380.377 185.628C380.377 184.688 380.238 183.896 379.959 183.252C379.681 182.59 379.272 182.085 378.732 181.737C378.21 181.389 377.548 181.215 376.747 181.215C375.859 181.215 375.102 181.424 374.475 181.842C373.866 182.242 373.405 182.808 373.091 183.539C372.778 184.253 372.621 185.088 372.621 186.046V186.203C372.621 187.804 373.004 189.023 373.77 189.859C374.554 190.694 375.659 191.112 377.087 191.112C377.679 191.112 378.262 191.034 378.836 190.877C379.428 190.72 380.003 190.459 380.56 190.094C380.804 189.937 381.021 189.867 381.213 189.885C381.422 189.885 381.587 189.946 381.709 190.068C381.831 190.172 381.909 190.311 381.944 190.485C381.996 190.642 381.979 190.816 381.892 191.008C381.822 191.199 381.674 191.365 381.448 191.504C380.873 191.922 380.194 192.244 379.411 192.47C378.628 192.696 377.853 192.809 377.087 192.809ZM392.187 192.809C391.055 192.809 390.063 192.54 389.21 192C388.374 191.46 387.721 190.703 387.251 189.728C386.798 188.736 386.572 187.569 386.572 186.229C386.572 184.871 386.798 183.704 387.251 182.729C387.721 181.737 388.374 180.98 389.21 180.458C390.063 179.918 391.055 179.648 392.187 179.648C393.336 179.648 394.319 179.935 395.138 180.51C395.956 181.084 396.504 181.859 396.783 182.834H396.495V175.052C396.495 174.704 396.583 174.443 396.757 174.268C396.948 174.077 397.218 173.981 397.566 173.981C397.897 173.981 398.149 174.077 398.323 174.268C398.515 174.443 398.611 174.704 398.611 175.052V191.66C398.611 192.009 398.524 192.279 398.35 192.47C398.175 192.662 397.914 192.757 397.566 192.757C397.235 192.757 396.974 192.662 396.783 192.47C396.609 192.279 396.522 192.009 396.522 191.66V189.18L396.809 189.545C396.53 190.538 395.973 191.33 395.138 191.922C394.319 192.514 393.336 192.809 392.187 192.809ZM392.631 191.112C393.414 191.112 394.102 190.921 394.694 190.538C395.286 190.155 395.738 189.597 396.052 188.866C396.382 188.135 396.548 187.256 396.548 186.229C396.548 184.644 396.191 183.435 395.477 182.599C394.781 181.763 393.832 181.345 392.631 181.345C391.83 181.345 391.133 181.537 390.541 181.92C389.967 182.286 389.514 182.834 389.184 183.565C388.87 184.279 388.713 185.167 388.713 186.229C388.713 187.796 389.07 189.006 389.784 189.859C390.498 190.694 391.447 191.112 392.631 191.112Z" fill="#848E9B"/>
</svg>
