<svg width="28" height="28" viewBox="0 0 28 28" fill="none" xmlns="http://www.w3.org/2000/svg">
<g id="gridicons:add-outline">
<path id="Vector" d="M14 4.66683C19.1461 4.66683 23.3333 8.854 23.3333 14.0002C23.3333 19.1463 19.1461 23.3335 14 23.3335C8.85381 23.3335 4.66665 19.1463 4.66665 14.0002C4.66665 8.854 8.85381 4.66683 14 4.66683ZM14 2.3335C7.55648 2.3335 2.33331 7.55666 2.33331 14.0002C2.33331 20.4437 7.55648 25.6668 14 25.6668C20.4435 25.6668 25.6666 20.4437 25.6666 14.0002C25.6666 7.55666 20.4435 2.3335 14 2.3335ZM19.8333 12.8335H15.1666V8.16683H12.8333V12.8335H8.16665V15.1668H12.8333V19.8335H15.1666V15.1668H19.8333V12.8335Z" fill="white"/>
</g>
</svg>
