<svg width="271" height="438" viewBox="0 0 271 438" fill="none" xmlns="http://www.w3.org/2000/svg">
<path d="M226.294 148.14L202.536 144.615L205.837 119.836L229.606 123.304L226.294 148.14ZM203.779 143.633L225.359 146.834L228.385 124.344L206.795 121.142L203.779 143.633ZM230.08 110.995L208.346 107.771L211.493 84.3559L211.702 84.2172C217.459 80.511 222.934 76.3418 228.077 71.747C232.888 67.4887 237.074 62.5078 240.501 56.9654C243.74 51.6825 245.85 45.7246 246.685 39.5025C247.334 34.6832 246.806 30.7422 245.111 27.7605C243.417 24.7787 240.622 23.0567 236.759 22.4788C235.286 22.1736 233.77 22.1778 232.299 22.4913C230.828 22.8047 229.43 23.4211 228.187 24.3049C227.026 25.2494 226.063 26.4363 225.36 27.7909C224.658 29.1456 224.23 30.6384 224.104 32.1753C223.888 33.6825 223.851 35.2121 223.994 36.7288C224.137 38.2197 224.324 39.8262 224.555 41.5019L224.632 42.1145L201.931 43.8827L201.843 43.3858C201.372 40.9558 201.089 38.49 200.995 36.0123C200.91 33.6022 201.028 31.1889 201.347 28.8006C202.701 18.7343 206.784 11.0257 213.452 5.88277C220.121 0.739836 229.078 -1.05153 240.005 0.589591C251.164 2.24226 259.505 6.77267 264.82 14.0421C270.135 21.3116 272.039 30.9502 270.465 42.6692C269.556 49.9391 267.282 56.9472 263.775 63.2872C260.23 69.5058 255.748 75.0793 250.503 79.7908C244.873 84.8591 238.822 89.3883 232.423 93.3243L230.08 110.995ZM209.59 106.788L229.144 109.689L231.444 92.5615L231.675 92.4228C238.098 88.4888 244.168 83.9514 249.81 78.8662C254.962 74.2233 259.366 68.7361 262.85 62.6169C266.303 56.4211 268.548 49.5656 269.453 42.4496C270.982 31.0543 269.156 21.7161 264.028 14.7124C258.9 7.7088 250.823 3.31708 239.928 1.69908C229.298 0.127303 220.627 1.83776 214.178 6.78423C207.73 11.7307 203.746 19.1619 202.437 28.9046C202.126 31.224 202.012 33.5677 202.096 35.9083C202.18 38.1546 202.423 40.3912 202.822 42.5999L223.378 40.9934C223.191 39.5257 223.026 38.1157 222.894 36.7866C222.744 35.1773 222.784 33.5546 223.015 31.9557C223.159 30.2665 223.636 28.627 224.414 27.141C225.193 25.655 226.256 24.3548 227.538 23.3225C228.893 22.346 230.42 21.6622 232.03 21.311C233.639 20.9598 235.299 20.9482 236.913 21.2769C241.128 21.901 244.198 23.8657 246.047 27.0555C247.895 30.2453 248.457 34.4636 247.774 39.5488C246.926 45.9524 244.759 52.085 241.425 57.5202C237.94 63.1535 233.684 68.2161 228.792 72.5445C223.669 77.1146 218.225 81.2717 212.506 84.98L209.59 106.788Z" fill="#263238"/>
<path d="M87.7832 204.77C87.7832 204.77 17.1468 205.753 14.946 211.034C12.7451 216.316 2.69825 280.285 2.071 302.336C1.44376 324.387 1.13564 338.938 3.32549 341.573C5.51533 344.208 39.7496 364.987 39.7496 364.987C39.7496 364.987 23.7384 424.01 28.7453 425.998C33.7523 427.985 64.5422 436.214 84.3168 436.549C104.091 436.884 123.569 436.873 125.143 436.873C126.716 436.873 177.259 438.849 194.844 434.561C212.428 430.274 217.754 429.939 217.754 422.692C217.754 415.446 213.353 406.512 213.045 404.894C212.736 403.276 224.984 278.262 218.074 247.601C211.163 216.94 202.062 205.059 195.152 203.083C188.241 201.107 138.953 202.424 138.953 202.424L87.7832 204.77Z" fill="#2BC780"/>
<path d="M152.246 437.971C144.543 437.971 135.948 437.844 126.683 437.566H125.153C121.632 437.566 103.145 437.566 84.3274 437.243C64.2226 436.907 33.4547 428.575 28.5688 426.645C27.4684 426.229 24.9704 425.235 31.8701 394.735C34.8852 381.306 38.4726 367.934 39.1329 365.38C35.2264 363.011 5.07471 344.635 2.95088 342.069C0.628986 339.284 0.893083 325.889 1.55334 302.44C2.19159 280.1 12.4035 215.865 14.4723 210.884C16.6732 205.533 75.9311 204.435 87.8047 204.273L138.975 201.962C140.999 201.904 188.494 200.668 195.338 202.644C199.586 203.8 210.337 210.665 218.656 247.578C224.346 272.842 217.193 360.538 214.497 393.545C213.98 399.89 213.605 404.478 213.638 404.929C213.886 405.733 214.172 406.524 214.497 407.298C215.839 410.765 218.348 417.283 218.348 422.808C218.348 429.742 213.87 430.759 200.554 433.914L195.052 435.243C187.459 437.069 172.615 437.971 152.246 437.971ZM170.238 202.644C155.283 202.644 139.261 203.06 138.975 203.071L87.8047 205.383C60.6242 205.764 16.9593 207.694 15.4627 211.3C13.4049 216.235 3.27 280.169 2.63175 302.428C2.08154 321.879 1.59735 338.683 3.73218 341.272C5.48185 343.375 30.5165 358.793 40.0462 364.56C40.1522 364.624 40.2347 364.724 40.2806 364.843C40.3264 364.963 40.333 365.095 40.2993 365.218C32.4753 393.984 26.1038 424.356 28.9539 425.512C33.8068 427.419 64.3656 435.694 84.3384 436.029C103.167 436.341 121.632 436.353 125.153 436.353H126.716C160.29 437.347 184.444 436.526 194.722 434.041C196.736 433.544 198.585 433.117 200.279 432.712C213.286 429.626 217.215 428.69 217.215 422.727C217.215 417.434 214.761 411.066 213.44 407.645C213.081 406.795 212.773 405.923 212.516 405.033C212.461 404.698 212.615 402.664 213.374 393.36C216.059 360.399 223.201 272.854 217.545 247.74C209.369 211.427 199.069 204.817 195.019 203.649C192.125 202.887 181.484 202.644 170.238 202.644Z" fill="#263238"/>
<path d="M118.067 235.789C117.959 235.791 117.853 235.759 117.763 235.697C117.673 235.636 117.602 235.547 117.561 235.443C117.531 235.373 117.516 235.298 117.514 235.221C117.513 235.145 117.526 235.07 117.552 234.999C117.579 234.928 117.619 234.863 117.669 234.808C117.72 234.754 117.78 234.71 117.847 234.68C120.349 233.557 122.782 232.272 125.131 230.831C125.194 230.793 125.264 230.769 125.336 230.759C125.407 230.749 125.48 230.754 125.55 230.774C125.62 230.794 125.686 230.828 125.744 230.875C125.801 230.921 125.849 230.979 125.885 231.045C125.921 231.111 125.945 231.184 125.954 231.259C125.963 231.335 125.958 231.412 125.94 231.485C125.921 231.559 125.888 231.628 125.844 231.688C125.8 231.748 125.745 231.799 125.682 231.837C123.293 233.299 120.819 234.604 118.276 235.743C118.21 235.775 118.139 235.791 118.067 235.789Z" fill="#263238"/>
<path d="M128.73 229.756C128.639 229.755 128.55 229.732 128.47 229.688C128.389 229.643 128.32 229.58 128.268 229.502C128.189 229.373 128.163 229.217 128.193 229.067C128.224 228.918 128.311 228.787 128.433 228.705C137.18 222.585 144.86 214.931 151.135 206.076C151.176 206.013 151.23 205.96 151.291 205.919C151.352 205.878 151.421 205.851 151.492 205.838C151.564 205.825 151.637 205.827 151.708 205.844C151.779 205.861 151.846 205.893 151.905 205.937C151.964 205.98 152.015 206.034 152.053 206.098C152.092 206.161 152.118 206.232 152.131 206.306C152.143 206.381 152.141 206.457 152.125 206.53C152.109 206.604 152.079 206.673 152.037 206.734C145.678 215.705 137.898 223.461 129.038 229.664C128.947 229.727 128.839 229.76 128.73 229.756Z" fill="#263238"/>
<path d="M135.201 232.993C135.102 232.992 135.005 232.964 134.92 232.911C134.835 232.858 134.765 232.783 134.717 232.692C134.682 232.626 134.66 232.552 134.652 232.477C134.644 232.401 134.651 232.324 134.671 232.251C134.692 232.178 134.726 232.11 134.771 232.051C134.817 231.992 134.873 231.943 134.937 231.906C140.439 228.809 146.876 219.367 146.942 219.274C146.981 219.206 147.033 219.146 147.095 219.099C147.157 219.053 147.228 219.02 147.302 219.003C147.377 218.987 147.454 218.987 147.529 219.003C147.604 219.02 147.674 219.052 147.736 219.099C147.798 219.146 147.85 219.205 147.889 219.274C147.928 219.343 147.953 219.42 147.962 219.499C147.971 219.579 147.964 219.66 147.942 219.736C147.92 219.813 147.883 219.884 147.834 219.945C147.57 220.338 141.231 229.699 135.454 232.923C135.377 232.969 135.289 232.993 135.201 232.993Z" fill="#263238"/>
<path d="M102.507 325.844C102.391 325.842 102.278 325.802 102.186 325.73C102.093 325.657 102.024 325.555 101.989 325.439L100.141 319.407C100.117 319.334 100.107 319.258 100.112 319.182C100.117 319.106 100.136 319.032 100.169 318.964C100.202 318.896 100.248 318.835 100.303 318.786C100.359 318.737 100.423 318.701 100.493 318.678C100.631 318.631 100.782 318.643 100.912 318.713C101.042 318.782 101.141 318.903 101.186 319.048L103.035 325.081C103.08 325.227 103.068 325.385 103.002 325.522C102.936 325.658 102.821 325.762 102.683 325.809C102.626 325.832 102.567 325.844 102.507 325.844Z" fill="#263238"/>
<path d="M112.587 358.711C112.471 358.711 112.358 358.672 112.265 358.599C112.171 358.526 112.103 358.423 112.07 358.307L103.883 331.621C103.837 331.468 103.852 331.302 103.923 331.16C103.994 331.018 104.116 330.912 104.262 330.864C104.408 330.817 104.566 330.832 104.701 330.907C104.836 330.981 104.938 331.11 104.983 331.263L113.17 357.96C113.212 358.105 113.199 358.263 113.134 358.398C113.068 358.534 112.955 358.638 112.818 358.688L112.587 358.711Z" fill="#263238"/>
<path d="M115.107 359.371C115.001 359.376 114.896 359.343 114.81 359.278C114.748 359.238 114.695 359.186 114.653 359.124C114.611 359.062 114.581 358.992 114.564 358.918C114.548 358.844 114.546 358.767 114.558 358.692C114.57 358.617 114.595 358.545 114.634 358.481L122.799 344.971C122.836 344.905 122.886 344.848 122.944 344.802C123.003 344.757 123.07 344.725 123.141 344.708C123.212 344.69 123.286 344.688 123.357 344.702C123.429 344.715 123.497 344.744 123.558 344.786C123.68 344.869 123.767 344.998 123.8 345.147C123.833 345.296 123.809 345.452 123.734 345.583L115.569 359.105C115.519 359.186 115.45 359.252 115.37 359.298C115.289 359.345 115.199 359.37 115.107 359.371Z" fill="#263238"/>
<path d="M133.627 351.453C133.519 351.457 133.413 351.428 133.322 351.368C133.231 351.308 133.159 351.221 133.115 351.118C133.071 351.015 133.058 350.9 133.077 350.789C133.095 350.678 133.145 350.575 133.22 350.494L153.027 327.079C153.125 326.964 153.262 326.895 153.409 326.886C153.555 326.878 153.699 326.93 153.809 327.033C153.918 327.136 153.984 327.28 153.992 327.434C154.001 327.588 153.95 327.739 153.853 327.854L134.045 351.268C133.992 351.329 133.927 351.377 133.855 351.409C133.783 351.441 133.705 351.456 133.627 351.453Z" fill="#263238"/>
<path d="M125.154 437.52H125L82.3803 424.472C82.3109 424.451 82.2462 424.415 82.1899 424.368C82.1335 424.32 82.0867 424.262 82.0519 424.195C82.0172 424.129 81.9952 424.055 81.9874 423.98C81.9795 423.905 81.9859 423.828 82.0061 423.755C82.0251 423.682 82.0579 423.613 82.1029 423.553C82.1478 423.493 82.2038 423.443 82.2675 423.406C82.3312 423.369 82.4014 423.347 82.4737 423.339C82.546 423.332 82.6191 423.34 82.6884 423.362L125.297 436.387C125.443 436.409 125.575 436.49 125.663 436.614C125.752 436.737 125.79 436.893 125.77 437.046C125.75 437.199 125.672 437.338 125.554 437.431C125.437 437.524 125.289 437.565 125.143 437.543L125.154 437.52Z" fill="#263238"/>
<path d="M77.5161 422.946H77.3621L70.0553 420.704C69.9093 420.661 69.7856 420.559 69.7113 420.42C69.637 420.282 69.6182 420.118 69.6591 419.964C69.7 419.811 69.7971 419.681 69.9292 419.603C70.0613 419.525 70.2174 419.505 70.3634 419.548L77.6702 421.79C77.7396 421.812 77.8043 421.847 77.8606 421.895C77.917 421.942 77.9638 422.001 77.9986 422.067C78.0333 422.134 78.0552 422.207 78.0631 422.282C78.0709 422.358 78.0646 422.434 78.0443 422.507C78.0151 422.631 77.9473 422.742 77.8517 422.821C77.7561 422.901 77.6381 422.945 77.5161 422.946Z" fill="#263238"/>
<path d="M87.3431 58.1446C87.3431 58.1446 65.1695 52.7936 60.9328 58.7802C56.6962 64.7668 65.1365 70.4299 63.937 71.6896C62.7376 72.9493 36.9546 86.7948 39.0454 100.34C41.1362 113.885 58.5339 127.73 59.1392 131.544C59.7444 135.358 39.0454 136.583 36.3493 142.246C33.6533 147.909 29.7468 174.675 52.2395 183.494C74.7322 192.312 102.859 177.507 110.694 177.507C118.529 177.507 126.287 193.571 135.278 192.624C140.755 191.965 145.791 189.153 149.374 184.753C149.374 184.753 158.662 198.298 172.153 192.624C185.644 186.949 201.237 167.117 194.646 161.142C188.054 155.167 180.549 153.272 185.347 147.921C190.145 142.57 200.038 128.401 198.552 116.115C197.067 103.83 183.256 102.894 177.864 99.1147C172.472 95.3355 183.861 89.0369 183.564 78.647C183.267 68.2571 176.059 50.9098 139.492 39.3526C102.925 27.7955 84.9331 33.366 83.1284 43.1318C82.5644 45.8043 82.6552 48.5834 83.3923 51.2091C84.1294 53.8347 85.4887 56.2209 87.3431 58.1446Z" fill="#263238"/>
<path d="M165.638 194.542C157.066 194.542 151.014 187.689 149.396 185.632C145.757 189.873 140.767 192.57 135.366 193.213C130.359 193.745 125.825 189.365 121.456 185.123C117.715 181.494 114.171 178.073 110.727 178.073C108.625 178.073 104.851 179.229 100.075 180.708C87.4751 184.58 68.4267 190.428 52.0854 184.025C44.2724 180.963 38.8803 175.519 35.9752 167.845C32.1237 157.536 34.0164 145.887 35.8871 141.98C37.4277 138.756 43.9863 136.953 49.7745 135.37C53.8131 134.214 58.831 132.885 58.5779 131.625C58.3248 130.366 56.0909 127.869 53.4169 124.841C48.0358 118.727 39.8927 109.493 38.4951 100.456C36.6574 88.6095 54.7264 77.0061 61.5381 72.6375C62.4844 72.025 63.3868 71.4818 63.5298 71.2969C63.1724 70.6632 62.7676 70.0604 62.3194 69.494C60.4927 66.9976 57.4335 62.8024 60.4817 58.4569C64.1791 53.1868 80.2893 56.1454 85.7034 57.2203C84.208 55.238 83.1541 52.9293 82.619 50.4634C82.084 47.9976 82.0813 45.4373 82.6112 42.9703C82.9405 41.4832 83.5683 40.0871 84.4526 38.8753C85.337 37.6635 86.4575 36.6639 87.7392 35.9435C96.9057 30.1649 115.844 31.1589 139.668 38.7519C177.699 50.8638 183.85 68.9392 184.136 78.6472C184.28 83.8711 181.617 88.0432 179.471 91.3601C178.007 93.6715 176.753 95.6131 177.017 97.0347C177.101 97.3669 177.249 97.6776 177.451 97.9479C177.654 98.2181 177.907 98.4422 178.194 98.6064C180.031 99.7207 181.975 100.627 183.993 101.311C190.233 103.738 197.991 106.766 199.113 116.023C200.588 128.1 191.41 141.992 185.776 148.291C185.361 148.652 185.025 149.104 184.791 149.614C184.557 150.125 184.432 150.683 184.423 151.249C184.599 152.937 186.766 154.474 189.518 156.404C191.431 157.712 193.269 159.14 195.02 160.68C195.766 161.424 196.309 162.363 196.596 163.401C196.882 164.439 196.9 165.538 196.648 166.586C195.262 175.277 183.014 188.671 172.384 193.167C170.239 194.071 167.95 194.538 165.638 194.542ZM149.407 184.141C149.492 184.142 149.575 184.165 149.65 184.207C149.725 184.249 149.788 184.31 149.836 184.384C149.935 184.511 159.047 197.489 171.977 192.058C182.321 187.712 194.227 174.722 195.559 166.389C195.9 164.24 195.482 162.61 194.304 161.547C192.584 160.048 190.78 158.658 188.901 157.386C185.919 155.283 183.564 153.619 183.322 151.411C183.311 150.674 183.454 149.943 183.741 149.27C184.028 148.597 184.452 147.998 184.984 147.516C190.112 141.738 199.454 127.869 198.024 116.185C196.978 107.633 189.562 104.743 183.608 102.42C181.509 101.707 179.488 100.762 177.578 99.6004C177.17 99.351 176.815 99.0177 176.533 98.6205C176.252 98.2233 176.049 97.7704 175.938 97.2889C175.586 95.4051 176.896 93.3479 178.557 90.7476C180.615 87.5347 183.168 83.5359 183.036 78.6819C182.761 69.2859 176.731 51.7653 139.349 39.8614C115.822 32.3608 97.2139 31.2975 88.3114 36.9374C87.1622 37.5749 86.1556 38.4622 85.3587 39.5403C84.5617 40.6185 83.9927 41.8626 83.6896 43.1899C83.1367 45.7759 83.215 48.4668 83.9172 51.0126C84.6194 53.5585 85.9227 55.8766 87.7062 57.7519C87.7976 57.8388 87.8598 57.9543 87.8836 58.0814C87.9074 58.2084 87.8915 58.3401 87.8382 58.4569C87.7824 58.5722 87.6913 58.6645 87.5796 58.7189C87.4678 58.7734 87.3419 58.787 87.222 58.7574C81.1476 57.2896 64.6743 54.5159 61.406 59.1619C58.853 62.8139 61.406 66.2811 63.2327 68.8236C64.3331 70.2914 65.0924 71.3662 64.3331 72.1406C63.6362 72.7017 62.9005 73.2077 62.1323 73.6545C56.135 77.5031 37.9229 89.2105 39.6066 100.294C40.9491 108.985 48.9492 118.069 54.2532 124.078C57.3895 127.638 59.4583 129.984 59.6893 131.463C60.0525 133.775 55.8489 134.931 50.0386 136.514C44.7456 137.959 38.165 139.761 36.8335 142.524C35.0948 146.176 33.2681 157.606 36.9545 167.441C38.2978 171.058 40.3791 174.322 43.0521 177.003C45.7251 179.685 48.9249 181.719 52.4265 182.962C68.4267 189.238 87.255 183.448 99.7448 179.622C104.609 178.131 108.438 176.941 110.749 176.941C114.623 176.941 118.32 180.512 122.227 184.291C126.419 188.348 130.755 192.531 135.278 192.058C140.599 191.402 145.493 188.671 148.989 184.407C149.035 184.332 149.097 184.27 149.169 184.224C149.241 184.178 149.323 184.149 149.407 184.141Z" fill="#263238"/>
<path d="M91.3378 159.165C91.3378 159.165 83.8439 208.283 83.5468 209.855C83.2497 211.426 96.7519 225.595 115.019 223.076C125.719 221.725 135.554 216.227 142.596 207.659L136.906 158.853C136.906 158.853 121.313 166.723 111.718 166.411C102.122 166.099 91.3378 159.165 91.3378 159.165Z" fill="white"/>
<path d="M110.705 223.955C100.887 223.787 91.5098 219.647 84.5259 212.398C82.8422 210.514 82.9633 209.913 83.0073 209.682C83.2934 208.145 90.7103 159.513 90.7873 159.016C90.8032 158.922 90.8405 158.834 90.8958 158.759C90.9511 158.684 91.0228 158.624 91.105 158.584C91.1871 158.545 91.2771 158.526 91.3674 158.531C91.4577 158.536 91.5456 158.563 91.6236 158.611C91.7337 158.681 102.408 165.465 111.739 165.777C121.071 166.089 136.51 158.357 136.664 158.276C136.742 158.234 136.829 158.211 136.917 158.211C137.005 158.211 137.092 158.234 137.17 158.276C137.245 158.322 137.309 158.385 137.357 158.462C137.405 158.538 137.435 158.625 137.445 158.715L143.146 207.51C143.155 207.585 143.15 207.662 143.131 207.735C143.112 207.808 143.08 207.877 143.036 207.937C135.879 216.594 125.928 222.168 115.096 223.586C113.641 223.81 112.175 223.934 110.705 223.955ZM91.7557 160.091C90.7323 166.782 84.3608 208.503 84.0527 209.971C84.2838 211.404 97.0707 224.996 114.865 222.511C125.327 221.124 134.95 215.783 141.935 207.486L136.455 159.698C133.286 161.235 120.29 167.256 111.706 166.979C103.376 166.713 94.3197 161.639 91.7557 160.091Z" fill="#263238"/>
<path d="M88.2571 185.516L119.828 179.102L91.3383 159.166L88.2571 185.516Z" fill="#263238"/>
<path d="M88.2567 186.094C88.1193 186.09 87.9874 186.037 87.8825 185.943C87.8209 185.879 87.774 185.801 87.7454 185.715C87.7168 185.629 87.7073 185.537 87.7175 185.446L90.7876 159.096C90.7989 158.998 90.8343 158.905 90.8902 158.826C90.9462 158.747 91.0208 158.685 91.1068 158.645C91.19 158.6 91.2825 158.576 91.3764 158.576C91.4702 158.576 91.5627 158.6 91.646 158.645L120.125 178.593C120.217 178.654 120.29 178.743 120.333 178.848C120.376 178.953 120.388 179.07 120.367 179.182C120.345 179.295 120.291 179.398 120.213 179.478C120.134 179.559 120.035 179.613 119.927 179.633L88.3667 186.047L88.2567 186.094ZM91.778 160.171L88.8949 184.799L118.397 178.801L91.778 160.171Z" fill="#263238"/>
<path d="M74.6774 115.861C74.6774 115.861 69.3953 108.835 66.9744 117.71C64.5534 126.586 75.0735 137.358 75.0735 137.358L74.6774 115.861Z" fill="white"/>
<path d="M75.0297 137.889C74.8994 137.883 74.7752 137.83 74.6775 137.739C74.2374 137.288 63.9044 126.667 66.4353 117.56C67.2386 114.671 68.4491 113.041 70.0337 112.718C72.6087 112.198 75.0407 115.376 75.1397 115.514C75.2166 115.612 75.2593 115.734 75.2608 115.861L75.6129 137.311C75.6127 137.425 75.5815 137.537 75.523 137.633C75.4646 137.729 75.3812 137.806 75.2828 137.854C75.2005 137.879 75.1152 137.891 75.0297 137.889ZM70.628 113.804C70.5035 113.792 70.3783 113.792 70.2538 113.804C69.1534 114.035 68.174 115.434 67.5027 117.837C65.599 124.702 71.9925 132.931 74.5015 135.809L74.1713 116.035C73.5001 115.295 71.9815 113.804 70.5839 113.804H70.628Z" fill="#263238"/>
<path d="M150.354 115.861C150.354 115.861 155.636 108.835 158.057 117.71C160.478 126.586 149.958 137.358 149.958 137.358L150.354 115.861Z" fill="white"/>
<path d="M150.001 137.889C149.928 137.901 149.854 137.901 149.781 137.889C149.68 137.845 149.594 137.769 149.535 137.672C149.476 137.575 149.447 137.461 149.451 137.346L149.803 115.896C149.806 115.771 149.844 115.651 149.913 115.549C150.023 115.41 152.466 112.221 155.019 112.752C156.615 113.076 157.825 114.705 158.629 117.595C161.149 126.702 150.816 137.323 150.375 137.774C150.269 137.86 150.135 137.901 150.001 137.889ZM150.893 116.069L150.606 135.844C153.104 132.966 159.509 124.737 157.605 117.872C156.934 115.468 155.977 114.07 154.843 113.839C153.325 113.538 151.586 115.226 150.893 116.069Z" fill="#263238"/>
<path d="M91.2718 71.4591C91.2718 71.4591 76.1519 86.888 73.9621 91.5108C71.7722 96.1337 72.6526 148.811 75.0625 153.919C77.4724 159.028 101.572 178.779 105.511 180.385C109.451 181.992 118.441 183.61 125.451 179.923C132.461 176.236 149.33 157.375 151.091 152.544C152.852 147.713 150.651 92.447 149.55 87.1884C148.45 81.9299 121.996 62.9415 110.771 62.0285C99.547 61.1155 91.2718 71.4591 91.2718 71.4591Z" fill="white"/>
<path d="M115.392 182.651C111.947 182.67 108.525 182.06 105.28 180.848C101.043 179.114 76.9766 159.224 74.5336 154.104C72.0907 148.985 71.1443 96.0297 73.4332 91.2219C75.6341 86.599 89.9396 71.933 90.8309 71.0662C91.3811 70.3843 99.6343 60.5261 110.782 61.4507C121.665 62.3521 148.823 81.0054 150.056 86.9804C151.079 91.95 153.357 147.713 151.563 152.671C149.682 157.872 132.603 176.722 125.659 180.409C122.446 181.972 118.933 182.739 115.392 182.651ZM109.34 62.5486C99.2602 62.5486 91.7333 71.7365 91.6562 71.7943C91.5022 71.9446 76.5804 87.2 74.4566 91.6611C72.3328 96.1221 73.2681 148.707 75.557 153.503C77.8459 158.3 101.703 178.039 105.72 179.68C109.945 181.402 118.617 182.708 125.219 179.241C132.295 175.531 148.966 156.635 150.584 152.174C152.356 147.297 150.045 92.0771 149.021 87.1538C147.998 82.2304 121.775 63.5078 110.727 62.6179C110.275 62.6179 109.824 62.5486 109.373 62.5486H109.34Z" fill="#263238"/>
<path d="M103.156 62.028C103.156 62.028 125.802 83.7324 142.089 84.5645L158.386 85.3966C158.386 85.3966 122.622 80.3924 111.497 54.9435C111.497 54.9435 99.183 44.126 103.156 62.028Z" fill="#263238"/>
<path d="M158.387 85.9742L142.1 85.142C125.803 84.3099 103.751 63.3568 102.815 62.4553C102.736 62.3771 102.678 62.277 102.65 62.1664C101.341 56.2491 101.627 52.782 103.531 51.5569C106.348 49.7425 111.333 54.007 111.883 54.4924C111.949 54.5481 112.002 54.6194 112.037 54.7005C122.909 79.5715 158.134 84.7491 158.486 84.83C158.628 84.8475 158.758 84.9224 158.848 85.0389C158.939 85.1554 158.982 85.3043 158.97 85.4541C158.953 85.6022 158.884 85.7382 158.776 85.8347C158.668 85.9312 158.529 85.981 158.387 85.9742ZM103.652 61.7041C105.5 63.4377 126.838 83.1773 142.166 83.9632L151.366 84.4371C140.362 81.5247 119.223 73.7004 111.101 55.2783C109.671 54.0417 105.896 51.372 104.114 52.5162C103.101 53.1634 102.254 55.2668 103.652 61.7272V61.7041Z" fill="#263238"/>
<path d="M117.594 128.874C117.455 128.875 117.321 128.82 117.219 128.722C117.117 128.623 117.055 128.488 117.043 128.343L115.294 105.101C115.288 105.026 115.296 104.949 115.319 104.877C115.341 104.804 115.377 104.737 115.424 104.679C115.471 104.621 115.528 104.574 115.593 104.539C115.657 104.504 115.728 104.483 115.8 104.477C115.872 104.471 115.945 104.48 116.014 104.504C116.083 104.527 116.147 104.565 116.202 104.614C116.257 104.663 116.302 104.724 116.335 104.791C116.368 104.859 116.388 104.933 116.394 105.009L118.144 128.25C118.15 128.326 118.142 128.403 118.119 128.475C118.097 128.548 118.061 128.615 118.014 128.673C117.967 128.731 117.91 128.779 117.845 128.813C117.781 128.848 117.71 128.869 117.638 128.874H117.594Z" fill="#263238"/>
<path d="M112.52 139.924C109.461 139.924 106.534 136.457 106.413 136.272C106.362 136.215 106.322 136.149 106.295 136.076C106.269 136.003 106.257 135.925 106.26 135.847C106.263 135.769 106.281 135.693 106.313 135.622C106.345 135.552 106.391 135.489 106.446 135.438C106.502 135.386 106.567 135.347 106.638 135.323C106.708 135.298 106.783 135.289 106.857 135.296C106.931 135.302 107.003 135.325 107.068 135.361C107.134 135.398 107.192 135.448 107.238 135.509C107.238 135.509 109.967 138.768 112.52 138.768C114.622 138.768 117.802 134.469 118.859 132.816C118.898 132.752 118.949 132.697 119.008 132.654C119.068 132.611 119.135 132.581 119.206 132.566C119.277 132.551 119.35 132.551 119.421 132.566C119.491 132.581 119.559 132.611 119.618 132.654C119.739 132.739 119.823 132.87 119.851 133.02C119.88 133.169 119.852 133.324 119.772 133.452C119.354 134.11 115.58 139.924 112.52 139.924Z" fill="#263238"/>
<path d="M109.044 150.579C108.372 150.579 107.69 150.579 107.008 150.509C100.229 150.035 95.1781 141.391 94.9581 141.021C94.9205 140.955 94.8955 140.883 94.8846 140.808C94.8737 140.732 94.877 140.655 94.8944 140.581C94.9117 140.507 94.9428 140.438 94.9858 140.376C95.0289 140.315 95.083 140.263 95.1451 140.223C95.2073 140.184 95.2762 140.158 95.348 140.146C95.4198 140.135 95.493 140.138 95.5635 140.156C95.634 140.175 95.7004 140.207 95.7589 140.252C95.8174 140.298 95.8669 140.355 95.9044 140.42C95.9044 140.512 100.878 148.914 107.085 149.353C111.599 149.514 116.111 148.977 120.477 147.759C120.623 147.716 120.779 147.735 120.911 147.813C121.043 147.891 121.14 148.021 121.181 148.175C121.222 148.328 121.203 148.492 121.129 148.631C121.055 148.769 120.931 148.871 120.785 148.914C116.949 149.963 113.007 150.522 109.044 150.579Z" fill="#263238"/>
<path d="M118.441 101.38C118.441 101.38 126.144 95.3937 129.17 93.2903C132.196 91.1869 142.1 95.1279 142.1 95.1279C142.1 95.1279 134.65 90.7593 130.71 90.0658C126.771 89.3724 118.661 95.359 118.001 98.1558C117.34 100.953 115.393 100.225 118.441 101.38Z" fill="#263238"/>
<path d="M118.441 101.912C118.379 101.923 118.316 101.923 118.254 101.912C116.801 101.368 116.372 101.207 116.24 100.756C116.216 100.576 116.236 100.393 116.297 100.223C116.359 100.053 116.46 99.9025 116.592 99.7851C117.023 99.3012 117.327 98.7077 117.473 98.0631C118.188 95.0467 126.496 88.8174 130.799 89.5802C134.793 90.2736 142.067 94.5266 142.375 94.7C142.495 94.773 142.586 94.8902 142.628 95.029C142.671 95.1677 142.663 95.3181 142.606 95.4512C142.548 95.5841 142.445 95.689 142.316 95.7447C142.187 95.8005 142.043 95.803 141.913 95.7517C139.239 94.6884 131.8 92.2845 129.478 93.8563C126.452 95.8904 118.848 101.831 118.771 101.889C118.665 101.927 118.551 101.935 118.441 101.912ZM117.506 100.351L118.353 100.687C119.662 99.658 126.133 94.6422 128.873 92.7931C130.447 91.7298 133.451 92.0418 136.224 92.6775C134.439 91.766 132.559 91.0756 130.623 90.6203C126.98 89.9962 119.123 95.7979 118.518 98.248C118.362 99.0439 118.013 99.7841 117.506 100.398V100.351Z" fill="#263238"/>
<path d="M102.661 102.478C102.258 101.476 101.59 100.616 100.735 100.001C99.8809 99.3867 98.8761 99.0429 97.8408 99.011C94.1214 98.7798 77.681 103.391 80.5311 103.391C83.3812 103.391 95.2108 103.16 98.281 103.16C99.7702 103.257 101.262 103.025 102.661 102.478Z" fill="#263238"/>
<path d="M80.5318 103.98C80.3784 104.002 80.2221 103.98 80.0803 103.914C79.9384 103.849 79.8166 103.744 79.7285 103.61C79.6774 103.513 79.6506 103.403 79.6506 103.292C79.6506 103.181 79.6774 103.072 79.7285 102.974C80.3997 101.819 94.8043 98.2475 97.8525 98.444C98.9952 98.4762 100.105 98.8558 101.046 99.5368C101.987 100.218 102.721 101.171 103.157 102.281C103.201 102.414 103.199 102.559 103.151 102.691C103.102 102.822 103.011 102.931 102.892 102.997C101.414 103.581 99.8367 103.836 98.2596 103.749C96.697 103.749 92.8675 103.749 89.1041 103.864C85.3406 103.98 81.9293 103.98 80.5318 103.98ZM97.5223 99.5997C94.7493 99.5997 87.0243 101.553 83.0297 102.801L89.1151 102.709C92.8785 102.651 96.719 102.593 98.2816 102.593C99.5019 102.621 100.72 102.473 101.902 102.154C101.483 101.392 100.885 100.757 100.164 100.309C99.4426 99.8616 98.6238 99.6173 97.7864 99.5997H97.5223Z" fill="#263238"/>
<path d="M140.351 115.641C137.044 116.429 133.662 116.817 130.271 116.797C125.869 116.566 121.941 115.179 123.668 117.248C125.396 119.317 128.928 121.166 134.397 120.01C139.867 118.854 141.88 117.71 140.351 115.641Z" fill="#263238"/>
<path d="M100.691 115.641C97.3841 116.429 94.0022 116.817 90.6112 116.797C86.2095 116.566 82.292 115.179 84.0087 117.248C85.7253 119.317 89.2687 121.166 94.7488 120.01C100.229 118.854 102.188 117.71 100.691 115.641Z" fill="#263238"/>
<path d="M27.7767 248.272C27.7767 248.272 34.3793 210.134 37.3724 206.401C40.3656 202.668 73.0482 174.595 74.8419 172.712C76.6356 170.828 89.5326 150.349 90.1379 152.868C90.7431 155.387 88.6413 166.413 84.7348 172.388C80.8283 178.363 75.4472 185.621 75.4472 185.621C75.4472 185.621 95.585 190.972 96.6854 192.232C97.7858 193.491 104.718 209.163 105.082 211.116C105.72 214.491 104.796 218.108 102.088 218.362C99.6235 218.582 83.5023 209.856 83.5023 209.856L70.6493 211.705C70.6493 211.705 61.3617 223.667 55.0563 225.875C52.2284 226.961 49.321 227.803 46.3629 228.394L46.671 251.693L27.7767 248.272Z" fill="white"/>
<path d="M46.6711 252.316H46.5721L27.6888 248.849C27.5423 248.821 27.412 248.734 27.3257 248.606C27.2462 248.48 27.2148 248.328 27.2376 248.179C27.5127 246.619 33.8952 209.89 36.9544 206.041C38.9572 203.51 53.5488 190.728 64.2009 181.401C69.593 176.675 73.8627 172.942 74.4569 172.306C75.0511 171.67 76.7348 169.197 78.7485 166.25C86.5836 154.785 88.9055 151.873 90.0609 152.104C90.2098 152.137 90.3463 152.214 90.4538 152.327C90.5613 152.44 90.6351 152.583 90.6662 152.74C91.3154 155.467 89.1476 166.666 85.164 172.734C81.9948 177.576 77.8132 183.32 76.3606 185.285C81.0484 186.544 95.9262 190.613 97.0926 191.826C98.2591 193.04 105.247 208.965 105.632 211.022C105.89 212.103 105.94 213.227 105.78 214.329C105.619 215.43 105.251 216.487 104.697 217.437C104.398 217.865 104.015 218.221 103.575 218.482C103.135 218.743 102.647 218.903 102.144 218.951C99.6346 219.182 85.6372 211.693 83.4364 210.468L70.9355 212.282C69.7141 213.842 61.2628 224.359 55.2325 226.463C52.5167 227.471 49.7414 228.294 46.9242 228.924L47.2214 251.727C47.2201 251.812 47.2019 251.897 47.1677 251.974C47.1336 252.052 47.0844 252.121 47.0233 252.177C46.9229 252.262 46.7996 252.31 46.6711 252.316ZM28.4591 247.797L46.0659 250.999L45.7688 228.393C45.7702 228.252 45.8198 228.116 45.9087 228.009C45.9975 227.903 46.1197 227.834 46.253 227.815C49.1775 227.229 52.0517 226.394 54.8473 225.319C60.9106 223.192 70.0882 211.45 70.1762 211.334C70.2656 211.222 70.3908 211.149 70.5284 211.126L83.4804 209.289C83.5899 209.267 83.7032 209.288 83.7995 209.347C89.9839 212.687 100.438 217.957 102.089 217.783C102.439 217.751 102.779 217.639 103.085 217.455C103.391 217.272 103.655 217.021 103.86 216.72C104.322 215.901 104.625 214.995 104.751 214.053C104.878 213.111 104.826 212.151 104.598 211.23C104.201 209.15 97.3457 193.675 96.3554 192.635C95.42 191.768 82.9522 188.209 75.3262 186.175C75.2381 186.151 75.157 186.104 75.0902 186.039C75.0234 185.974 74.9731 185.893 74.9436 185.802C74.9142 185.712 74.9066 185.615 74.9215 185.52C74.9364 185.426 74.9734 185.337 75.0291 185.262C75.0291 185.181 80.4542 177.957 84.2947 172.063C88.1352 166.169 89.9399 156.265 89.6758 153.398C88.0031 154.693 82.6331 162.563 79.6509 166.92C77.5271 170.029 75.8544 172.479 75.2492 173.115C74.644 173.751 70.5394 177.345 64.9162 182.28C54.8913 191.052 39.7495 204.319 37.8017 206.769C35.4578 209.716 30.3298 236.841 28.4591 247.797Z" fill="#263238"/>
<path d="M105.126 211.705C105.036 211.707 104.947 211.685 104.868 211.64C104.789 211.596 104.722 211.53 104.674 211.45C101.186 206.053 95.3759 197.247 94.6386 196.634C93.9013 196.022 84.6027 194.554 76.3385 193.387C76.1926 193.365 76.0608 193.284 75.972 193.16C75.8833 193.037 75.8449 192.881 75.8654 192.728C75.8858 192.575 75.9633 192.436 76.081 192.343C76.1986 192.25 76.3467 192.209 76.4926 192.231C80.6302 192.82 94.2315 194.797 95.3319 195.698C96.4323 196.599 104.652 209.324 105.577 210.722C105.619 210.785 105.648 210.856 105.663 210.931C105.679 211.006 105.68 211.083 105.666 211.158C105.653 211.234 105.626 211.305 105.586 211.369C105.546 211.433 105.494 211.488 105.434 211.531C105.349 211.619 105.242 211.679 105.126 211.705Z" fill="#263238"/>
<path d="M104.389 216.478C104.309 216.478 104.23 216.459 104.157 216.423C104.085 216.387 104.021 216.335 103.971 216.27C101.616 213.415 96.9059 207.787 95.9265 206.92C95.1342 206.25 85.8466 203.753 77.4944 201.742C77.3531 201.707 77.2309 201.614 77.1546 201.484C77.0784 201.354 77.0541 201.198 77.0872 201.049C77.1027 200.975 77.1322 200.904 77.1741 200.842C77.216 200.78 77.2693 200.728 77.3309 200.688C77.3925 200.648 77.4612 200.622 77.5327 200.61C77.6043 200.599 77.6773 200.602 77.7475 200.621C80.6636 201.315 95.3543 204.886 96.6308 206.042C97.9073 207.197 104.521 215.172 104.807 215.518C104.855 215.575 104.891 215.641 104.915 215.712C104.938 215.784 104.947 215.86 104.942 215.935C104.937 216.011 104.917 216.084 104.885 216.151C104.852 216.219 104.807 216.279 104.752 216.327C104.654 216.424 104.524 216.478 104.389 216.478Z" fill="#263238"/>
<path d="M104.74 361.762C104.74 361.762 81.1912 357.139 80.2559 356.815C79.3205 356.492 62.6491 351.21 60.4482 350.216C58.2473 349.222 31.562 344.287 30.3075 346.264C29.053 348.24 27.7986 359.786 27.4794 360.768C27.1603 361.75 24.6513 366.373 25.2786 369.02C25.6173 371.422 25.6173 373.864 25.2786 376.266C25.2786 376.266 24.9595 391.764 28.7229 392.099C32.4864 392.435 35.9527 377.584 35.9527 377.584C35.9527 377.584 41.2898 380.889 52.272 381.548C63.2543 382.206 73.9394 376.601 73.9394 376.601L103.167 383.905L104.74 361.762Z" fill="white"/>
<path d="M28.8773 392.678H28.7122C24.6406 392.32 24.7067 378.937 24.7507 376.256C25.0835 373.903 25.0835 371.512 24.7507 369.16C24.2005 366.848 25.7301 363.381 26.5554 361.567C26.7425 361.127 26.8965 360.781 26.9625 360.596C27.0286 360.411 27.2377 358.989 27.4357 357.556C28.206 352.228 28.9653 347.328 29.8457 345.941C31.4963 343.352 59.051 348.958 60.6576 349.686C62.2642 350.414 72.5972 353.754 77.5381 355.349L80.3882 356.262C81.1035 356.505 95.387 359.348 104.807 361.197C104.941 361.222 105.061 361.299 105.144 361.412C105.228 361.525 105.268 361.667 105.258 361.809L103.717 383.907C103.713 383.991 103.691 384.072 103.653 384.146C103.615 384.22 103.562 384.285 103.497 384.334C103.434 384.385 103.36 384.42 103.282 384.436C103.204 384.452 103.123 384.449 103.046 384.427L74.0388 377.227C72.5642 377.955 62.5063 382.751 52.2723 382.138C43.2929 381.595 38.0768 379.341 36.3492 378.452C35.4688 382.023 32.5417 392.678 28.8773 392.678ZM32.5747 346.357C31.9579 346.289 31.3346 346.381 30.759 346.623C29.9667 347.871 29.0423 354.286 28.5582 357.73C28.2831 359.683 28.14 360.63 28.041 360.954C27.9419 361.278 27.7989 361.555 27.5788 362.052C26.8745 363.647 25.3779 366.987 25.8511 368.882C26.2076 371.357 26.2076 373.874 25.8511 376.348C25.7301 382.497 26.5664 391.372 28.8113 391.523C31.2322 391.685 34.1593 383.005 35.4138 377.458C35.4358 377.37 35.4758 377.288 35.5309 377.218C35.586 377.149 35.6549 377.092 35.7329 377.053C35.81 377.013 35.8947 376.993 35.9805 376.993C36.0664 376.993 36.1511 377.013 36.2281 377.053C36.2281 377.053 41.6092 380.289 52.3053 380.936C63.0015 381.584 73.5876 376.105 73.6976 376.048C73.8156 376.007 73.9428 376.007 74.0608 376.048L102.672 383.144L104.157 362.248C100.196 361.474 80.9824 357.695 80.0801 357.371L77.252 356.458C71.9039 354.736 61.9671 351.535 60.2504 350.761C58.1046 349.778 38.7811 346.357 32.5747 346.357Z" fill="#263238"/>
<path d="M23.2982 241.545L54.8694 247.613L53.692 268.335C53.692 268.335 60.6797 271.802 62.8035 292.27C64.9273 312.737 71.0127 360.145 69.4941 363.658C67.9755 367.172 58.5559 382.496 36.6684 383.456C14.7809 384.415 2.92932 363.346 0.805501 356.631C-1.31832 349.917 9.92804 305.999 10.5333 302.174C11.1385 298.349 14.1757 272.125 16.9157 267.699C18.6045 264.964 20.6491 262.49 22.9901 260.349L23.2982 241.545Z" fill="#2BC780"/>
<path d="M35.2161 384.079C13.4387 384.079 2.2033 362.71 0.288561 356.839C-1.4281 351.442 4.93237 324.109 8.34369 309.455C9.22403 305.664 9.86227 302.925 9.99433 302.116C10.1264 301.307 10.2804 300.094 10.5225 298.291C11.689 289.507 14.1319 271.224 16.4538 267.433C18.124 264.721 20.1421 262.263 22.4511 260.129L22.7483 241.556C22.7482 241.472 22.7659 241.389 22.8002 241.313C22.8344 241.238 22.8844 241.171 22.9463 241.117C23.0093 241.065 23.0822 241.028 23.16 241.008C23.2378 240.988 23.3188 240.986 23.3975 241.002L55.0017 247.058C55.1358 247.083 55.2561 247.16 55.3395 247.273C55.4228 247.386 55.4632 247.528 55.4529 247.67L54.2645 268.057C55.728 269.051 61.4612 274.032 63.354 292.258C63.8822 297.366 64.6745 304.254 65.5548 311.547C68.7791 339.654 71.156 361.37 70.0446 363.947C69.9565 364.132 61.5163 382.993 36.7347 384.068L35.2161 384.079ZM23.8377 242.238L23.5406 260.383C23.5406 260.467 23.5229 260.55 23.4887 260.626C23.4544 260.702 23.4045 260.769 23.3425 260.822C21.0471 262.926 19.0399 265.353 17.3782 268.034C15.1773 271.605 12.6794 290.409 11.612 298.429C11.3699 300.244 11.1828 301.608 11.0727 302.289C10.9407 303.145 10.3024 305.895 9.4111 309.698C6.26388 323.231 -0.283647 351.384 1.33398 356.481C3.18269 362.259 14.5941 383.871 36.6466 382.889C56.6524 382.022 66.7763 368.558 68.9992 363.438C70.0996 360.954 66.7983 332.465 64.4214 311.662C63.5851 304.358 62.7927 297.47 62.2205 292.362C60.1517 272.483 53.4721 268.912 53.4171 268.878C53.3202 268.826 53.2395 268.747 53.1848 268.648C53.1301 268.55 53.1038 268.437 53.109 268.323L54.2975 248.086L23.8377 242.238Z" fill="#263238"/>
<path d="M48.267 266.382C46.4792 266.374 44.6933 266.254 42.919 266.023C42.7747 266.006 42.6429 265.929 42.5522 265.81C42.4615 265.691 42.4193 265.539 42.4348 265.388C42.454 265.235 42.5292 265.097 42.6444 265.002C42.7595 264.907 42.9054 264.863 43.051 264.879C44.7818 265.101 46.5234 265.216 48.267 265.226C48.413 265.226 48.5529 265.287 48.6561 265.395C48.7593 265.504 48.8172 265.651 48.8172 265.804C48.8172 265.957 48.7593 266.104 48.6561 266.212C48.5529 266.321 48.413 266.382 48.267 266.382Z" fill="#263238"/>
<path d="M35.5563 264.694H35.4353C31.1579 263.698 26.9397 262.44 22.8024 260.926C22.6691 260.871 22.5616 260.764 22.5026 260.627C22.4437 260.49 22.4379 260.334 22.4867 260.192C22.5354 260.051 22.6347 259.935 22.7635 259.869C22.8923 259.803 23.0405 259.793 23.1765 259.84C27.2665 261.337 31.437 262.58 35.6663 263.561C35.7373 263.578 35.8045 263.609 35.864 263.653C35.9235 263.696 35.9741 263.752 36.013 263.817C36.0519 263.881 36.0782 263.953 36.0905 264.028C36.1028 264.103 36.1007 264.18 36.0845 264.255C36.057 264.38 35.9898 264.492 35.8938 264.572C35.7978 264.652 35.6787 264.695 35.5563 264.694Z" fill="#263238"/>
<path d="M197.044 251.958L193.908 337.03C193.908 337.03 190.453 337.365 189.198 339.007C188.362 340.144 187.626 341.359 186.997 342.636C186.997 342.636 155.294 343.953 140.218 348.576C131.565 351.16 123.159 354.58 115.106 358.792L101.285 358.48L98.457 396.723L116.988 397.382C116.988 397.382 126.089 402.987 167.531 406.951C208.973 410.915 228.131 411.898 232.522 406.616C236.913 401.334 238.805 393.094 239.433 388.818C240.06 384.542 247.598 358.145 247.598 319.891C247.598 281.637 213.375 226.278 205.837 213.715C198.299 201.153 190.431 202.158 185.116 203.499" fill="#2BC780"/>
<path d="M214.949 410.799C204.44 410.799 189.056 409.574 167.488 407.517C128.466 403.784 118.1 398.652 116.868 397.947L98.4799 397.289C98.4046 397.289 98.33 397.273 98.2612 397.241C98.1924 397.209 98.1309 397.162 98.0809 397.103C98.0309 397.043 97.9935 396.974 97.9712 396.898C97.9489 396.823 97.9422 396.743 97.9517 396.665L100.736 358.48C100.744 358.332 100.808 358.193 100.913 358.093C101.018 357.994 101.156 357.942 101.297 357.948L114.975 358.272C123.029 354.086 131.426 350.675 140.065 348.078C154.216 343.744 183.29 342.3 186.657 342.126C187.263 340.908 187.97 339.747 188.77 338.659C189.87 337.215 192.335 336.695 193.381 336.533L196.495 251.946C196.495 251.869 196.51 251.793 196.539 251.722C196.568 251.652 196.611 251.588 196.665 251.536C196.719 251.484 196.782 251.444 196.851 251.419C196.921 251.394 196.994 251.385 197.067 251.391C197.139 251.394 197.21 251.412 197.276 251.444C197.342 251.476 197.401 251.521 197.45 251.577C197.499 251.632 197.537 251.698 197.562 251.769C197.587 251.84 197.598 251.916 197.595 251.992L194.459 337.064C194.454 337.204 194.402 337.337 194.311 337.439C194.219 337.541 194.096 337.605 193.964 337.619C193.061 337.7 190.541 338.185 189.628 339.376C188.821 340.484 188.107 341.663 187.493 342.901C187.451 342.995 187.384 343.076 187.3 343.133C187.217 343.19 187.12 343.222 187.02 343.224C186.712 343.224 155.207 344.588 140.373 349.142C131.76 351.729 123.388 355.133 115.36 359.312C115.275 359.357 115.181 359.38 115.085 359.381L101.792 359.069L99.0521 396.168L117 396.803C117.092 396.811 117.182 396.838 117.264 396.884C117.352 396.884 126.882 402.489 167.587 406.373C208.853 410.314 227.956 411.227 232.116 406.234C236.858 400.548 238.498 391.395 238.894 388.725C238.993 387.997 239.279 386.749 239.698 384.842C244.571 363.57 247.038 341.769 247.048 319.89C247.048 295.459 233.304 260.302 206.212 215.402L205.375 214.027C197.551 201.013 189.232 203.071 185.248 204.053C185.106 204.088 184.955 204.063 184.83 203.983C184.704 203.903 184.614 203.775 184.577 203.625C184.561 203.551 184.559 203.474 184.571 203.399C184.583 203.324 184.61 203.252 184.649 203.187C184.688 203.123 184.738 203.067 184.798 203.023C184.857 202.979 184.924 202.948 184.995 202.932C191.455 201.337 199.048 201.337 206.311 213.403L207.136 214.79C234.349 259.863 248.149 295.239 248.149 319.89C248.135 341.858 245.661 363.747 240.776 385.107C240.369 386.91 240.083 388.216 239.984 388.898C239.576 391.649 237.882 401.068 232.941 406.997C230.729 409.643 225.128 410.799 214.949 410.799Z" fill="#263238"/>
<path d="M193.908 337.609C193.812 337.61 193.717 337.584 193.633 337.534C193.55 337.483 193.481 337.409 193.435 337.32C193.371 337.206 193.346 337.073 193.364 336.943C193.382 336.813 193.442 336.693 193.534 336.603L211.746 318.805C211.796 318.751 211.856 318.709 211.922 318.679C211.989 318.65 212.06 318.635 212.131 318.635C212.203 318.635 212.274 318.65 212.34 318.679C212.406 318.709 212.466 318.751 212.516 318.805C212.568 318.859 212.609 318.923 212.637 318.993C212.665 319.064 212.679 319.139 212.679 319.215C212.679 319.292 212.665 319.367 212.637 319.438C212.609 319.508 212.568 319.572 212.516 319.626L196.01 335.806L213.056 330.605C213.202 330.562 213.358 330.582 213.49 330.66C213.622 330.738 213.719 330.868 213.76 331.021C213.801 331.174 213.782 331.338 213.708 331.477C213.633 331.616 213.51 331.718 213.364 331.761L194.095 337.632L193.908 337.609Z" fill="#263238"/>
<path d="M219.207 329.9C219.061 329.92 218.914 329.878 218.797 329.784C218.68 329.689 218.604 329.55 218.585 329.397C218.566 329.244 218.606 329.089 218.696 328.966C218.786 328.844 218.918 328.764 219.064 328.744L225.149 326.895C225.219 326.872 225.292 326.864 225.364 326.872C225.436 326.879 225.506 326.902 225.57 326.939C225.634 326.975 225.69 327.025 225.735 327.085C225.78 327.145 225.813 327.214 225.831 327.288C225.872 327.435 225.856 327.593 225.786 327.728C225.716 327.862 225.597 327.962 225.457 328.004L219.361 329.854C219.314 329.881 219.261 329.897 219.207 329.9Z" fill="#263238"/>
<path d="M215.257 348.16H215.059C207.069 344.924 187.163 343.26 186.954 343.249C186.881 343.243 186.811 343.222 186.746 343.187C186.682 343.152 186.624 343.105 186.577 343.047C186.53 342.989 186.495 342.922 186.472 342.849C186.45 342.777 186.442 342.7 186.447 342.625C186.453 342.549 186.473 342.475 186.506 342.407C186.539 342.339 186.585 342.279 186.64 342.229C186.695 342.18 186.759 342.143 186.828 342.119C186.897 342.096 186.969 342.087 187.042 342.093C187.867 342.162 207.311 343.792 215.455 347.074C215.527 347.088 215.596 347.116 215.658 347.158C215.719 347.2 215.773 347.254 215.815 347.317C215.857 347.38 215.886 347.452 215.902 347.527C215.917 347.602 215.919 347.68 215.906 347.756C215.893 347.832 215.866 347.904 215.826 347.969C215.786 348.034 215.735 348.09 215.675 348.134C215.614 348.178 215.546 348.209 215.475 348.226C215.403 348.242 215.329 348.243 215.257 348.23V348.16Z" fill="#263238"/>
<path d="M220.912 365.312C220.827 365.311 220.743 365.289 220.667 365.249C220.591 365.209 220.524 365.152 220.472 365.08C219.647 363.925 218.745 362.873 217.787 361.821C217.699 361.709 217.654 361.565 217.662 361.42C217.67 361.274 217.731 361.137 217.831 361.036C217.931 360.935 218.064 360.878 218.203 360.876C218.342 360.873 218.476 360.926 218.579 361.024C219.554 362.091 220.476 363.21 221.342 364.376C221.432 364.495 221.473 364.648 221.456 364.799C221.44 364.951 221.367 365.089 221.254 365.184C221.156 365.264 221.036 365.308 220.912 365.312Z" fill="#263238"/>
<path d="M214.343 358.272C214.216 358.269 214.093 358.225 213.991 358.145C208.404 353.393 201.958 349.878 195.042 347.813C194.97 347.796 194.901 347.763 194.841 347.718C194.781 347.673 194.729 347.616 194.69 347.55C194.651 347.484 194.624 347.41 194.612 347.334C194.599 347.257 194.602 347.178 194.618 347.102C194.635 347.026 194.666 346.955 194.709 346.891C194.752 346.828 194.806 346.774 194.869 346.733C194.932 346.691 195.002 346.663 195.075 346.651C195.148 346.638 195.223 346.64 195.295 346.657C202.376 348.758 208.976 352.348 214.696 357.209C214.785 357.284 214.85 357.387 214.881 357.503C214.912 357.619 214.908 357.742 214.869 357.855C214.83 357.969 214.759 358.066 214.665 358.135C214.57 358.204 214.458 358.239 214.343 358.238V358.272Z" fill="#263238"/>
<path d="M115.107 394.99C114.961 394.99 114.821 394.93 114.718 394.821C114.615 394.713 114.557 394.566 114.557 394.413L114.293 362.434C114.291 362.358 114.304 362.283 114.33 362.212C114.357 362.141 114.396 362.077 114.446 362.022C114.496 361.967 114.556 361.923 114.622 361.893C114.688 361.862 114.76 361.846 114.832 361.844C114.978 361.844 115.118 361.905 115.221 362.014C115.324 362.122 115.382 362.269 115.382 362.422L115.701 394.401C115.701 394.555 115.644 394.704 115.541 394.814C115.438 394.924 115.298 394.987 115.151 394.99H115.107Z" fill="#263238"/>
<path d="M112.906 387.073H99.7007C99.5548 387.073 99.4148 387.012 99.3117 386.904C99.2085 386.795 99.1505 386.648 99.1505 386.495C99.1505 386.342 99.2085 386.195 99.3117 386.086C99.4148 385.978 99.5548 385.917 99.7007 385.917H112.906C113.052 385.917 113.192 385.978 113.295 386.086C113.398 386.195 113.456 386.342 113.456 386.495C113.453 386.647 113.394 386.793 113.292 386.9C113.189 387.008 113.051 387.07 112.906 387.073Z" fill="#263238"/>
<path d="M102.859 368.269C102.718 368.269 102.583 368.213 102.481 368.112C102.379 368.011 102.317 367.873 102.309 367.726C102.304 367.651 102.314 367.575 102.338 367.504C102.362 367.433 102.399 367.367 102.447 367.311C102.495 367.255 102.553 367.21 102.618 367.178C102.684 367.146 102.754 367.128 102.826 367.125L108.163 366.79C108.235 366.785 108.308 366.796 108.376 366.82C108.445 366.845 108.508 366.884 108.562 366.934C108.616 366.985 108.66 367.046 108.692 367.114C108.723 367.183 108.742 367.257 108.746 367.333C108.752 367.486 108.702 367.635 108.605 367.749C108.509 367.863 108.374 367.934 108.229 367.946L102.892 368.269H102.859Z" fill="#263238"/>
</svg>
