<svg width="28" height="29" viewBox="0 0 28 29" fill="none" xmlns="http://www.w3.org/2000/svg">
<g id="Group 69">
<path id="Ellipse 1" d="M26.5601 14.5192C26.5601 21.2275 20.9564 26.7305 13.9628 26.7305C6.96912 26.7305 1.36544 21.2275 1.36544 14.5192C1.36544 7.81091 6.96912 2.30789 13.9628 2.30789C20.9564 2.30789 26.5601 7.81091 26.5601 14.5192Z" fill="#FFB56D" stroke="#4E5866" stroke-width="2.73089"/>
<path id="Star 1" d="M14.2215 6.11357L15.9541 11.2986L16.11 11.765H16.6016H22.1544L17.6787 14.9268L17.2643 15.2196L17.4251 15.7008L19.1449 20.8474L14.6154 17.6475L14.2215 17.3692L13.8276 17.6475L9.29807 20.8474L11.0178 15.7008L11.1786 15.2196L10.7642 14.9268L6.28862 11.765H11.8413H12.333L12.4889 11.2986L14.2215 6.11357Z" fill="white" stroke="#4E5866" stroke-width="1.36544"/>
</g>
</svg>
