<svg width="45" height="45" viewBox="0 0 45 45" fill="none" xmlns="http://www.w3.org/2000/svg">
<g id="Group 71">
<path id="Ellipse 1" d="M43.4173 22.7087C43.4173 33.9433 34.04 43.1156 22.3914 43.1156C10.7427 43.1156 1.36544 33.9433 1.36544 22.7087C1.36544 11.4742 10.7427 2.30184 22.3914 2.30184C34.04 2.30184 43.4173 11.4742 43.4173 22.7087Z" fill="#FFE454" stroke="#4E5866" stroke-width="2.73089"/>
<path id="Star 1" d="M22.806 10.083L25.3279 17.63L25.6396 18.5627H26.623H34.6756L28.1941 23.1415L27.3653 23.727L27.6869 24.6895L30.1831 32.1595L23.5939 27.5045L22.806 26.948L22.0182 27.5045L15.429 32.1595L17.9252 24.6895L18.2468 23.727L17.418 23.1415L10.9365 18.5627H18.9891H19.9725L20.2842 17.63L22.806 10.083Z" fill="white" stroke="#4E5866" stroke-width="2.73089"/>
</g>
</svg>
