<svg width="30" height="31" viewBox="0 0 30 31" fill="none" xmlns="http://www.w3.org/2000/svg">
<path id="Vector" d="M15.1284 10.7797C12.4215 10.7797 10.2125 12.9887 10.2125 15.6956C10.2125 18.4025 12.4215 20.6115 15.1284 20.6115C17.8353 20.6115 20.0443 18.4025 20.0443 15.6956C20.0443 12.9887 17.8353 10.7797 15.1284 10.7797ZM29.8725 15.6956C29.8725 13.6599 29.8909 11.6426 29.7766 9.61061C29.6623 7.25038 29.1239 5.15567 27.3979 3.42975C25.6683 1.70015 23.5773 1.16541 21.2171 1.05108C19.1814 0.936759 17.1641 0.955198 15.1321 0.955198C13.0964 0.955198 11.0791 0.936759 9.04714 1.05108C6.6869 1.16541 4.5922 1.70383 2.86628 3.42975C1.13667 5.15936 0.60193 7.25038 0.487606 9.61061C0.373283 11.6463 0.391722 13.6636 0.391722 15.6956C0.391722 17.7276 0.373283 19.7485 0.487606 21.7806C0.60193 24.1408 1.14036 26.2355 2.86628 27.9614C4.59589 29.691 6.6869 30.2258 9.04714 30.3401C11.0828 30.4544 13.1001 30.436 15.1321 30.436C17.1678 30.436 19.1851 30.4544 21.2171 30.3401C23.5773 30.2258 25.672 29.6873 27.3979 27.9614C29.1275 26.2318 29.6623 24.1408 29.7766 21.7806C29.8946 19.7485 29.8725 17.7313 29.8725 15.6956ZM15.1284 23.2594C10.9427 23.2594 7.56461 19.8813 7.56461 15.6956C7.56461 11.5099 10.9427 8.13178 15.1284 8.13178C19.3141 8.13178 22.6922 11.5099 22.6922 15.6956C22.6922 19.8813 19.3141 23.2594 15.1284 23.2594ZM23.002 9.58848C22.0247 9.58848 21.2355 8.79928 21.2355 7.822C21.2355 6.84471 22.0247 6.05551 23.002 6.05551C23.9793 6.05551 24.7685 6.84471 24.7685 7.822C24.7688 8.05406 24.7233 8.2839 24.6346 8.49835C24.5459 8.7128 24.4158 8.90765 24.2517 9.07174C24.0877 9.23583 23.8928 9.36594 23.6784 9.45461C23.4639 9.54328 23.2341 9.58877 23.002 9.58848Z" fill="white"/>
</svg>
