<svg width="29" height="29" viewBox="0 0 29 29" fill="none" xmlns="http://www.w3.org/2000/svg">
<path id="Vector" d="M25.3749 0.53418C26.2095 0.53418 27.01 0.865735 27.6002 1.45591C28.1903 2.04608 28.5219 2.84653 28.5219 3.68116V25.71C28.5219 26.5446 28.1903 27.3451 27.6002 27.9352C27.01 28.5254 26.2095 28.857 25.3749 28.857H3.34607C2.51144 28.857 1.711 28.5254 1.12082 27.9352C0.530652 27.3451 0.199097 26.5446 0.199097 25.71V3.68116C0.199097 2.84653 0.530652 2.04608 1.12082 1.45591C1.711 0.865735 2.51144 0.53418 3.34607 0.53418H25.3749ZM24.5882 24.9232V16.5838C24.5882 15.2233 24.0477 13.9186 23.0857 12.9566C22.1238 11.9946 20.819 11.4542 19.4586 11.4542C18.1211 11.4542 16.5634 12.2724 15.8081 13.4997V11.7531H11.4181V24.9232H15.8081V17.1659C15.8081 15.9544 16.7837 14.9631 17.9952 14.9631C18.5795 14.9631 19.1398 15.1952 19.5529 15.6083C19.966 16.0214 20.1981 16.5817 20.1981 17.1659V24.9232H24.5882ZM6.30423 9.28277C7.00532 9.28277 7.67769 9.00427 8.17344 8.50852C8.66918 8.01278 8.94769 7.3404 8.94769 6.63931C8.94769 5.17597 7.76757 3.98012 6.30423 3.98012C5.59897 3.98012 4.92259 4.26028 4.4239 4.75898C3.9252 5.25767 3.64504 5.93405 3.64504 6.63931C3.64504 8.10266 4.84089 9.28277 6.30423 9.28277ZM8.49138 24.9232V11.7531H4.13282V24.9232H8.49138Z" fill="white"/>
</svg>
