<svg width="36" height="36" viewBox="0 0 36 36" fill="none" xmlns="http://www.w3.org/2000/svg">
<g id="location">
<path id="Vector" d="M17.8396 2.96631C11.8717 2.96631 7.01599 7.61032 7.01599 13.3164C7.01599 16.0338 8.25462 19.6475 10.6974 24.0575C12.6592 27.5982 14.9287 30.7999 16.1092 32.393C16.3087 32.6652 16.5695 32.8866 16.8705 33.0392C17.1715 33.1918 17.5042 33.2713 17.8416 33.2713C18.1791 33.2713 18.5118 33.1918 18.8128 33.0392C19.1138 32.8866 19.3746 32.6652 19.5741 32.393C20.7525 30.7999 23.0241 27.5982 24.9859 24.0575C27.4246 19.6489 28.6632 16.0352 28.6632 13.3164C28.6632 7.61032 23.8075 2.96631 17.8396 2.96631ZM17.8396 18.1194C16.9833 18.1194 16.1463 17.8655 15.4343 17.3897C14.7223 16.914 14.1674 16.2378 13.8397 15.4467C13.512 14.6556 13.4263 13.7851 13.5934 12.9453C13.7604 12.1055 14.1727 11.334 14.7782 10.7285C15.3837 10.1231 16.1552 9.71072 16.995 9.54367C17.8348 9.37662 18.7053 9.46236 19.4964 9.79004C20.2875 10.1177 20.9637 10.6726 21.4394 11.3846C21.9151 12.0966 22.1691 12.9336 22.1691 13.7899C22.1678 14.9378 21.7113 16.0383 20.8996 16.8499C20.088 17.6616 18.9875 18.1181 17.8396 18.1194Z" fill="white"/>
</g>
</svg>
