<svg width="56" height="57" viewBox="0 0 56 57" fill="none" xmlns="http://www.w3.org/2000/svg">
<g id="location-outline">
<path id="Vector" d="M27.8395 6.04318C19.194 6.04318 12.1797 12.7193 12.1797 20.9417C12.1797 30.4029 22.6195 45.396 26.4529 50.5746C26.6121 50.7932 26.8206 50.9711 27.0616 51.0937C27.3025 51.2164 27.5691 51.2803 27.8395 51.2803C28.1099 51.2803 28.3764 51.2164 28.6174 51.0937C28.8583 50.9711 29.0669 50.7932 29.226 50.5746C33.0594 45.3982 43.4993 30.4105 43.4993 20.9417C43.4993 12.7193 36.485 6.04318 27.8395 6.04318Z" stroke="#4E5866" stroke-width="3.47995" stroke-linecap="round" stroke-linejoin="round"/>
<path id="Vector_2" d="M27.8396 26.923C30.7224 26.923 33.0595 24.5859 33.0595 21.7031C33.0595 18.8202 30.7224 16.4831 27.8396 16.4831C24.9567 16.4831 22.6196 18.8202 22.6196 21.7031C22.6196 24.5859 24.9567 26.923 27.8396 26.923Z" stroke="#4E5866" stroke-width="3.47995" stroke-linecap="round" stroke-linejoin="round"/>
</g>
</svg>
