<svg width="36" height="36" viewBox="0 0 36 36" fill="none" xmlns="http://www.w3.org/2000/svg">
<g id="mail">
<path id="Vector" d="M29.2044 6.21338H6.47479C5.47041 6.21445 4.50747 6.61392 3.79727 7.32412C3.08706 8.03433 2.6876 8.99727 2.68652 10.0016V26.2371C2.6876 27.2415 3.08706 28.2044 3.79727 28.9146C4.50747 29.6248 5.47041 30.0243 6.47479 30.0254H29.2044C30.2088 30.0243 31.1717 29.6248 31.8819 28.9146C32.5921 28.2044 32.9916 27.2415 32.9927 26.2371V10.0016C32.9916 8.99727 32.5921 8.03433 31.8819 7.32412C31.1717 6.61392 30.2088 6.21445 29.2044 6.21338ZM28.2452 12.4796L18.5039 20.0561C18.3139 20.2038 18.0802 20.284 17.8396 20.284C17.599 20.284 17.3653 20.2038 17.1753 20.0561L7.43404 12.4796C7.31958 12.3932 7.22345 12.2848 7.15122 12.1609C7.079 12.037 7.03211 11.9 7.0133 11.7578C6.99449 11.6156 7.00412 11.4711 7.04163 11.3327C7.07915 11.1943 7.1438 11.0647 7.23184 10.9515C7.31987 10.8383 7.42953 10.7437 7.55443 10.6732C7.67934 10.6027 7.81701 10.5578 7.95944 10.5409C8.10187 10.5241 8.24623 10.5358 8.38411 10.5753C8.522 10.6147 8.65066 10.6812 8.76264 10.7708L17.8396 17.8305L26.9166 10.7708C27.1435 10.5994 27.4289 10.5242 27.7108 10.5615C27.9928 10.5988 28.2487 10.7456 28.4233 10.9702C28.5979 11.1947 28.6771 11.4789 28.6437 11.7614C28.6104 12.0439 28.4672 12.3019 28.2452 12.4796Z" fill="white"/>
</g>
</svg>
