<svg width="330" height="437" viewBox="0 0 330 437" fill="none" xmlns="http://www.w3.org/2000/svg">
<g clip-path="url(#clip0_10_668)">
<path d="M204.127 136.926L213.494 140.418L210.002 149.785L200.635 146.293L204.127 136.926Z" fill="#12DC9F"/>
<path d="M223.046 138.644C223.688 136.922 222.81 135 221.088 134.358L217.966 133.194L219.13 130.071L216.007 128.907L214.843 132.03L208.599 129.702L209.763 126.579L206.64 125.415L205.476 128.537L202.354 127.373C200.632 126.732 198.709 127.61 198.067 129.332L196.903 132.454L193.781 131.29L192.617 134.413L195.739 135.577L193.411 141.821L190.289 140.657L189.125 143.78L192.247 144.944L191.083 148.066C190.441 149.788 191.32 151.711 193.042 152.353L196.164 153.517L195 156.639L198.122 157.803L199.286 154.681L205.531 157.009L204.367 160.131L207.489 161.295L208.653 158.173L211.776 159.337C213.498 159.979 215.42 159.1 216.062 157.378L217.226 154.256L220.349 155.42L221.513 152.298L218.39 151.134L220.718 144.889L223.841 146.053L225.005 142.93L221.882 141.766L223.046 138.644ZM194.206 149.23L201.19 130.496L219.924 137.48L212.943 156.215L194.206 149.23Z" fill="white"/>
</g>
<g clip-path="url(#clip1_10_668)">
<circle cx="273.358" cy="181.532" r="2.94027" transform="rotate(20.4455 273.358 181.532)" fill="#12DC9F"/>
<path d="M271.717 159.178C272.048 158.291 272.718 157.571 273.579 157.178C274.44 156.784 275.422 156.749 276.31 157.08L286.346 160.821C287.233 161.152 287.953 161.822 288.346 162.683C288.74 163.544 288.775 164.527 288.444 165.414L280.961 185.486C280.63 186.374 279.961 187.093 279.099 187.487C278.238 187.88 277.256 187.915 276.369 187.584L266.332 183.843C265.445 183.512 264.726 182.843 264.332 181.981C263.939 181.12 263.903 180.138 264.234 179.25L271.717 159.178ZM274.894 181.319C275.059 180.876 275.042 180.384 274.845 179.954C274.648 179.523 274.288 179.188 273.845 179.023C273.401 178.858 272.91 178.875 272.479 179.072C272.049 179.269 271.714 179.628 271.549 180.072C271.383 180.516 271.401 181.007 271.598 181.437C271.794 181.868 272.154 182.203 272.598 182.368C273.041 182.534 273.532 182.516 273.963 182.319C274.394 182.123 274.729 181.763 274.894 181.319Z" fill="white"/>
</g>
<g clip-path="url(#clip2_10_668)">
<mask id="mask0_10_668" style="mask-type:luminance" maskUnits="userSpaceOnUse" x="203" y="207" width="51" height="52">
<path d="M249.56 241.451L212.657 227.693C211.525 227.271 210.264 227.847 209.842 228.979L206.021 239.23C205.599 240.362 206.174 241.622 207.307 242.044L244.21 255.802C245.342 256.224 246.602 255.648 247.024 254.516L250.846 244.265C251.268 243.133 250.692 241.873 249.56 241.451Z" fill="white" stroke="white" stroke-width="4.37598" stroke-linecap="round" stroke-linejoin="round"/>
<path d="M218.183 237.925L226.384 240.982" stroke="black" stroke-width="4.37598" stroke-linecap="round" stroke-linejoin="round"/>
<path d="M238.685 245.57C239.107 244.437 238.531 243.177 237.399 242.755C236.267 242.333 235.007 242.909 234.584 244.041C234.162 245.173 234.738 246.433 235.87 246.856C237.003 247.278 238.263 246.702 238.685 245.57Z" fill="black"/>
<path d="M218.809 229.985L226.452 209.484M243.411 239.157L251.054 218.655" stroke="white" stroke-width="4.37598" stroke-linecap="round" stroke-linejoin="round"/>
</mask>
<g mask="url(#mask0_10_668)">
<path d="M217.208 196.697L266.412 215.041L248.068 264.244L198.865 245.901L217.208 196.697Z" fill="white"/>
</g>
<circle cx="237.068" cy="244.997" r="2.83848" transform="rotate(20.4455 237.068 244.997)" fill="#12DC9F"/>
<rect x="215.451" y="233.909" width="17.0309" height="5.67695" rx="2.83848" transform="rotate(20.4455 215.451 233.909)" fill="#12DC9F"/>
</g>
<g clip-path="url(#clip3_10_668)">
<path d="M219.744 37.5197L223.1 39.6155L204.006 69.654L200.65 67.5582L219.744 37.5197ZM225.944 58.8316L221.77 49.6966L223.726 44.451L231.189 60.7872L214.86 68.2323L216.815 62.9867L225.944 58.8316ZM192.561 46.3865L208.897 38.9229L206.941 44.1685L197.806 48.3421L201.987 57.4586L200.031 62.7042L192.561 46.3865Z" fill="white"/>
<path d="M216.392 44.4026L218.203 45.5401L207.801 61.9992L205.99 60.8616L216.392 44.4026ZM219.697 56.0345L217.46 51.0522L218.53 48.1811L222.532 57.091L213.678 61.1972L214.748 58.3262L219.697 56.0345ZM201.662 49.3108L210.519 45.1944L209.449 48.0655L204.496 50.3673L206.737 55.3395L205.667 58.2105L201.662 49.3108Z" fill="#12DC9F"/>
</g>
<g clip-path="url(#clip4_10_668)">
<path d="M173.864 91.6357L176.414 84.7975C176.639 84.193 176.615 83.5237 176.347 82.9369C176.079 82.35 175.589 81.8938 174.984 81.6684L140.793 68.922C140.189 68.6966 139.519 68.7206 138.932 68.9887C138.346 69.2568 137.889 69.7471 137.664 70.3516L135.115 77.1898C134.889 77.7943 134.913 78.4636 135.181 79.0505C135.45 79.6373 135.94 80.0936 136.544 80.319C135.94 80.0936 135.27 80.1176 134.684 80.3857C134.097 80.6538 133.641 81.1441 133.415 81.7486L130.866 88.5868C130.641 89.1913 130.665 89.8606 130.933 90.4475C131.201 91.0343 131.691 91.4906 132.296 91.716C131.691 91.4906 131.022 91.5146 130.435 91.7827C129.848 92.0508 129.392 92.5411 129.166 93.1456L126.617 99.9838C126.392 100.588 126.416 101.258 126.684 101.844C126.952 102.431 127.442 102.888 128.047 103.113L162.238 115.859C162.842 116.085 163.512 116.061 164.098 115.793C164.685 115.525 165.142 115.034 165.367 114.43L167.916 107.592C168.142 106.987 168.118 106.318 167.849 105.731C167.581 105.144 167.091 104.688 166.487 104.462C167.091 104.688 167.76 104.664 168.347 104.396C168.934 104.128 169.39 103.637 169.616 103.033L172.165 96.1945C172.39 95.59 172.366 94.9207 172.098 94.3339C171.83 93.747 171.34 93.2908 170.735 93.0654C171.34 93.2908 172.009 93.2667 172.596 92.9986C173.183 92.7305 173.639 92.2403 173.864 91.6357ZM163.087 113.58L128.896 100.834L131.446 93.9954L165.637 106.742L163.087 113.58ZM167.336 102.183L133.145 89.4366L135.695 82.5984L169.886 95.3448L167.336 102.183ZM171.585 90.786L137.394 78.0396L139.943 71.2014L174.134 83.9478L171.585 90.786Z" fill="white"/>
<path d="M142.02 77.8176C142.964 78.1696 144.015 77.6896 144.367 76.7454C144.719 75.8012 144.239 74.7505 143.295 74.3985C142.351 74.0465 141.3 74.5266 140.948 75.4708C140.596 76.4149 141.076 77.4656 142.02 77.8176Z" fill="#12DC9F"/>
<path d="M147.719 79.9423C148.663 80.2942 149.714 79.8142 150.066 78.87C150.418 77.9259 149.938 76.8751 148.994 76.5232C148.05 76.1712 146.999 76.6512 146.647 77.5954C146.295 78.5395 146.775 79.5903 147.719 79.9423Z" fill="#12DC9F"/>
<path d="M137.771 89.2151C138.715 89.567 139.766 89.087 140.118 88.1428C140.47 87.1987 139.99 86.1479 139.046 85.796C138.102 85.444 137.051 85.924 136.699 86.8682C136.347 87.8123 136.827 88.8631 137.771 89.2151Z" fill="#12DC9F"/>
<path d="M143.47 91.3397C144.415 91.6917 145.465 91.2116 145.817 90.2675C146.169 89.3233 145.689 88.2726 144.745 87.9206C143.801 87.5686 142.75 88.0487 142.398 88.9928C142.046 89.937 142.526 90.9877 143.47 91.3397Z" fill="#12DC9F"/>
<path d="M133.522 100.613C134.466 100.965 135.517 100.485 135.869 99.5403C136.221 98.5962 135.741 97.5455 134.797 97.1935C133.853 96.8415 132.802 97.3215 132.45 98.2657C132.098 99.2099 132.578 100.261 133.522 100.613Z" fill="#12DC9F"/>
<path d="M139.221 102.737C140.166 103.089 141.216 102.609 141.568 101.665C141.92 100.721 141.44 99.6701 140.496 99.3181C139.552 98.9661 138.501 99.4462 138.149 100.39C137.797 101.334 138.277 102.385 139.221 102.737Z" fill="#12DC9F"/>
</g>
<path d="M135.565 300.325L123.485 310.302M109.129 313.883L113.374 304.293C113.442 304.139 113.546 304.004 113.677 303.899C113.808 303.794 113.963 303.723 114.128 303.69L134.939 299.604C135.127 299.567 135.321 299.583 135.5 299.648C135.68 299.714 135.838 299.828 135.957 299.977C136.076 300.127 136.152 300.306 136.176 300.495C136.201 300.685 136.173 300.877 136.096 301.052L127.645 320.137C127.584 320.274 127.495 320.396 127.383 320.496C127.271 320.595 127.139 320.669 126.995 320.713L117.293 323.667C117.096 323.728 116.885 323.728 116.687 323.669C116.49 323.609 116.314 323.493 116.183 323.334L109.278 314.972C109.154 314.823 109.075 314.641 109.048 314.449C109.022 314.256 109.05 314.06 109.129 313.883Z" stroke="#12DC9F" stroke-width="2.61133" stroke-linecap="round" stroke-linejoin="round"/>
<path d="M108.866 314.474L103.498 318.909C102.786 319.497 102.337 320.344 102.25 321.263C102.162 322.182 102.443 323.098 103.031 323.81L106.354 327.838C106.646 328.191 107.003 328.482 107.407 328.697C107.811 328.911 108.254 329.044 108.709 329.087C109.164 329.131 109.624 329.084 110.061 328.95C110.498 328.816 110.905 328.597 111.257 328.305L116.625 323.87M119.459 313.63C119.677 313.894 119.946 314.113 120.249 314.273C120.552 314.434 120.883 314.533 121.225 314.566C121.566 314.598 121.911 314.563 122.239 314.463C122.566 314.362 122.871 314.198 123.136 313.979C123.4 313.761 123.619 313.492 123.779 313.189C123.94 312.886 124.039 312.555 124.072 312.213C124.104 311.872 124.069 311.527 123.969 311.2C123.868 310.872 123.704 310.567 123.485 310.303C123.044 309.769 122.409 309.432 121.719 309.366C121.03 309.301 120.342 309.512 119.808 309.953C119.275 310.394 118.938 311.029 118.872 311.719C118.807 312.408 119.018 313.096 119.459 313.63Z" stroke="white" stroke-width="2.61133" stroke-linecap="round" stroke-linejoin="round"/>
<g clip-path="url(#clip5_10_668)">
<g clip-path="url(#clip6_10_668)">
<path d="M273.994 114.077C273.081 113.737 272.564 112.769 272.821 111.835C274.918 103.937 271.111 95.6033 263.774 92.0014C262.894 91.5714 262.483 90.541 262.824 89.6277C263.217 88.5711 264.445 88.0699 265.461 88.5712C274.408 92.9674 279.047 103.121 276.519 112.775C276.245 113.866 275.068 114.478 273.994 114.077ZM260.097 108.896L257.465 107.915C256.766 107.654 256.412 106.88 256.673 106.182L257.654 103.549C257.968 102.707 259.02 102.375 259.738 102.939C260.459 103.508 261.035 104.241 261.417 105.077C261.798 105.912 261.976 106.827 261.934 107.745C261.873 108.62 260.939 109.21 260.097 108.896ZM266.777 111.386C265.899 111.059 265.405 110.141 265.589 109.21C265.957 107.269 265.714 105.263 264.893 103.466C264.072 101.67 262.714 100.172 261.007 99.1795C260.195 98.7035 259.812 97.7345 260.139 96.857L260.145 96.8391C260.546 95.7646 261.822 95.2409 262.812 95.8139C267.805 98.6441 270.439 104.409 269.315 110.048C269.088 111.177 267.869 111.794 266.777 111.386Z" fill="#12DC9F"/>
<path d="M271.974 114.998C271.061 114.658 270.544 113.69 270.801 112.756C272.898 104.858 269.091 96.5243 261.754 92.9225C260.874 92.4924 260.463 91.462 260.804 90.5487C261.197 89.4921 262.425 88.9909 263.441 89.4922C272.388 93.8884 277.027 104.042 274.499 113.696C274.225 114.787 273.048 115.399 271.974 114.998ZM258.077 109.817L255.444 108.836C254.746 108.575 254.392 107.801 254.653 107.103L255.634 104.47C255.948 103.628 257 103.296 257.718 103.86C258.439 104.429 259.015 105.162 259.397 105.998C259.778 106.833 259.956 107.748 259.914 108.666C259.853 109.541 258.919 110.131 258.077 109.817ZM264.757 112.307C263.879 111.98 263.385 111.062 263.569 110.131C263.937 108.19 263.693 106.184 262.873 104.387C262.052 102.591 260.694 101.093 258.987 100.101C258.175 99.6245 257.792 98.6555 258.119 97.778L258.125 97.7601C258.526 96.6856 259.802 96.1619 260.792 96.7349C265.785 99.5651 268.419 105.33 267.295 110.969C267.068 112.098 265.849 112.715 264.757 112.307Z" fill="white"/>
</g>
</g>
<g clip-path="url(#clip7_10_668)">
<path d="M142.847 277.672C142.102 277.394 141.563 276.891 141.23 276.162C140.897 275.433 140.87 274.696 141.148 273.952L148.218 254.987C148.496 254.242 149 253.702 149.729 253.369C150.458 253.036 151.194 253.009 151.938 253.287L170.904 260.358C171.649 260.635 172.188 261.139 172.521 261.868C172.854 262.597 172.881 263.333 172.603 264.077L165.532 283.043C165.255 283.788 164.751 284.327 164.022 284.66C163.293 284.993 162.557 285.021 161.813 284.742L142.847 277.672ZM143.857 274.962L162.823 282.033L169.893 263.067L150.928 255.997L143.857 274.962ZM147.577 273.263L161.124 278.313C161.395 278.414 161.644 278.366 161.872 278.168C162.1 277.97 162.166 277.725 162.07 277.432L160.2 271.064C160.132 270.833 159.985 270.676 159.759 270.591C159.534 270.507 159.319 270.53 159.116 270.66L153.839 274.055L152.583 269.768C152.515 269.536 152.368 269.379 152.142 269.295C151.916 269.21 151.702 269.233 151.499 269.364L147.439 271.977C147.174 272.136 147.063 272.364 147.106 272.663C147.149 272.962 147.306 273.162 147.577 273.263ZM153.144 264.538C153.708 264.748 154.262 264.729 154.805 264.481C155.348 264.233 155.724 263.827 155.934 263.263C156.144 262.699 156.125 262.145 155.877 261.602C155.629 261.059 155.223 260.683 154.659 260.474C154.095 260.263 153.541 260.282 152.998 260.53C152.455 260.778 152.079 261.184 151.87 261.748C151.659 262.313 151.678 262.866 151.926 263.409C152.174 263.952 152.58 264.329 153.144 264.538Z" fill="#12DC9F"/>
<path d="M143.605 275.639C142.86 275.362 142.321 274.858 141.988 274.129C141.655 273.4 141.627 272.664 141.906 271.92L148.976 252.954C149.254 252.209 149.757 251.67 150.486 251.337C151.215 251.004 151.952 250.977 152.696 251.255L171.661 258.325C172.406 258.603 172.945 259.106 173.278 259.835C173.612 260.564 173.639 261.301 173.361 262.045L166.29 281.01C166.012 281.756 165.509 282.295 164.78 282.628C164.051 282.961 163.315 282.988 162.571 282.71L143.605 275.639ZM144.615 272.93L163.581 280L170.651 261.035L151.685 253.964L144.615 272.93ZM148.334 271.231L161.881 276.281C162.152 276.382 162.402 276.334 162.63 276.136C162.858 275.938 162.924 275.692 162.827 275.399L160.958 269.032C160.89 268.801 160.743 268.643 160.517 268.559C160.291 268.475 160.077 268.498 159.874 268.628L154.597 272.022L153.341 267.735C153.273 267.504 153.126 267.346 152.9 267.262C152.674 267.178 152.46 267.201 152.257 267.331L148.197 269.945C147.932 270.103 147.821 270.332 147.864 270.631C147.907 270.93 148.064 271.13 148.334 271.231ZM153.902 262.505C154.466 262.716 155.02 262.697 155.563 262.449C156.106 262.201 156.482 261.795 156.691 261.231C156.902 260.666 156.883 260.113 156.635 259.57C156.387 259.027 155.981 258.65 155.417 258.441C154.852 258.231 154.299 258.25 153.756 258.498C153.213 258.746 152.836 259.152 152.627 259.716C152.417 260.28 152.436 260.834 152.684 261.377C152.932 261.92 153.338 262.296 153.902 262.505Z" fill="white"/>
</g>
<rect x="116.268" y="235.498" width="15.4909" height="16.7818" transform="rotate(139.443 116.268 235.498)" fill="#12DC9F"/>
<path d="M114.007 217.557L107.474 223.026L104.277 219.341L101.926 221.325L102.977 222.536L94.6015 229.603C93.6504 230.41 93.0627 231.557 92.9667 232.793C92.8707 234.028 93.2742 235.252 94.0891 236.197L96.6736 239.174L84.4715 249.425L86.4901 251.747L98.6473 241.445L101.23 244.421C102.052 245.36 103.216 245.942 104.469 246.04C105.722 246.137 106.962 245.742 107.918 244.94L116.293 237.874L117.345 239.085L119.695 237.103L116.496 233.419L122.987 227.901L121.015 225.631L114.482 231.099L109.488 225.346L115.979 219.828L114.007 217.557ZM104.949 224.805L114.323 235.604L105.948 242.667C105.315 243.201 104.071 243.104 103.528 242.479L96.39 234.256C95.8476 233.631 95.943 232.404 96.5754 231.87L104.949 224.805Z" fill="white"/>
<path d="M60.485 289.002L76.4909 285.545L79.197 298.071L75.1718 299.669L62.4951 301.679L59.2605 300.193L57.117 297.014L57.0612 293.384L60.485 289.002Z" fill="#12DC9F"/>
<path d="M80.8403 285.851L77.8758 286.491L77.8337 286.296C77.7779 286.032 77.6704 285.781 77.5175 285.558C77.3646 285.335 77.1692 285.144 76.9425 284.997C76.7158 284.85 76.4623 284.749 76.1965 284.7C75.9307 284.651 75.6578 284.654 75.3935 284.711L62.0599 287.591C60.1274 288.009 58.44 289.177 57.3688 290.838C56.2975 292.5 55.9302 294.519 56.3477 296.452C56.7651 298.384 57.9331 300.071 59.5947 301.143C61.2564 302.214 63.2755 302.581 65.2079 302.164L78.5415 299.283C78.8056 299.226 79.0557 299.117 79.2776 298.962C79.4994 298.808 79.6886 298.611 79.8343 298.383C79.9799 298.156 80.0793 297.901 80.1265 297.635C80.1738 297.369 80.1681 297.096 80.1097 296.832L80.0676 296.637L83.0322 295.997C83.5838 295.874 84.0647 295.538 84.371 295.063C84.6773 294.588 84.7843 294.012 84.6689 293.458L83.3791 287.487C83.2595 286.934 82.9248 286.45 82.4487 286.143C81.9726 285.836 81.394 285.731 80.8403 285.851ZM78.7179 297.133C78.7549 297.297 78.7254 297.469 78.636 297.611C78.5466 297.753 78.4045 297.854 78.2408 297.892L64.9072 300.772C63.3439 301.11 61.7105 300.813 60.3663 299.946C59.0221 299.079 58.0772 297.714 57.7395 296.151C57.4018 294.588 57.6989 292.954 58.5655 291.61C59.4321 290.266 60.7972 289.321 62.3605 288.983L75.6942 286.103C75.8588 286.07 76.0299 286.103 76.17 286.195C76.3101 286.288 76.4079 286.432 76.4419 286.597L78.7179 297.133ZM83.2771 293.759C83.3139 293.943 83.2776 294.135 83.1757 294.293C83.0739 294.45 82.9146 294.563 82.7316 294.605L79.767 295.246L78.1764 287.883L81.141 287.242C81.3256 287.203 81.5184 287.238 81.6771 287.34C81.8358 287.442 81.9474 287.603 81.9873 287.788L83.2771 293.759Z" fill="white"/>
<path d="M62.676 297.188C62.2778 297.273 61.8633 297.239 61.4847 297.089C61.1062 296.939 60.7807 296.68 60.5494 296.344C60.3181 296.009 60.1914 295.613 60.1853 295.206C60.1791 294.799 60.2939 294.399 60.515 294.057C60.7362 293.715 61.0537 293.446 61.4276 293.285C61.8014 293.123 62.2148 293.076 62.6153 293.15C63.0159 293.223 63.3857 293.414 63.6779 293.697C63.9702 293.981 64.1717 294.345 64.2572 294.743C64.3714 295.277 64.269 295.834 63.9725 296.293C63.676 296.751 63.2097 297.073 62.676 297.188ZM62.1071 294.555C61.9847 294.582 61.873 294.644 61.7862 294.735C61.6993 294.825 61.6411 294.939 61.6189 295.063C61.5968 295.186 61.6116 295.313 61.6616 295.428C61.7116 295.543 61.7945 295.641 61.8999 295.709C62.0053 295.777 62.1284 295.812 62.2537 295.81C62.3791 295.808 62.501 295.769 62.6043 295.698C62.7075 295.627 62.7874 295.527 62.8339 295.41C62.8803 295.294 62.8913 295.166 62.8654 295.044C62.848 294.961 62.8146 294.884 62.767 294.815C62.7194 294.746 62.6586 294.687 62.5881 294.641C62.5176 294.596 62.4388 294.565 62.3563 294.55C62.2737 294.535 62.189 294.537 62.1071 294.555Z" fill="white"/>
<g clip-path="url(#clip8_10_668)">
<mask id="mask1_10_668" style="mask-type:luminance" maskUnits="userSpaceOnUse" x="146" y="185" width="36" height="36">
<path d="M163.646 195.593L165.511 199.674L169.592 197.81L172.64 189.633L166.694 187.417L163.646 195.593ZM158.658 208.972L162.74 207.107L164.605 211.189L161.556 219.365L155.61 217.148L158.658 208.972ZM169.707 208.858L167.842 204.776L171.923 202.912L180.1 205.96L177.883 211.906L169.707 208.858ZM158.544 197.924L160.409 202.005L156.327 203.87L148.151 200.822L150.368 194.876L158.544 197.924Z" fill="white" stroke="white" stroke-width="3.17307" stroke-linecap="round" stroke-linejoin="round"/>
</mask>
<g mask="url(#mask1_10_668)">
<path d="M152.936 178.902L188.615 192.203L175.314 227.881L139.636 214.58L152.936 178.902Z" fill="white"/>
</g>
<path d="M169.662 195.805L170.937 192.385C171.427 191.071 170.759 189.609 169.446 189.119C168.132 188.63 166.67 189.297 166.18 190.611L164.905 194.031C164.698 194.588 164.692 195.199 164.889 195.76C165.414 197.255 167.167 197.909 168.543 197.122C169.059 196.827 169.455 196.361 169.662 195.805Z" fill="#12DC9F"/>
</g>
<g clip-path="url(#clip9_10_668)">
<rect x="99.4602" y="141.473" width="29.0445" height="20.8362" transform="rotate(20.4455 99.4602 141.473)" fill="#12DC9F"/>
<path d="M125.598 149.423L102.303 140.738C101.454 140.422 100.513 140.455 99.6884 140.832C98.8638 141.209 98.2226 141.898 97.9059 142.747L91.8268 159.054C91.5101 159.903 91.5438 160.844 91.9206 161.669C92.2973 162.493 92.9862 163.134 93.8357 163.451L117.131 172.136C117.981 172.452 118.921 172.419 119.746 172.042C120.57 171.665 121.212 170.976 121.528 170.127L127.607 153.82C127.924 152.97 127.89 152.03 127.514 151.205C127.137 150.381 126.448 149.739 125.598 149.423ZM119.781 169.475C119.637 169.861 119.346 170.175 118.971 170.346C118.596 170.517 118.169 170.532 117.782 170.389L94.4871 161.704C94.1009 161.56 93.7878 161.269 93.6165 160.894C93.4453 160.519 93.43 160.091 93.5739 159.705L99.6531 143.399C99.797 143.012 100.088 142.699 100.463 142.528C100.838 142.357 101.266 142.341 101.652 142.485L124.947 151.17C125.333 151.314 125.646 151.605 125.818 151.98C125.989 152.355 126.004 152.783 125.86 153.169L119.781 169.475ZM109.605 173.641C109.518 173.873 109.344 174.061 109.119 174.164C108.894 174.267 108.637 174.276 108.406 174.189L99.0874 170.716C98.8557 170.629 98.6679 170.454 98.5651 170.229C98.4624 170.005 98.4532 169.748 98.5395 169.516C98.6259 169.285 98.8008 169.097 99.0257 168.994C99.2506 168.891 99.5071 168.882 99.7388 168.968L109.057 172.442C109.289 172.529 109.476 172.703 109.579 172.928C109.682 173.153 109.691 173.41 109.605 173.641Z" fill="white"/>
</g>
<path d="M104.214 380.496L96.9268 388.577C92.2313 393.785 84.2126 394.207 79.0159 389.521C73.8192 384.835 73.4123 376.816 78.1078 371.608L85.3947 363.527C87.488 361.202 90.3664 359.732 93.4773 359.4C96.5881 359.068 99.712 359.897 102.249 361.728L98.1461 366.278C97.0099 365.941 95.728 366.257 94.8808 367.196L92.4518 369.89C91.2773 371.193 91.3797 373.198 92.6782 374.369C93.9767 375.54 95.9821 375.435 97.1566 374.132L99.5855 371.439C100.434 370.498 100.615 369.191 100.162 368.096L104.265 363.546C106.348 365.88 107.495 368.902 107.485 372.031C107.476 375.159 106.31 378.174 104.214 380.496Z" fill="white"/>
<defs>
<clipPath id="clip0_10_668">
<rect width="39.9876" height="39.9876" fill="white" transform="translate(195.314 117.637) rotate(20.4455)"/>
</clipPath>
<clipPath id="clip1_10_668">
<rect width="28.5626" height="28.5626" fill="white" transform="translate(267.945 153.962) rotate(20.4455)"/>
</clipPath>
<clipPath id="clip2_10_668">
<rect width="52.5118" height="52.5118" fill="white" transform="translate(217.207 196.696) rotate(20.4455)"/>
</clipPath>
<clipPath id="clip3_10_668">
<rect width="47.4764" height="47.4764" fill="white" transform="translate(197.923 23.0525) rotate(20.4455)"/>
</clipPath>
<clipPath id="clip4_10_668">
<rect width="58.3835" height="58.3835" fill="white" transform="translate(134.36 54.8412) rotate(20.4455)"/>
</clipPath>
<clipPath id="clip5_10_668">
<rect width="43.4393" height="43.4393" fill="white" transform="matrix(-0.999799 0.0200628 0.0200628 0.999799 287.431 87)"/>
</clipPath>
<clipPath id="clip6_10_668">
<rect width="32.4347" height="32.4347" fill="white" transform="matrix(-0.415559 -0.909566 -0.909566 0.415559 285.497 111.883)"/>
</clipPath>
<clipPath id="clip7_10_668">
<rect width="34.6985" height="34.6985" fill="white" transform="translate(147.437 244.666) rotate(20.4455)"/>
</clipPath>
<clipPath id="clip8_10_668">
<rect width="38.0768" height="38.0768" fill="white" transform="translate(152.937 178.901) rotate(20.4455)"/>
</clipPath>
<clipPath id="clip9_10_668">
<rect width="58.5919" height="58.5919" fill="white" transform="translate(88.6671 127.199) rotate(20.4455)"/>
</clipPath>
</defs>
</svg>
