<svg width="37" height="37" viewBox="0 0 37 37" fill="none" xmlns="http://www.w3.org/2000/svg">
<g id="Group 70">
<path id="Ellipse 1" d="M35.4156 18.5524C35.4156 27.6385 27.8295 35.0691 18.3905 35.0691C8.95149 35.0691 1.36544 27.6385 1.36544 18.5524C1.36544 9.46638 8.95149 2.03579 18.3905 2.03579C27.8295 2.03579 35.4156 9.46638 35.4156 18.5524Z" fill="#C0C0C0" stroke="#4E5866" stroke-width="2.73089"/>
<path id="Star 1" d="M18.3901 9.44919L20.1917 14.8408L20.5034 15.7735H21.4868H27.2086L22.6128 19.0202L21.784 19.6057L22.1056 20.5682L23.8815 25.8828L19.1779 22.56L18.3901 22.0034L17.6022 22.56L12.8986 25.8828L14.6745 20.5682L14.9962 19.6057L14.1674 19.0202L9.57151 15.7735H15.2934H16.2767L16.5884 14.8408L18.3901 9.44919Z" fill="white" stroke="#4E5866" stroke-width="2.73089"/>
</g>
</svg>
