<svg width="25" height="29" viewBox="0 0 25 29" fill="none" xmlns="http://www.w3.org/2000/svg">
<path id="Vector" d="M19.702 4.97142C18.6264 3.7435 18.0337 2.16657 18.0341 0.53418H13.172V20.0454C13.1345 21.1013 12.6888 22.1014 11.9286 22.8351C11.1684 23.5689 10.1532 23.979 9.09669 23.9791C6.86234 23.9791 5.00562 22.1539 5.00562 19.8881C5.00562 17.1817 7.61761 15.1519 10.3083 15.9858V11.0136C4.87974 10.2898 0.127808 14.5068 0.127808 19.8881C0.127808 25.1278 4.47064 28.857 9.08096 28.857C14.0217 28.857 18.0341 24.8446 18.0341 19.8881V9.99084C20.0057 11.4067 22.3728 12.1664 24.8001 12.1623V7.30018C24.8001 7.30018 21.8419 7.44179 19.702 4.97142Z" fill="white"/>
</svg>
